<svg width="378" height="330" viewBox="0 0 378 330" fill="none" xmlns="http://www.w3.org/2000/svg">
<path fill-rule="evenodd" clip-rule="evenodd" d="M157.027 134.578H187.386C191.043 134.578 194.027 137.563 194.027 141.219V301.339C194.027 304.995 191.043 307.979 187.386 307.979H157.027C153.371 307.979 150.386 304.995 150.386 301.339V141.219C150.386 137.563 153.371 134.578 157.027 134.578Z" fill="#6CF5C2"/>
<path fill-rule="evenodd" clip-rule="evenodd" d="M157.027 134.578H170.308C166.652 134.578 163.668 137.563 163.668 141.219V301.339C163.668 304.995 166.652 307.979 170.308 307.979H157.027C153.371 307.979 150.386 304.995 150.386 301.339V141.219C150.386 137.563 153.371 134.578 157.027 134.578Z" fill="#00E499"/>
<path fill-rule="evenodd" clip-rule="evenodd" d="M238.063 180.386C248.183 180.386 258.303 180.386 268.423 180.386C272.084 180.386 275.068 183.37 275.068 187.026C275.068 227.49 275.068 260.881 275.068 301.339C275.068 304.995 272.084 307.979 268.423 307.979C258.303 307.979 248.183 307.979 238.063 307.979C234.407 307.979 231.423 304.995 231.423 301.339C231.423 260.881 231.423 227.49 231.423 187.026C231.423 183.37 234.407 180.386 238.063 180.386Z" fill="#FFE177"/>
<path fill-rule="evenodd" clip-rule="evenodd" d="M238.063 180.386H251.35C247.688 180.386 244.704 183.37 244.704 187.026C244.704 227.485 244.704 260.881 244.704 301.339C244.704 304.995 247.688 307.979 251.35 307.979H238.063C234.407 307.979 231.423 304.995 231.423 301.339C231.423 260.881 231.423 227.485 231.423 187.026C231.423 183.37 234.407 180.386 238.063 180.386Z" fill="#FFD064"/>
<path fill-rule="evenodd" clip-rule="evenodd" d="M349.464 224.255H319.105C315.444 224.255 312.459 227.234 312.459 230.896V301.338C312.459 304.994 315.444 307.979 319.105 307.979H349.464C353.121 307.979 356.105 304.994 356.105 301.338V230.896C356.105 227.234 353.121 224.255 349.464 224.255Z" fill="#FE646F"/>
<path fill-rule="evenodd" clip-rule="evenodd" d="M332.386 224.255H319.1C315.444 224.255 312.459 227.234 312.459 230.896V301.338C312.459 304.994 315.444 307.979 319.1 307.979H332.386C328.73 307.979 325.746 304.994 325.746 301.338V230.896C325.746 227.234 328.73 224.255 332.386 224.255Z" fill="#FD4755"/>
<mask id="mask0_75_327" style="mask-type:luminance" maskUnits="userSpaceOnUse" x="47" y="302" width="331" height="19">
<path d="M47.2874 302.167H377.287V320.834H47.2874V302.167Z" fill="white"/>
</mask>
<g mask="url(#mask0_75_327)">
<path fill-rule="evenodd" clip-rule="evenodd" d="M370.527 303.24H54.9229C51.2718 303.24 48.2979 306.219 48.2979 309.87V313.063C48.2979 316.714 51.2718 319.693 54.9229 319.693H370.527C374.178 319.693 377.157 316.714 377.157 313.063V309.87C377.157 306.219 374.178 303.24 370.527 303.24Z" fill="#A79BA7"/>
</g>
<mask id="mask1_75_327" style="mask-type:luminance" maskUnits="userSpaceOnUse" x="47" y="310" width="331" height="11">
<path d="M47.2874 310.167H377.287V320.834H47.2874V310.167Z" fill="white"/>
</mask>
<g mask="url(#mask1_75_327)">
<path fill-rule="evenodd" clip-rule="evenodd" d="M48.2979 311.469V313.063C48.2979 316.714 51.2718 319.693 54.9229 319.693H370.527C374.178 319.693 377.157 316.714 377.157 313.063V311.469H48.2979Z" fill="#837683"/>
</g>
<mask id="mask2_75_327" style="mask-type:luminance" maskUnits="userSpaceOnUse" x="124" y="0" width="234" height="160">
<path d="M124.621 0H357.954V159.5H124.621V0Z" fill="white"/>
</mask>
<g mask="url(#mask2_75_327)">
<path fill-rule="evenodd" clip-rule="evenodd" d="M307.074 138.63C276.126 137.687 243.09 128.291 212.308 109.911C166.569 82.5986 135.944 41.5049 125.631 -0.0263672C141.111 27.307 163.116 51.1403 196.652 71.1663C227.064 89.3278 274.642 103.489 309.371 104.432L310.663 85.2497C310.715 84.4632 311.183 83.8174 311.913 83.5205C312.642 83.2288 313.423 83.3643 314.006 83.8955L356.892 122.609C357.361 123.031 357.59 123.593 357.548 124.224C357.506 124.854 357.215 125.38 356.694 125.744L308.97 158.922C308.324 159.375 307.527 159.411 306.84 159.021C306.152 158.635 305.772 157.932 305.824 157.14L307.074 138.63Z" fill="#FFE177"/>
<path fill-rule="evenodd" clip-rule="evenodd" d="M307.074 138.63C276.126 137.687 243.09 128.291 212.308 109.911C166.569 82.5986 135.944 41.5049 125.631 -0.0263672C125.861 0.38509 126.095 0.791341 126.329 1.19238L126.345 1.22363L126.361 1.24967V1.25488L126.392 1.30697L126.668 1.78613C139.558 38.9632 173.673 77.807 209.647 99.2861C245.621 120.771 276.126 127.229 307.074 128.172V138.63ZM350.959 117.255L306.428 148.224L305.824 157.146C305.772 157.932 306.152 158.635 306.84 159.026C307.527 159.411 308.324 159.375 308.97 158.927L356.694 125.744C357.209 125.385 357.506 124.854 357.548 124.224C357.59 123.593 357.361 123.031 356.892 122.609L350.959 117.255Z" fill="#FFD064"/>
</g>
<path fill-rule="evenodd" clip-rule="evenodd" d="M108.543 121.396L117.381 147.776C140.407 172.474 157.183 193.391 167.709 211.875C201.355 270.948 153.49 330.948 89.3915 329.87C25.2925 330.948 -22.5668 270.948 11.0738 211.875C21.5998 193.396 38.3759 172.474 61.4071 147.776L70.2717 121.422L48.6936 99.8441C43.4279 94.5785 43.4279 85.9639 48.6936 80.693C53.1727 76.2139 60.2613 75.4587 65.5946 78.8805C67.5738 80.1514 69.8498 80.3545 72.0217 79.4535C74.1936 78.5524 75.6571 76.8024 76.1571 74.5055C77.4852 68.4274 82.928 63.8389 89.3915 63.8389C95.7405 63.8389 101.272 68.3076 102.626 74.5055C103.126 76.8024 104.595 78.5524 106.766 79.4535C108.938 80.3545 111.209 80.1514 113.188 78.8805C118.428 75.5212 125.522 76.1253 130.089 80.693C135.355 85.9639 135.355 94.5785 130.089 99.8441L108.543 121.396Z" fill="#FFC338"/>
<path fill-rule="evenodd" clip-rule="evenodd" d="M108.543 121.396L117.381 147.776C140.407 172.474 157.183 193.39 167.709 211.875C201.355 270.948 153.49 330.948 89.3915 329.869C88.1363 329.89 86.8915 329.88 85.6467 329.854C147.845 328.593 193.209 269.791 160.22 211.875C149.699 193.396 132.918 172.474 109.892 147.781L101.058 121.396L122.605 99.8434C127.871 94.5778 127.871 85.9632 122.605 80.6924C120.928 79.0153 118.912 77.8747 116.772 77.2653C121.35 75.9632 126.501 77.1038 130.089 80.6924C135.355 85.9632 135.355 94.5778 130.089 99.8434L108.543 121.396ZM54.5374 77.2653C58.1936 76.2288 62.2405 76.7288 65.5946 78.8799L65.6207 78.8955C65.2821 79.109 64.9176 79.2913 64.5321 79.4528C62.3603 80.3538 60.0894 80.1507 58.1051 78.8799C56.9801 78.1559 55.7769 77.6195 54.5374 77.2653ZM85.6467 64.3643C90.329 65.7236 94.0634 69.5674 95.1415 74.5049C95.6415 76.8018 97.1051 78.5518 99.2769 79.4528C101.444 80.3486 103.704 80.1507 105.678 78.8955C104.105 77.9163 103.037 76.3955 102.626 74.5049C101.277 68.307 95.7405 63.833 89.3915 63.833C88.0946 63.833 86.8342 64.0205 85.6467 64.3643Z" fill="#F5B829"/>
<path fill-rule="evenodd" clip-rule="evenodd" d="M59.9957 147.776H118.787C126.037 147.776 131.964 141.849 131.964 134.599C131.964 127.354 126.037 121.422 118.787 121.422H59.9957C52.7457 121.422 46.8186 127.354 46.8186 134.599C46.8186 141.849 52.7457 147.776 59.9957 147.776Z" fill="#837683"/>
<path fill-rule="evenodd" clip-rule="evenodd" d="M111.303 147.776H118.787C126.037 147.776 131.964 141.849 131.964 134.599C131.964 127.354 126.037 121.422 118.787 121.422H111.303C118.548 121.422 124.48 127.354 124.48 134.599C124.48 141.849 118.548 147.776 111.303 147.776Z" fill="#685E68"/>
<path fill-rule="evenodd" clip-rule="evenodd" d="M88.7145 267.896C88.8551 267.886 89.0009 267.881 89.1416 267.881C89.3134 267.881 89.4801 267.886 89.6468 267.901L89.9332 267.896C90.678 267.881 91.5582 267.808 92.5686 267.688C96.2718 267.24 99.9697 266.058 102.61 264.058C104.714 262.464 106.116 260.229 106.048 257.297C106.043 257.068 106.006 256.714 105.949 256.219C105.501 252.532 103.407 250.073 100.621 248.391C97.1311 246.287 92.5478 245.172 88.2457 244.464C82.8968 243.589 77.0947 241.99 72.3707 238.907C66.9488 235.37 63.0582 230.136 62.678 222.334C62.303 214.573 65.6468 208.344 70.9228 204.058C74.3551 201.266 78.6155 199.349 83.152 198.433V193.703C83.152 190.396 85.8343 187.714 89.1416 187.714C92.4488 187.714 95.1311 190.396 95.1311 193.703V198.344C95.7145 198.453 96.2978 198.584 96.8759 198.729C104.741 200.724 111.897 205.896 115.657 214.849C116.933 217.896 115.501 221.407 112.449 222.688C109.402 223.964 105.892 222.532 104.616 219.479C102.48 214.396 98.4228 211.464 93.9749 210.334C92.527 209.969 91.0426 209.776 89.5686 209.756C89.428 209.766 89.2874 209.771 89.1416 209.771C89.0218 209.771 88.902 209.771 88.7874 209.761C87.6728 209.792 86.5686 209.917 85.5009 210.131C82.8343 210.667 80.3811 211.756 78.4541 213.323C75.9957 215.318 74.4384 218.203 74.6103 221.776C74.7718 225.073 76.4853 227.334 78.8759 228.896C81.9593 230.907 86.1676 232.021 90.1676 232.677C95.7093 233.584 101.756 235.099 106.798 238.146C112.537 241.61 116.866 246.818 117.834 254.818C117.912 255.448 117.959 256.183 117.98 257.016C118.152 264.318 114.819 269.761 109.813 273.558C105.647 276.719 100.339 278.62 95.1311 279.417V283.948C95.1311 287.256 92.4488 289.938 89.1416 289.938C85.8343 289.938 83.152 287.256 83.152 283.953V279.302C78.8655 278.547 74.7718 276.995 71.2509 274.646C66.0895 271.209 62.1363 266.141 60.4645 259.438C59.678 256.229 61.6363 252.995 64.8395 252.209C68.0426 251.417 71.2822 253.375 72.0686 256.584C72.9541 260.131 75.0738 262.834 77.8447 264.683C80.9124 266.719 84.7561 267.792 88.7145 267.896Z" fill="#FFE177"/>
</svg>
