<svg width="399" height="214" viewBox="0 0 399 214" fill="none" xmlns="http://www.w3.org/2000/svg">
<mask id="mask0_75_298" style="mask-type:luminance" maskUnits="userSpaceOnUse" x="0" y="86" width="44" height="112">
<path d="M0 86.6152H43.3333V197.282H0V86.6152Z" fill="white"/>
</mask>
<g mask="url(#mask0_75_298)">
<path fill-rule="evenodd" clip-rule="evenodd" d="M41.9844 87.542C42.0573 160.287 42.0573 196.599 41.9844 196.485H5.72396C2.57292 196.485 0 193.912 0 190.761V93.266C0 90.1149 2.57292 87.542 5.72396 87.542H41.9844Z" fill="#D1D1D6"/>
<path fill-rule="evenodd" clip-rule="evenodd" d="M0 190.761C0 193.912 2.57292 196.485 5.72396 196.485H42.026V87.542H36.2969V190.761H0Z" fill="#B1B1B5"/>
</g>
<path fill-rule="evenodd" clip-rule="evenodd" d="M132.443 207.411C90.2188 214.682 65.6719 219.995 41.125 196.484V87.5417C60.474 73.0104 86.0208 60.5573 86.0208 33.0729V0C107.839 0 125.693 17.8438 125.693 39.6615V65.3177C124.938 70.776 121.448 78.75 114.693 85.5104C176.115 101.307 149.969 208.161 132.443 207.411Z" fill="#F6DCCD"/>
<path fill-rule="evenodd" clip-rule="evenodd" d="M50.7656 204.266C47.526 202.12 44.3281 199.552 41.125 196.484V87.5417C60.474 73.0104 86.0208 60.5573 86.0208 33.0729V0C96.7813 0 106.573 4.33854 113.734 11.3542C107.786 7.78125 100.839 5.72396 93.4323 5.72396V38.7969C93.4323 66.2865 67.8854 78.7344 48.5365 93.2656V202.214C49.2813 202.922 50.0208 203.604 50.7656 204.266Z" fill="#F1CBBC"/>
<path fill-rule="evenodd" clip-rule="evenodd" d="M137.245 208.162H162.688C171.359 208.162 178.448 201.073 178.448 192.401C178.448 183.735 171.359 176.641 162.688 176.641H172.089C180.76 176.641 187.849 169.547 187.849 160.881C187.849 152.209 180.76 145.12 172.089 145.12H183.151C191.818 145.12 198.911 138.026 198.911 129.36C198.911 120.688 191.818 113.594 183.151 113.594H176.51C185.177 113.594 192.271 106.506 192.271 97.8337C192.271 89.167 185.177 82.0732 176.51 82.0732H137.245C128.578 82.0732 121.484 89.167 121.484 97.8337C121.484 106.506 128.578 113.594 137.245 113.594H130.604C121.938 113.594 114.844 120.688 114.844 129.36C114.844 138.026 121.938 145.12 130.604 145.12H137.245C128.578 145.12 121.484 152.209 121.484 160.881C121.484 169.547 128.578 176.641 137.245 176.641C128.578 176.641 121.484 183.735 121.484 192.401C121.484 201.073 128.578 208.162 137.245 208.162Z" fill="#F6DCCD"/>
<path fill-rule="evenodd" clip-rule="evenodd" d="M137.245 208.162H162.688C171.359 208.162 178.448 201.073 178.448 192.401H121.484C121.484 201.073 128.578 208.162 137.245 208.162Z" fill="#F1CBBC"/>
<path fill-rule="evenodd" clip-rule="evenodd" d="M162.688 176.641H172.089C180.76 176.641 187.849 169.548 187.849 160.881H121.484C121.484 169.548 128.578 176.641 137.245 176.641H162.688Z" fill="#F1CBBC"/>
<path fill-rule="evenodd" clip-rule="evenodd" d="M172.089 145.12H183.151C191.818 145.12 198.911 138.026 198.911 129.359H114.844C114.844 138.026 121.938 145.12 130.609 145.12H172.089Z" fill="#F1CBBC"/>
<path fill-rule="evenodd" clip-rule="evenodd" d="M176.51 113.6C185.177 113.6 192.271 106.506 192.271 97.834H121.484C121.484 106.506 128.578 113.6 137.245 113.6H176.51Z" fill="#F1CBBC"/>
<path fill-rule="evenodd" clip-rule="evenodd" d="M366.266 121.844L328.344 153.286L348.682 200.505C349.333 202.021 351.417 202.177 352.286 200.771L365.417 179.62L389.807 184.615C391.427 184.948 392.745 183.328 392.089 181.807L366.266 121.844Z" fill="#FE646F"/>
<path fill-rule="evenodd" clip-rule="evenodd" d="M366.266 121.844L361.25 126L385.286 181.807C385.568 182.464 385.484 183.135 385.167 183.661L389.807 184.615C391.427 184.943 392.745 183.328 392.089 181.807L366.266 121.844ZM347.438 197.625L359.38 178.38L365.417 179.62L352.286 200.771C351.417 202.177 349.333 202.021 348.682 200.505L347.438 197.625Z" fill="#FD4755"/>
<path fill-rule="evenodd" clip-rule="evenodd" d="M310.323 150.849L283.057 209.412C282.359 210.907 280.271 211 279.443 209.573L266.932 188.047L242.406 192.334C240.776 192.62 239.51 190.959 240.208 189.459L267.172 131.542L310.323 150.849Z" fill="#FE646F"/>
<path fill-rule="evenodd" clip-rule="evenodd" d="M310.323 150.85L283.057 209.412C282.359 210.907 280.271 211.001 279.443 209.574L266.932 188.048L242.406 192.334C240.776 192.62 239.505 190.959 240.203 189.459L241.865 185.902L263.49 182.12L275.995 203.646C276.828 205.074 278.917 204.98 279.615 203.485L305.188 148.553L310.323 150.85Z" fill="#FD4755"/>
<path fill-rule="evenodd" clip-rule="evenodd" d="M326.5 6.51074C342.802 18.7139 339.104 17.3701 359.438 18.5003C367.245 18.9326 373.589 24.2555 375.375 31.8753C377.057 39.068 377.88 48.1357 383.375 53.2868L392.896 62.2295C398.599 67.5837 400.037 75.7347 396.51 82.7139C387.323 100.891 388.005 97.016 390.422 117.235C391.354 125 387.214 132.172 380.021 135.25C361.302 143.271 364.318 140.74 353.172 157.782C348.891 164.328 341.109 167.162 333.62 164.896C314.13 159.006 318.063 159.006 298.568 164.896C291.083 167.162 283.302 164.328 279.021 157.782C267.875 140.74 270.891 143.271 252.172 135.25C244.979 132.172 240.839 125 241.766 117.235C244.182 97.016 244.87 100.891 235.682 82.7139C232.151 75.7347 233.589 67.5785 239.292 62.2295C254.141 48.292 252.172 51.6982 256.818 31.8701C258.604 24.2555 264.948 18.9326 272.755 18.5003C293.089 17.3701 289.391 18.7139 305.693 6.51074C311.958 1.82324 320.234 1.82324 326.5 6.51074Z" fill="#FFE177"/>
<path fill-rule="evenodd" clip-rule="evenodd" d="M326.5 6.51106C342.802 18.7142 339.104 17.3704 359.437 18.5006C367.245 18.9329 373.588 24.2559 375.375 31.8756C377.057 39.0684 377.88 48.1361 383.375 53.2871L392.896 62.2298C398.599 67.584 400.036 75.735 396.51 82.7142C387.323 100.891 388.005 97.0163 390.422 117.235C391.354 125.001 387.213 132.173 380.021 135.251C361.302 143.271 364.318 140.74 353.172 157.782C349.016 164.136 341.562 166.99 334.281 165.084C338.271 164.016 341.828 161.495 344.255 157.782C355.401 140.74 352.385 143.271 371.104 135.251C378.297 132.173 382.437 125.001 381.51 117.235C379.088 97.0163 378.406 100.891 387.594 82.7142C391.125 75.735 389.687 67.5788 383.984 62.2298L374.458 53.2871C368.969 48.1361 368.141 39.0684 366.458 31.8756C364.672 24.2559 358.328 18.9329 350.521 18.5006C330.187 17.3704 333.885 18.7142 317.583 6.51106C315.74 5.13606 313.724 4.1621 311.641 3.59439C316.651 2.22981 322.078 3.20377 326.5 6.51106ZM311.641 161.053C308.661 161.73 304.818 163.011 298.568 164.902C295.328 165.881 292.036 165.902 288.99 165.084C289.213 165.027 289.432 164.964 289.656 164.902C302.896 160.896 305.328 159.615 311.641 161.053Z" fill="#FFD064"/>
<path d="M334.688 39.443C336.156 40.0472 337.594 40.7295 339 41.4795C340.401 42.2295 341.766 43.0472 343.089 43.9326C344.411 44.8128 345.688 45.7607 346.917 46.7712C348.146 47.7816 349.323 48.8493 350.448 49.9743C351.573 51.0993 352.641 52.2764 353.651 53.5055C354.661 54.7347 355.609 56.0107 356.49 57.3337C357.375 58.6566 358.193 60.0212 358.943 61.4222C359.693 62.8285 360.37 64.2607 360.979 65.7347C361.589 67.2035 362.125 68.6982 362.589 70.2243C363.047 71.7451 363.432 73.2868 363.745 74.8441C364.057 76.4066 364.286 77.9795 364.443 79.5628C364.599 81.1462 364.677 82.7347 364.677 84.3232C364.677 85.917 364.599 87.5003 364.443 89.0889C364.286 90.6722 364.057 92.2399 363.745 93.8024C363.432 95.3649 363.047 96.9066 362.589 98.4274C362.125 99.9482 361.589 101.448 360.979 102.917C360.37 104.386 359.693 105.823 358.943 107.224C358.193 108.631 357.375 109.99 356.49 111.313C355.609 112.636 354.661 113.917 353.651 115.146C352.641 116.375 351.573 117.552 350.448 118.677C349.323 119.802 348.146 120.87 346.917 121.881C345.688 122.886 344.411 123.834 343.089 124.719C341.766 125.604 340.401 126.422 339 127.172C337.594 127.922 336.156 128.599 334.688 129.209C333.219 129.818 331.724 130.354 330.198 130.813C328.677 131.276 327.135 131.662 325.573 131.974C324.016 132.282 322.443 132.516 320.859 132.672C319.276 132.828 317.688 132.907 316.099 132.907C314.505 132.907 312.917 132.828 311.333 132.672C309.75 132.516 308.177 132.282 306.62 131.974C305.057 131.662 303.516 131.276 301.995 130.813C300.469 130.354 298.974 129.818 297.505 129.209C296.036 128.599 294.599 127.922 293.193 127.172C291.792 126.422 290.427 125.604 289.104 124.719C287.781 123.834 286.505 122.886 285.276 121.881C284.047 120.87 282.87 119.802 281.745 118.677C280.62 117.552 279.552 116.375 278.542 115.146C277.531 113.917 276.589 112.636 275.703 111.313C274.818 109.99 274 108.631 273.25 107.224C272.5 105.823 271.823 104.386 271.214 102.917C270.604 101.448 270.068 99.9482 269.604 98.4274C269.146 96.9066 268.76 95.3649 268.448 93.8024C268.135 92.2399 267.906 90.6722 267.75 89.0889C267.594 87.5003 267.516 85.917 267.516 84.3232C267.516 82.7347 267.594 81.1462 267.75 79.5628C267.906 77.9795 268.135 76.4066 268.448 74.8441C268.76 73.2868 269.146 71.7451 269.604 70.2243C270.068 68.6982 270.604 67.2035 271.214 65.7347C271.823 64.2607 272.5 62.8285 273.25 61.4222C274 60.0212 274.818 58.6566 275.703 57.3337C276.589 56.0107 277.531 54.7347 278.542 53.5055C279.552 52.2764 280.62 51.0993 281.745 49.9743C282.87 48.8493 284.047 47.7816 285.276 46.7712C286.505 45.7607 287.781 44.8128 289.104 43.9326C290.427 43.0472 291.792 42.2295 293.193 41.4795C294.599 40.7295 296.036 40.0472 297.505 39.443C298.974 38.8337 300.469 38.2972 301.995 37.8337C303.516 37.3701 305.057 36.9847 306.62 36.6774C308.177 36.3649 309.75 36.1305 311.333 35.9743C312.917 35.818 314.505 35.7451 316.099 35.7451C317.688 35.7451 319.276 35.818 320.859 35.9743C322.443 36.1305 324.016 36.3649 325.573 36.6774C327.135 36.9847 328.677 37.3701 330.198 37.8337C331.724 38.2972 333.219 38.8337 334.688 39.443Z" fill="#ECEFF1"/>
<path fill-rule="evenodd" clip-rule="evenodd" d="M316.094 35.75C317.401 35.75 318.698 35.8021 319.979 35.9063C294.964 37.8854 275.276 58.8073 275.276 84.3333C275.276 109.854 294.964 130.781 319.979 132.76C318.698 132.859 317.401 132.917 316.094 132.917C289.266 132.917 267.516 111.161 267.516 84.3333C267.516 57.5 289.266 35.75 316.094 35.75Z" fill="#D1D1D6"/>
<path fill-rule="evenodd" clip-rule="evenodd" d="M285.219 90.5317C282.661 87.9744 282.661 83.8182 285.219 81.2609C287.781 78.6984 291.932 78.6984 294.495 81.2609L305.391 92.1567L337.927 62.6254C340.599 60.1932 344.74 60.3859 347.177 63.0629C349.609 65.7348 349.417 69.8754 346.74 72.3077L309.833 105.803L309.797 105.839C307.24 108.396 303.089 108.396 300.526 105.839L285.219 90.5317Z" fill="#8AC9FE"/>
</svg>
