<svg width="400" height="267" viewBox="0 0 400 267" fill="none" xmlns="http://www.w3.org/2000/svg">
<mask id="mask0_75_544" style="mask-type:luminance" maskUnits="userSpaceOnUse" x="7" y="55" width="382" height="212">
<path d="M7.33301 55.4883H388.666V266.655H7.33301V55.4883Z" fill="white"/>
</mask>
<g mask="url(#mask0_75_544)">
<path d="M387.604 151.821C387.604 98.8786 302.531 55.9619 197.583 55.9619C92.6403 55.9619 7.56738 98.8786 7.56738 151.821C7.56738 155.009 7.56738 167.524 7.56738 170.717C7.56738 223.66 92.6403 266.577 197.583 266.577C302.531 266.577 387.604 223.66 387.604 170.717C387.604 167.524 387.604 155.009 387.604 151.821Z" fill="#D89B39"/>
</g>
<path d="M260.151 66.6447C260.151 66.6447 147.099 48.0614 74.6201 88.327C2.14616 128.593 22.8962 162.041 40.2399 189.301C57.5889 216.556 134.401 245.671 242.188 238.238C349.974 230.801 382.188 175.363 373.823 143.77C365.459 112.176 333.558 75.3166 260.151 66.6447Z" fill="#C67F18"/>
<path d="M362.828 155.848C362.828 157.103 362.761 158.358 362.631 159.608C362.495 160.863 362.297 162.113 362.032 163.363C361.766 164.608 361.438 165.853 361.042 167.098C360.646 168.337 360.183 169.572 359.657 170.801C359.131 172.035 358.542 173.259 357.886 174.473C357.23 175.691 356.511 176.9 355.724 178.103C354.943 179.301 354.094 180.493 353.188 181.676C352.276 182.853 351.308 184.025 350.271 185.186C349.24 186.342 348.146 187.488 346.99 188.624C345.839 189.759 344.625 190.879 343.355 191.983C342.078 193.092 340.75 194.181 339.36 195.259C337.974 196.332 336.532 197.395 335.032 198.436C333.532 199.478 331.98 200.504 330.37 201.514C328.761 202.52 327.099 203.509 325.391 204.478C323.677 205.452 321.912 206.4 320.099 207.327C318.287 208.259 316.427 209.165 314.521 210.056C312.61 210.941 310.657 211.806 308.657 212.65C306.657 213.488 304.615 214.311 302.526 215.108C300.438 215.9 298.313 216.676 296.146 217.421C293.979 218.171 291.771 218.889 289.526 219.587C287.282 220.285 285 220.957 282.688 221.598C280.37 222.243 278.026 222.863 275.646 223.457C273.261 224.046 270.854 224.608 268.412 225.145C265.974 225.681 263.506 226.191 261.011 226.671C258.516 227.15 256 227.603 253.459 228.025C250.917 228.447 248.354 228.842 245.771 229.207C243.188 229.572 240.589 229.905 237.969 230.207C235.354 230.514 232.719 230.79 230.073 231.035C227.422 231.28 224.766 231.493 222.094 231.676C219.427 231.863 216.745 232.014 214.063 232.139C211.375 232.259 208.683 232.353 205.99 232.415C203.292 232.478 200.594 232.504 197.896 232.504C195.198 232.504 192.5 232.478 189.802 232.415C187.104 232.353 184.417 232.259 181.729 232.139C179.042 232.014 176.365 231.863 173.693 231.676C171.026 231.493 168.365 231.28 165.719 231.035C163.073 230.79 160.438 230.514 157.818 230.207C155.203 229.905 152.599 229.572 150.016 229.207C147.433 228.842 144.875 228.447 142.334 228.025C139.792 227.603 137.271 227.15 134.776 226.671C132.287 226.191 129.818 225.681 127.381 225.145C124.938 224.608 122.526 224.046 120.146 223.457C117.766 222.863 115.417 222.243 113.104 221.598C110.787 220.957 108.511 220.285 106.266 219.587C104.021 218.889 101.813 218.171 99.6462 217.421C97.4795 216.676 95.3493 215.9 93.266 215.108C91.1774 214.311 89.1357 213.488 87.1357 212.65C85.1357 211.806 83.1774 210.941 81.2712 210.056C79.3649 209.165 77.5003 208.259 75.6878 207.327C73.8753 206.4 72.1149 205.452 70.4014 204.478C68.6878 203.509 67.0264 202.52 65.4222 201.514C63.8128 200.504 62.2607 199.478 60.7607 198.436C59.2607 197.395 57.818 196.332 56.4274 195.259C55.042 194.181 53.7087 193.092 52.4378 191.983C51.167 190.879 49.9535 189.759 48.7972 188.624C47.6462 187.488 46.5524 186.342 45.516 185.186C44.4847 184.025 43.516 182.853 42.6045 181.676C41.693 180.493 40.8493 179.301 40.068 178.103C39.2816 176.9 38.5628 175.691 37.9066 174.473C37.2503 173.259 36.6618 172.035 36.1305 170.801C35.6045 169.572 35.1462 168.337 34.7503 167.098C34.3545 165.853 34.0212 164.608 33.7555 163.363C33.4951 162.113 33.2972 160.863 33.1618 159.608C33.0316 158.358 32.9639 157.103 32.9639 155.848C32.9639 154.592 33.0316 153.337 33.1618 152.087C33.2972 150.832 33.4951 149.582 33.7555 148.332C34.0212 147.087 34.3545 145.842 34.7503 144.598C35.1462 143.358 35.6045 142.124 36.1305 140.895C36.6618 139.66 37.2503 138.436 37.9066 137.223C38.5628 136.004 39.2816 134.796 40.068 133.598C40.8493 132.395 41.693 131.202 42.6045 130.025C43.516 128.842 44.4847 127.671 45.516 126.514C46.5524 125.353 47.6462 124.207 48.7972 123.072C49.9535 121.936 51.167 120.816 52.4378 119.712C53.7087 118.603 55.042 117.514 56.4274 116.436C57.818 115.363 59.2607 114.301 60.7607 113.259C62.2607 112.217 63.8128 111.191 65.4222 110.181C67.0264 109.176 68.6878 108.186 70.4014 107.217C72.1149 106.249 73.8753 105.296 75.6878 104.368C77.5003 103.436 79.3649 102.53 81.2712 101.645C83.1774 100.754 85.1357 99.8893 87.1357 99.0456C89.1357 98.207 91.1774 97.3841 93.266 96.5924C95.3493 95.7956 97.4795 95.0247 99.6462 94.2747C101.813 93.5299 104.021 92.806 106.266 92.1081C108.511 91.4102 110.787 90.7383 113.104 90.0977C115.417 89.4518 117.766 88.832 120.146 88.2435C122.526 87.6497 124.938 87.0872 127.381 86.5508C129.818 86.0143 132.287 85.5039 134.776 85.0247C137.271 84.5456 139.792 84.0924 142.334 83.6706C144.875 83.2487 147.433 82.8529 150.016 82.4883C152.599 82.1237 155.203 81.7904 157.818 81.4883C160.438 81.181 163.073 80.9049 165.719 80.6602C168.365 80.4154 171.026 80.2018 173.693 80.0195C176.365 79.8372 179.042 79.681 181.729 79.5612C184.417 79.4362 187.104 79.3424 189.802 79.2799C192.5 79.2227 195.198 79.1914 197.896 79.1914C200.594 79.1914 203.292 79.2227 205.99 79.2799C208.683 79.3424 211.375 79.4362 214.063 79.5612C216.745 79.681 219.427 79.8372 222.094 80.0195C224.766 80.2018 227.422 80.4154 230.073 80.6602C232.719 80.9049 235.354 81.181 237.969 81.4883C240.589 81.7904 243.188 82.1237 245.771 82.4883C248.354 82.8529 250.917 83.2487 253.459 83.6706C256 84.0924 258.516 84.5456 261.011 85.0247C263.506 85.5039 265.974 86.0143 268.412 86.5508C270.854 87.0872 273.261 87.6497 275.646 88.2435C278.026 88.832 280.37 89.4518 282.688 90.0977C285 90.7383 287.282 91.4102 289.526 92.1081C291.771 92.806 293.979 93.5299 296.146 94.2747C298.313 95.0247 300.438 95.7956 302.526 96.5924C304.615 97.3841 306.657 98.207 308.657 99.0456C310.657 99.8893 312.61 100.754 314.521 101.645C316.427 102.53 318.287 103.436 320.099 104.368C321.912 105.296 323.677 106.249 325.391 107.217C327.099 108.186 328.761 109.176 330.37 110.181C331.98 111.191 333.532 112.217 335.032 113.259C336.532 114.301 337.974 115.363 339.36 116.436C340.75 117.514 342.078 118.603 343.355 119.712C344.625 120.816 345.839 121.936 346.99 123.072C348.146 124.207 349.24 125.353 350.271 126.514C351.308 127.671 352.276 128.842 353.188 130.025C354.094 131.202 354.943 132.395 355.724 133.598C356.511 134.796 357.23 136.004 357.886 137.223C358.542 138.436 359.131 139.66 359.657 140.895C360.183 142.124 360.646 143.358 361.042 144.598C361.438 145.842 361.766 147.087 362.032 148.332C362.297 149.582 362.495 150.832 362.631 152.087C362.761 153.337 362.828 154.592 362.828 155.848Z" fill="white"/>
<path d="M196.344 153.682C196.344 153.682 166.615 201.38 168.469 204.166C170.328 206.952 183.339 209.744 184.886 207.265C186.438 204.786 199.443 154.301 199.443 154.301L196.344 153.682Z" fill="#E6E6E6"/>
<path d="M200.682 153.062C200.682 153.062 285.547 200.14 285.547 201.687C285.547 203.239 279.974 205.093 278.734 205.093C277.494 205.093 197.896 154.608 197.896 154.608L200.682 153.062Z" fill="#E6E6E6"/>
<path d="M214.313 149.035C214.313 144.822 206.964 141.405 197.896 141.405C188.828 141.405 181.479 144.822 181.479 149.035C181.479 149.676 181.479 152.108 181.479 152.749C181.479 156.963 188.828 160.379 197.896 160.379C206.964 160.379 214.313 156.963 214.313 152.749C214.313 152.108 214.313 149.676 214.313 149.035Z" fill="#D89B39"/>
<path d="M214.313 149.035C214.313 149.535 214.209 150.03 213.995 150.525C213.787 151.015 213.474 151.489 213.063 151.952C212.651 152.416 212.141 152.858 211.547 153.275C210.948 153.692 210.266 154.077 209.506 154.431C208.74 154.785 207.912 155.098 207.016 155.379C206.12 155.655 205.172 155.89 204.177 156.082C203.183 156.275 202.157 156.421 201.099 156.52C200.042 156.614 198.974 156.666 197.896 156.666C196.818 156.666 195.75 156.614 194.693 156.52C193.636 156.421 192.61 156.275 191.615 156.082C190.615 155.89 189.672 155.655 188.776 155.379C187.881 155.098 187.047 154.785 186.287 154.431C185.526 154.077 184.844 153.692 184.245 153.275C183.646 152.858 183.141 152.416 182.729 151.952C182.318 151.489 182.006 151.015 181.797 150.525C181.584 150.03 181.479 149.535 181.479 149.035C181.479 148.535 181.584 148.035 181.797 147.546C182.006 147.056 182.318 146.577 182.729 146.114C183.141 145.65 183.646 145.213 184.245 144.796C184.844 144.379 185.526 143.994 186.287 143.64C187.047 143.285 187.881 142.968 188.776 142.692C189.672 142.41 190.615 142.176 191.615 141.983C192.61 141.796 193.636 141.65 194.693 141.551C195.75 141.452 196.818 141.405 197.896 141.405C198.974 141.405 200.042 141.452 201.099 141.551C202.157 141.65 203.183 141.796 204.177 141.983C205.172 142.176 206.12 142.41 207.016 142.692C207.912 142.968 208.74 143.285 209.506 143.64C210.266 143.994 210.948 144.379 211.547 144.796C212.141 145.213 212.651 145.65 213.063 146.114C213.474 146.577 213.787 147.056 213.995 147.546C214.209 148.035 214.313 148.535 214.313 149.035Z" fill="#EFB44B"/>
<path d="M200.682 149.035C200.682 149.035 285.547 196.733 285.547 198.28C285.547 199.832 282.453 201.066 281.213 201.066C279.974 201.066 197.896 150.582 197.896 150.582L200.682 149.035Z" fill="#1A1A1A"/>
<path d="M207.807 149.035C207.807 149.337 207.745 149.634 207.615 149.931C207.49 150.228 207.302 150.52 207.052 150.796C206.802 151.077 206.5 151.342 206.135 151.592C205.776 151.842 205.365 152.077 204.901 152.29C204.443 152.504 203.943 152.697 203.401 152.863C202.859 153.03 202.292 153.176 201.688 153.29C201.089 153.405 200.469 153.493 199.828 153.551C199.193 153.613 198.547 153.639 197.896 153.639C197.245 153.639 196.599 153.613 195.964 153.551C195.323 153.493 194.703 153.405 194.104 153.29C193.5 153.176 192.927 153.03 192.391 152.863C191.849 152.697 191.349 152.504 190.885 152.29C190.427 152.077 190.016 151.842 189.656 151.592C189.292 151.342 188.99 151.077 188.74 150.796C188.49 150.52 188.302 150.228 188.172 149.931C188.047 149.634 187.984 149.337 187.984 149.035C187.984 148.733 188.047 148.431 188.172 148.134C188.302 147.837 188.49 147.551 188.74 147.27C188.99 146.993 189.292 146.728 189.656 146.473C190.016 146.223 190.427 145.988 190.885 145.775C191.349 145.561 191.849 145.374 192.391 145.202C192.927 145.035 193.5 144.895 194.104 144.78C194.703 144.66 195.323 144.577 195.964 144.514C196.599 144.457 197.245 144.426 197.896 144.426C198.547 144.426 199.193 144.457 199.828 144.514C200.469 144.577 201.089 144.66 201.688 144.78C202.292 144.895 202.859 145.035 203.401 145.202C203.943 145.374 204.443 145.561 204.901 145.775C205.365 145.988 205.776 146.223 206.135 146.473C206.5 146.728 206.802 146.993 207.052 147.27C207.302 147.551 207.49 147.837 207.615 148.134C207.745 148.431 207.807 148.733 207.807 149.035Z" fill="#1A1A1A"/>
<path d="M204.558 149.035C204.558 149.447 204.391 149.838 204.052 150.218C203.714 150.598 203.235 150.937 202.61 151.223C201.985 151.515 201.261 151.739 200.443 151.895C199.631 152.051 198.782 152.129 197.896 152.129C197.011 152.129 196.162 152.051 195.344 151.895C194.526 151.739 193.808 151.515 193.183 151.223C192.558 150.937 192.078 150.598 191.74 150.218C191.401 149.838 191.229 149.447 191.229 149.035C191.229 148.624 191.401 148.228 191.74 147.848C192.078 147.468 192.558 147.134 193.183 146.843C193.808 146.556 194.526 146.332 195.344 146.171C196.162 146.015 197.011 145.937 197.896 145.937C198.782 145.937 199.631 146.015 200.443 146.171C201.261 146.332 201.985 146.556 202.61 146.843C203.235 147.134 203.714 147.468 204.052 147.848C204.391 148.228 204.558 148.624 204.558 149.035Z" fill="#ED4450"/>
<path d="M164.87 96.0924C164.261 94.8112 163.656 93.5299 163.052 92.2435C161.854 89.6705 160.667 87.0924 159.469 84.5195C158.177 81.7487 153.318 83.7382 154.474 86.6289C155.542 89.306 156.656 91.957 157.823 94.5976C158.396 95.8997 158.974 97.1966 159.563 98.4935C160.156 99.8112 160.604 101.28 161.729 102.238C163.427 103.686 166.375 102.811 166.334 100.332C166.308 98.7539 165.531 97.483 164.87 96.0924Z" fill="#464C7B"/>
<path d="M108.875 115.78C108.021 113.9 105.75 112.942 104.052 111.963C102.333 110.963 100.588 110.004 98.8226 109.082C95.2601 107.218 91.5882 105.483 87.7862 104.155C84.932 103.161 83.0466 107.645 85.7289 109.046C89.1664 110.838 92.6664 112.499 96.0778 114.348C97.7445 115.249 99.3903 116.181 101.021 117.15C102.776 118.197 104.526 119.681 106.661 119.64C108.744 119.598 109.666 117.525 108.875 115.78Z" fill="#464C7B"/>
<path d="M70.8122 141.9C63.4632 141.14 56.0517 140.546 48.7601 139.317C47.3799 139.083 45.9632 139.682 45.5622 141.135C45.208 142.421 45.9945 144.046 47.3799 144.333C55.1195 145.921 62.8955 147.317 70.8122 147.682C72.3747 147.754 73.7028 146.301 73.7028 144.791C73.7028 143.093 72.3747 142.062 70.8122 141.9Z" fill="#464C7B"/>
<path d="M306.151 103.796C304.328 104.26 302.573 105.223 300.87 106.01C299.198 106.786 297.531 107.588 295.886 108.416C292.589 110.062 289.302 111.796 286.219 113.812C283.255 115.755 285.823 120.072 288.979 118.536C292.214 116.958 295.386 115.255 298.625 113.682C300.198 112.916 301.787 112.171 303.38 111.453C305.037 110.703 306.859 110.109 308.406 109.15C311.219 107.406 309.412 102.968 306.151 103.796Z" fill="#464C7B"/>
<path d="M344.63 138.572C340.646 139.249 336.687 140.087 332.682 140.655C328.687 141.228 324.641 141.379 320.661 141.999C317.495 142.494 318.453 147.244 321.391 147.369C325.479 147.551 329.713 146.931 333.766 146.41C337.932 145.869 342.12 145.285 346.187 144.217C349.896 143.238 348.281 137.947 344.63 138.572Z" fill="#464C7B"/>
<path d="M343.453 178.067C336.594 176.64 329.729 175.203 322.802 174.145C321.297 173.916 319.771 174.525 319.334 176.114C318.943 177.536 319.813 179.239 321.302 179.583C328.12 181.14 334.995 182.473 341.834 183.947C345.667 184.77 347.297 178.864 343.453 178.067Z" fill="#464C7B"/>
<path d="M307.849 212.884C301.979 209.994 296.182 206.973 290.432 203.848C287.307 202.145 284.63 206.733 287.651 208.608C293.203 212.056 298.932 215.218 304.797 218.108C308.276 219.827 311.344 214.608 307.849 212.884Z" fill="#464C7B"/>
<path d="M240.182 233.952C239.442 231.432 238.104 229.088 236.937 226.739C235.791 224.416 234.64 222.098 233.489 219.775C232.807 218.395 230.849 218.01 229.583 218.749C228.156 219.588 227.906 221.255 228.562 222.661C229.62 224.916 230.677 227.176 231.734 229.437C232.781 231.671 233.703 234.062 235.12 236.088C236.833 238.536 241.125 237.14 240.182 233.952Z" fill="#464C7B"/>
<path d="M162.229 220.109C161.026 222.067 160.266 224.354 159.245 226.411C158.203 228.505 157.078 230.552 156.01 232.63C154.354 235.864 158.953 238.593 160.901 235.489C162.193 233.427 163.266 231.234 164.229 229.005C165.188 226.796 166.391 224.416 166.786 222.031C167.229 219.354 163.797 217.562 162.229 220.109Z" fill="#464C7B"/>
<path d="M108.635 203.9C107.745 202.78 106.448 202.666 105.187 203.213C102.005 204.593 99.0519 206.702 95.9738 208.322C92.8957 209.947 89.3488 211.15 86.6769 213.395C85.8124 214.119 85.7342 215.593 86.2707 216.52C86.8957 217.588 88.0363 217.869 89.1822 217.702C92.6353 217.202 96.1301 214.874 99.1665 213.218C102.297 211.515 105.739 209.78 108.427 207.411C109.417 206.541 109.417 204.879 108.635 203.9Z" fill="#464C7B"/>
<path d="M231.974 100.785C233.073 98.7696 233.708 96.4415 234.62 94.3321C235.547 92.1862 236.562 90.0821 237.51 87.9519C238.995 84.629 234.25 82.155 232.474 85.3581C231.297 87.4883 230.344 89.7331 229.5 92.0144C228.667 94.2696 227.588 96.7071 227.323 99.1133C227.026 101.811 230.547 103.41 231.974 100.785Z" fill="#464C7B"/>
<path d="M70.8124 173.968C63.2655 175.645 55.6509 176.796 47.9999 177.879C44.8697 178.322 45.5936 183.629 48.7499 183.416C56.703 182.874 64.6405 181.509 72.4166 179.801C76.2186 178.968 74.6093 173.124 70.8124 173.968Z" fill="#464C7B"/>
<path d="M197.583 55.9629C92.6403 55.9629 7.56738 98.8796 7.56738 151.822C7.56738 204.765 92.6403 247.682 197.583 247.682C302.531 247.682 387.604 204.765 387.604 151.822C387.604 98.8796 302.531 55.9629 197.583 55.9629ZM197.583 232.505C104.849 232.505 29.6663 195.343 29.6663 149.499C29.6663 103.656 104.849 66.4889 197.583 66.4889C290.323 66.4889 365.5 103.656 365.5 149.499C365.505 195.343 290.323 232.505 197.583 232.505Z" fill="#EFB44B"/>
<path d="M195.417 149.035C195.417 149.035 165.682 196.733 167.542 199.52C169.401 202.306 181.172 203.858 182.719 201.379C184.266 198.9 199.443 149.962 199.443 149.962L195.417 149.035Z" fill="#ED4450"/>
<path d="M290.953 167.275C290.052 164.354 281.516 160.307 281.516 160.307L270.057 149.077C270.057 149.077 282.641 151.322 282.641 145.255C282.641 139.192 272.979 136.718 272.979 136.718L247.141 132.223C247.141 132.223 251.859 120.317 247.141 116.947C242.427 113.577 175.922 114.479 175.922 114.479L127.099 135.343L120.932 135.984C120.932 135.984 107.156 139.885 108.552 141.562C109.953 143.244 153.625 155.437 160.901 155.718C166.739 155.942 181.344 145.27 185.672 139.452C194.359 140.666 230.333 145.624 233.885 145.031C237.932 144.359 237.484 142.333 237.484 142.333C237.484 142.333 248.489 141.661 249.167 144.135C249.838 146.604 244.224 152.218 244.224 152.218L239.281 155.817C239.281 155.817 231.864 156.265 234.786 160.307C237.708 164.354 250.739 163.676 253.208 165.025C255.682 166.374 268.713 173.338 278.37 172.89C288.031 172.442 291.854 170.192 290.953 167.275Z" fill="#E6E6E6"/>
<path d="M207.662 90.9316C207.662 90.9316 224.802 91.5671 236.865 90.9316C248.927 90.2962 263.526 89.4629 266.594 96.7598C269.667 104.051 253.583 117.171 253.583 117.171L244.271 119.286C244.271 119.286 241.099 118.864 238.136 119.286C235.172 119.713 214.011 123.307 208.719 123.729C203.432 124.156 183.328 130.713 181.844 130.505C180.365 130.291 166.037 135.322 160.052 112.937C154.063 90.5566 185.229 84.3691 185.229 84.3691L207.662 90.9316Z" fill="#5F7AB3"/>
<path d="M243.271 102.769C229.396 106.483 215.359 109.426 201.192 111.775C201.494 111.947 201.791 112.129 202.083 112.316C216.036 110.197 229.88 107.217 243.51 103.566C244.021 103.426 243.786 102.634 243.271 102.769Z" fill="#464C7B" fill-opacity="0.5"/>
<path d="M212.984 91.0827C209.755 91.0098 207.662 90.9316 207.662 90.9316L190.938 86.041L178.417 86.4004C178.365 86.4212 178.313 86.4421 178.261 86.4629L176.302 89.8796L175.38 87.6452C166.828 91.4681 156.354 99.1139 160.052 112.937C166.037 135.322 180.365 130.291 181.844 130.505C182.505 130.598 186.87 129.343 191.969 127.89L184.698 110.249L197.083 115.9L201.365 112.859C201.167 108.083 202.651 103.432 205.386 99.5202C206.912 97.3379 208.75 95.4368 210.625 93.5618C211.422 92.7598 212.203 91.9525 212.995 91.1504L212.984 91.0827Z" fill="#464C7B" fill-opacity="0.5"/>
<path d="M234.005 129.505C234.115 129.442 240.25 129.02 241.307 128.385C242.365 127.749 245.963 128.177 245.963 128.177L247.443 131.135L245.963 138.755C245.963 138.755 236.229 140.661 232.422 141.296C228.615 141.932 234.005 129.505 234.005 129.505Z" fill="#D8754E"/>
<path d="M263.526 124.999C263.526 124.999 266.911 125.848 270.51 126.27C274.109 126.692 280.666 129.233 282.359 135.155C284.052 141.082 279.823 145.103 274.109 144.681C268.396 144.259 259.505 137.062 259.505 137.062L262.047 125.213L263.526 124.999Z" fill="#F2F2F2"/>
<path d="M169.787 103.63C169.787 103.63 163.438 111.88 169.36 121.828C175.287 131.77 190.099 136.848 203.641 140.239C217.188 143.624 231.365 144.682 233.058 144.046C234.75 143.411 237.922 134.525 238.136 132.828C238.344 131.135 237.078 126.057 236.229 125.848C235.386 125.635 222.584 124.682 209.037 116.432C196.589 108.843 195.709 108.812 194.016 108.177C192.323 107.541 192.323 106.062 191.261 105.213C190.203 104.369 172.427 99.713 169.787 103.63Z" fill="#5F7AB3"/>
<path d="M220.994 121.827C214.963 118.952 209.25 115.686 203.468 112.348C202.083 111.551 200.713 110.723 199.312 109.957C197.88 109.186 196.343 108.629 194.911 107.869C193.578 107.166 192.619 106.025 191.442 105.113C190.317 104.249 189.062 103.593 187.739 103.093C184.406 101.827 180.781 101.666 177.255 101.582C176.583 101.567 176.593 102.572 177.255 102.619C181.255 102.874 185.448 103.046 189.041 105.02C190.724 105.947 191.916 107.405 193.479 108.478C195.062 109.561 196.989 110.134 198.677 111.046C202.26 112.973 205.729 115.103 209.323 117.015C213.036 118.994 216.948 120.728 220.781 122.462C221.453 122.765 221.672 122.15 220.994 121.827Z" fill="#464C7B"/>
<path d="M180.339 130.385C177.115 128.327 174.37 125.645 172.188 122.504C171.823 121.978 170.964 122.463 171.318 123.01C172.385 124.661 173.615 126.176 174.995 127.546C172.583 125.905 170.495 123.853 169.151 121.192C168.948 120.796 168.505 121.004 168.693 121.4C170.427 125.02 173.385 128.01 177.052 129.671C177.172 129.728 177.292 129.723 177.396 129.676C178.151 130.275 178.943 130.838 179.766 131.364C180.385 131.76 180.953 130.775 180.339 130.385Z" fill="#464C7B"/>
<path d="M233.344 125.885C233.089 125.556 232.516 125.994 232.76 126.333C234.766 129.093 234.203 132.609 232.839 135.51C232.151 136.978 231.297 138.359 230.443 139.734C229.583 141.119 228.76 142.546 227.625 143.728C227.25 144.119 227.839 144.708 228.214 144.317C229.49 142.994 230.412 141.379 231.375 139.822C232.328 138.27 233.276 136.702 233.969 135.01C235.193 132.02 235.412 128.551 233.344 125.885Z" fill="#464C7B" fill-opacity="0.5"/>
<path d="M244.058 124.999C244.058 124.999 237.922 128.812 238.771 129.02C239.615 129.233 243.214 128.176 244.906 129.442C246.599 130.713 243 138.119 244.485 139.812C245.964 141.504 252.526 140.239 252.526 140.239L254.427 129.02L244.058 124.999Z" fill="#832B2E"/>
<path d="M261.625 126.691C261.625 126.691 268.396 129.233 270.089 129.868C271.781 130.504 277.495 133.462 278.339 138.332C279.188 143.197 275.589 144.259 274.109 144.681C272.625 145.103 263.953 142.988 263.953 142.988L261.625 126.691Z" fill="#832B2E"/>
<path d="M263.318 93.468C263.318 93.468 253.792 90.2961 247.87 94.9524C241.943 99.6086 240.885 113.786 242.156 122.036C243.427 130.291 248.078 146.583 248.078 146.583L267.76 146.796C267.76 146.796 268.396 141.083 267.76 134.525C267.125 127.963 267.547 110.609 267.974 104.26C268.339 98.7388 266.281 94.9524 263.318 93.468Z" fill="#5F7AB3"/>
<path d="M250.89 96.5516C248.791 97.8068 246.974 99.6609 245.484 101.583C245.01 102.192 244.573 102.828 244.161 103.484C244.541 102.229 244.974 100.989 245.468 99.7599C245.682 99.2182 244.76 98.8224 244.52 99.3588C241.833 105.374 240.567 112.078 240.994 118.661C241.047 119.458 242.281 119.473 242.25 118.661C242.093 114.77 242.411 110.947 243.203 107.208C243.609 106.453 243.901 105.609 244.312 104.869C244.916 103.786 245.604 102.744 246.375 101.776C247.812 99.963 249.52 98.5359 251.323 97.1141C251.645 96.8588 251.234 96.3484 250.89 96.5516Z" fill="#464C7B"/>
<path d="M249.703 136.562C248.458 129.869 247.771 124.51 247.797 117.687C247.807 114.39 248 111.093 248.359 107.817C248.536 106.223 248.838 104.63 248.932 103.031C248.995 102.02 249.166 100.426 248.146 99.8327C247.771 99.6191 247.458 100.166 247.807 100.406C248.443 100.843 248.255 102.348 248.213 103.031C248.156 103.932 248.005 104.822 247.885 105.713C247.693 107.15 247.526 108.588 247.401 110.025C247.125 113.176 247.005 116.343 247.052 119.505C247.14 125.676 247.505 130.755 248.984 136.76C249.099 137.234 249.791 137.025 249.703 136.562Z" fill="#464C7B" fill-opacity="0.5"/>
<path d="M245.427 101.4C245.255 101.473 245.062 101.479 244.922 101.354C244.765 101.213 244.531 101.203 244.38 101.354C244.245 101.489 244.224 101.755 244.38 101.89C244.76 102.218 245.255 102.286 245.703 102.057C246.062 101.88 245.802 101.239 245.427 101.4Z" fill="#464C7B" fill-opacity="0.5"/>
<path d="M262.656 141.27C262.656 141.27 267.125 143.197 266.281 145.525C265.432 147.853 262.094 146.733 262.094 146.733L262.656 141.27Z" fill="#1A1A1A"/>
<path d="M250.047 142.421C250.047 142.421 247.448 144.291 247.974 145.546C248.505 146.796 251.677 146.374 251.677 146.374L250.047 142.421Z" fill="#1A1A1A"/>
<path d="M249.792 146.572L249.141 143.197C249.141 143.197 251.677 140.447 256.333 140.238C260.99 140.025 263.526 141.718 263.526 141.718L264.234 146.837L253.583 149.124L249.792 146.572Z" fill="#E9946B"/>
<path d="M244.693 145.952C244.766 145.942 248.078 145.317 249.563 145.317C251.042 145.317 252.313 146.582 255.063 146.374C257.813 146.16 264.797 144.681 266.912 145.317C269.032 145.952 270.724 148.702 272.417 149.337C274.11 149.973 279.823 151.03 281.823 151.848C284.313 152.869 283.417 161.186 283.417 161.186L256.756 158.858L241.729 150.181L244.693 145.952Z" fill="#832B2E"/>
<path d="M237.714 150.915C237.714 150.915 238.136 147.853 240.464 146.796C242.792 145.738 245.542 145.738 245.542 145.738C245.542 145.738 251.464 147.645 255.698 149.546C259.933 151.452 267.761 149.124 274.11 149.973C280.459 150.816 283.891 151.842 287.229 156.743C290.401 161.4 287.865 166.051 285.323 168.171C282.787 170.285 277.073 170.921 276.646 170.707C276.224 170.499 245.12 154.837 245.12 154.837L237.714 150.915Z" fill="#F2F2F2"/>
<path d="M240.422 147.124C239.469 147.499 238.73 148.27 238.302 149.197C237.537 150.859 236.568 154.322 239.297 158.119C243.11 163.406 247.552 162.14 252.417 163.197C257.287 164.255 263.844 170.182 273.578 170.817C283.313 171.447 286.698 166.369 286.698 162.562C286.698 158.755 282.677 154.098 274.849 152.192C267.021 150.291 262.573 154.098 254.537 151.348C247.667 148.994 243.578 145.874 240.422 147.124Z" fill="#1A1A1A"/>
<path d="M268.047 143.577C266.718 134.509 252.427 134.046 247.38 139.963C247.12 140.259 247.521 140.676 247.817 140.395C250.687 137.692 254.484 136.686 258.375 136.978C262.396 137.275 266.604 139.457 267.234 143.801C267.312 144.332 268.125 144.108 268.047 143.577Z" fill="#464C7B" fill-opacity="0.5"/>
<path d="M199.031 98.3796C198.771 98.0515 198.193 98.489 198.443 98.8328C199.286 99.9786 199.891 101.374 199.885 102.822C199.875 104.343 198.396 105.119 197.135 105.822C196.833 103.286 195.75 100.838 194.167 98.8536C193.828 98.4317 193.25 99.0255 193.573 99.4421C195.187 101.499 196.052 103.828 196.333 106.333C196.224 106.494 196.266 106.713 196.385 106.854C196.422 107.333 196.443 107.812 196.443 108.296C196.443 108.775 197.13 108.76 197.172 108.296C197.219 107.781 197.229 107.265 197.208 106.744C198.641 105.916 200.474 105.119 200.677 103.322C200.88 101.546 200.099 99.7442 199.031 98.3796Z" fill="#464C7B"/>
<path d="M124.922 84.1445C124.922 84.1445 123.802 91.1029 125.37 92.9049C126.354 94.0352 128.328 94.2227 129.713 94.3633C130.802 94.4727 131.922 94.5352 133.01 94.4779C134.177 95.6289 135.166 96.7643 136.63 97.5768C138.12 98.3997 139.791 98.8997 141.495 98.9831C142.463 99.0352 143.437 98.957 144.401 99.0768C145.672 99.2279 146.875 99.7018 148.094 100.082C149.255 100.447 150.26 100.493 151.448 100.572C153.156 100.681 154.885 100.4 156.474 99.7539C157.974 99.1445 159.39 98.4466 160.469 97.2174C160.781 96.8633 161.109 96.4779 161.317 96.056C161.317 96.056 159.974 98.7487 161.317 99.1966C162.666 99.6497 172.614 96.8529 178.62 99.4258C183.338 101.447 200.635 93.806 201.088 93.582C201.536 93.3581 204.005 93.3581 204.005 93.3581C204.005 93.3581 207.828 97.3997 209.625 97.3997C211.422 97.3997 211.646 96.9518 212.771 97.3997C213.89 97.8529 222.88 99.6497 226.698 96.9518C226.698 96.9518 230.515 97.1758 232.312 94.4831C234.114 91.7852 232.312 87.0664 232.312 87.0664L215.463 74.4831C215.463 74.4831 215.239 58.7591 212.094 52.2435C208.948 45.7279 197.265 41.457 197.265 41.457L170.531 40.7852C170.531 40.7852 157.052 46.6237 154.13 49.3216C151.208 52.0195 147.583 64.4466 148.442 74.9154C149.302 85.3841 124.922 84.1445 124.922 84.1445Z" fill="#6C4E4E"/>
<path d="M217.506 76.0098L203.714 93.3587C203.896 93.3587 204.006 93.3587 204.006 93.3587C204.006 93.3587 207.823 97.4004 209.625 97.4004C211.422 97.4004 211.646 96.9525 212.766 97.4004C213.891 97.8535 222.881 99.6504 226.698 96.9525C226.698 96.9525 230.516 97.1764 232.313 94.4837C234.11 91.7858 232.313 87.0671 232.313 87.0671L217.506 76.0098Z" fill="#4A3333" fill-opacity="0.5"/>
<path d="M163.469 80.041C161.906 73.2806 163.562 66.1608 161.38 59.4941C161.161 58.8275 160.125 59.1035 160.323 59.7858C162.083 65.9212 160.828 72.3639 161.823 78.6035C162.323 81.7285 163.599 84.7129 163.849 87.8796C163.906 88.5619 164.01 89.4525 163.797 90.1087C163.542 90.8952 162.807 91.0775 162.292 91.6191C161.161 92.8066 162.578 94.0306 161.677 95.1973C161.156 95.8743 162.094 96.8275 162.62 96.1452C163.005 95.6504 163.406 95.1296 163.51 94.4941C163.599 93.9316 162.989 93.0046 163.239 92.5671C163.526 92.0619 164.328 91.8587 164.693 91.3535C165.016 90.8952 165.141 90.3535 165.198 89.8014C165.526 86.4889 164.203 83.2129 163.469 80.041Z" fill="#4A3333"/>
<path d="M158.906 62.8217C156.557 59.1602 154.854 55.3269 154.104 51.0144C154.026 50.5456 153.318 50.7488 153.396 51.2123C154.104 55.4571 155.687 59.7175 158.25 63.2071C158.531 63.5977 159.177 63.2436 158.906 62.8217Z" fill="#4A3333" fill-opacity="0.5"/>
<path d="M212.271 53.6657C211.896 55.6866 211.219 57.6293 210.208 59.4209C209.177 61.2439 207.818 62.697 206.36 64.1814C206.083 64.4574 206.458 64.9887 206.792 64.7387C210.151 62.2022 212.292 57.947 213.005 53.8637C213.089 53.3897 212.36 53.1814 212.271 53.6657Z" fill="#4A3333" fill-opacity="0.5"/>
<path d="M136.927 83.5146C136.562 83.0719 135.927 83.7125 136.297 84.15C137.411 85.4833 136.729 87.7958 136.203 89.2594C135.604 90.9156 134.614 92.3323 133.239 93.4365C132.906 93.7073 133.354 94.2958 133.708 94.0406C135.406 92.7802 136.593 91.0042 137.229 88.9937C137.781 87.249 138.198 85.0354 136.927 83.5146Z" fill="#4A3333"/>
<path d="M205.338 60.9837C204.151 65.1347 204.807 69.5306 204.5 73.7858C204.349 75.916 203.833 78.0931 203.963 80.2337C204.088 82.3743 205.036 84.4577 204.698 86.6191C204.573 87.4525 205.838 87.817 205.979 86.9733C206.312 84.9837 205.724 83.1712 205.401 81.2233C205.041 79.0358 205.562 76.8431 205.729 74.6608C206.067 70.2337 205.245 65.5931 206.364 61.265C206.536 60.6035 205.526 60.3222 205.338 60.9837Z" fill="#4A3333"/>
<path d="M199.427 43.3843C198.24 46.3947 195.766 48.5822 192.969 50.0874C190.063 51.6499 186.641 52.9051 183.313 53.0093C177.182 53.202 170.807 48.5979 168.755 42.8687C168.604 42.4468 167.932 42.6239 168.078 43.0562C170.13 49.1968 176.776 54.1031 183.313 53.8999C186.927 53.7854 190.635 52.426 193.766 50.6656C196.641 49.0458 199.063 46.7281 200.292 43.6239C200.5 43.0874 199.641 42.8583 199.427 43.3843Z" fill="#4A3333"/>
<path d="M226.604 96.8008C224.432 96.6914 221.729 95.7123 221.573 93.1758C221.542 92.6914 220.797 92.681 220.807 93.1758C220.854 96.7279 223.807 97.0404 226.474 97.1758C227.047 97.207 227.177 96.832 226.604 96.8008Z" fill="#4A3333"/>
<path d="M161.318 86.3326C159.911 83.6087 157.547 81.7076 154.797 80.7129C156.271 80.8326 157.969 81.1295 158.922 82.2597C159.464 82.9004 160.396 81.9681 159.849 81.3326C158.651 79.9368 156.677 79.6347 154.943 79.4576C152.807 79.2389 150.651 79.4524 148.599 80.0618C147.859 80.2806 148.167 81.4108 148.917 81.2181C149.052 81.1816 149.198 81.1451 149.339 81.1139C151.63 81.4629 153.87 81.4004 155.99 82.5358C157.854 83.5306 159.323 85.0618 160.307 86.9264C160.661 87.5931 161.661 87.0045 161.318 86.3326Z" fill="#4A3333"/>
<path d="M187.583 25.5039C187.563 25.6758 187.349 29.8164 187.917 31.6654C190.302 39.4362 197.266 41.457 197.266 41.457C197.266 41.457 193.682 49.1445 184.458 49.3216C172.776 49.5456 170.531 40.7852 170.531 40.7852C175.698 39.2122 174.932 33.2799 174.932 33.2799L187.583 25.5039Z" fill="#E9946B"/>
<path d="M174.349 41.2334C170.797 39.1032 175.24 37.4678 175.115 35.8011L184.839 31.2178C184.839 31.2178 184.849 33.5251 184.333 36.0824C184.292 36.2021 184.255 36.3219 184.208 36.4469C183.818 37.4574 183.281 38.4261 182.651 39.3167C181.328 40.8792 179.813 41.5199 178.005 41.7699C176.557 41.9678 175.474 41.9105 174.349 41.2334Z" fill="#A05033"/>
<path d="M176.776 0.0146999C182.026 0.2022 186.328 3.74908 187.724 5.04074C187.797 4.56678 187.791 4.07199 187.703 3.56158C187.625 3.10845 188.291 3.04595 188.396 3.47303C188.557 4.12928 188.578 4.81158 188.468 5.47303C189.156 5.3897 190.994 5.27512 191.406 6.32199C191.916 7.61887 189.057 6.85324 189.057 6.85324C191.031 11.3324 189.161 18.223 189.135 18.3949L188.343 23.8689L183.646 27.3793L174.713 20.322L171.708 2.42616C171.708 2.42616 170.343 -0.219675 176.776 0.0146999Z" fill="#1A1A1A"/>
<path d="M170.219 9.38444C171.531 9.13965 172.849 8.94694 174.172 8.78548C174.464 8.74902 174.755 8.71777 175.042 8.68652C177.464 10.7074 179.917 12.8324 180.646 14.0251C182.026 16.2803 183.156 17.8428 183.073 20.4834C183.047 21.1865 182.766 22.9469 183.037 23.5928C183.307 24.2386 184.11 24.723 184.719 24.374C185.198 24.0928 185.313 23.4574 185.375 22.9053C185.516 21.6865 185.667 20.4261 186.287 19.3636C186.953 18.223 188.229 17.4001 189.552 17.4834C189.979 17.5094 190.401 17.6501 190.776 17.8688C190.964 17.9782 191.151 18.1136 191.307 18.2699C192 18.973 192.38 19.9105 192.417 20.8896C192.464 21.9157 192.219 23.098 191.552 23.8896C190.922 24.6344 190.083 25.1917 189.224 25.6396C189.031 25.7386 186.365 26.6865 186.36 26.7282C186.052 34.473 181.453 38.9417 178.078 39.6761C175.792 40.1761 171.589 40.5199 169.62 38.6292C168.516 37.5667 167.292 35.7334 166.854 34.3167C165.589 30.2126 165.083 25.8428 164.677 21.5824C164.563 20.3584 164.406 19.1969 164.198 18.0303C164.083 17.3584 163.953 16.6865 163.802 16.0042C163.391 14.0719 164.125 11.9417 165.24 10.2438C166.906 10.0199 168.557 9.68652 170.219 9.38444Z" fill="#E9946B"/>
<path d="M176.526 21.504C176.718 21.2488 177.026 21.0769 177.349 21.0874C178.364 21.1342 178.755 22.7905 177.958 23.353C177.578 23.6186 177.015 23.603 176.687 23.2905C176.552 23.1603 176.458 22.9936 176.39 22.8165C176.255 22.4519 176.245 22.0301 176.416 21.6811C176.448 21.6186 176.484 21.5613 176.526 21.504Z" fill="#1A1A1A"/>
<path d="M170.547 28.9886C170.568 28.6917 170.839 28.4521 171.136 28.4729C171.433 28.499 171.729 28.5198 172.021 28.5407C172.323 28.5667 172.558 28.8323 172.537 29.1344C172.521 29.4313 172.245 29.6709 171.948 29.65C171.651 29.624 171.36 29.6032 171.063 29.5823C170.766 29.5563 170.526 29.2907 170.547 28.9886Z" fill="#DD7F5E"/>
<path d="M174.49 15.744C175.245 15.9107 176.021 15.9576 176.766 16.1659C177.526 16.3742 178.256 16.6815 179.006 16.9211C179.683 17.1346 179.401 18.2076 178.724 17.9888C177.974 17.7492 177.24 17.4419 176.485 17.2336C175.735 17.0305 174.959 16.9784 174.203 16.8117C173.506 16.6607 173.792 15.5878 174.49 15.744Z" fill="#1A1A1A"/>
<path d="M166.995 19.2436C167.099 19.0769 167.099 18.853 166.979 18.6759C166.813 18.4363 166.484 18.3686 166.24 18.5353C166.182 18.5717 164.818 19.4988 163.995 21.0144C163.854 21.2697 163.953 21.5926 164.208 21.7332C164.469 21.8738 164.797 21.7853 164.932 21.5197C165.635 20.2436 166.823 19.4259 166.833 19.4155C166.906 19.3738 166.958 19.3113 166.995 19.2436Z" fill="#1A1A1A"/>
<path d="M166.583 23.7752C166.562 23.8429 166.536 23.9158 166.51 23.9835C166.406 24.2648 166.265 24.5408 166.026 24.7127C165.401 25.145 164.719 24.4314 164.672 23.8116C164.63 23.2127 165.328 22.2908 166.01 22.5877C166.166 22.6554 166.276 22.796 166.37 22.9366C166.489 23.1189 166.604 23.3221 166.609 23.5408C166.609 23.6189 166.599 23.6971 166.583 23.7752Z" fill="#1A1A1A"/>
<path d="M175.719 33.353C175.453 33.629 173.302 34.6186 171.536 34.4832C170.932 34.4363 170.74 33.5092 171.349 33.4467C172.766 33.3061 173.312 33.2957 174.917 33.0144C175.635 32.8894 176.213 32.8374 175.719 33.353Z" fill="#1A1A1A"/>
<path d="M159.339 7.57744C159.255 9.15036 159.885 10.6764 160.88 11.8795C161.25 12.3326 161.677 12.6972 162.135 12.9941C162.036 12.9004 161.938 12.8014 161.839 12.7024C157.302 7.85348 161.036 -2.2611 172.396 1.3014C183.755 4.8639 185.344 7.19202 185.344 7.19202L179.932 11.9993C179.932 11.9993 176.875 13.8274 175.505 13.6295C174.135 13.4316 174.651 12.2806 174.651 12.2806C174.651 12.2806 174.568 12.3379 174.411 12.4264C174.385 12.4993 174.339 12.5618 174.266 12.6087C172.771 13.5045 171.115 14.0566 169.432 14.4785C167.625 14.9368 165.698 15.1504 163.854 14.7597C160.557 14.0566 158.073 10.8326 158.359 7.43681C158.411 6.79098 159.375 6.94723 159.339 7.57744Z" fill="#1A1A1A"/>
<path d="M125.859 84.9365C125.859 84.9365 124.718 91.1969 126.203 92.3115C127.682 93.4209 130.229 88.1449 130.698 87.2386C131.161 86.3271 125.859 84.9365 125.859 84.9365Z" fill="black"/>
<path d="M115.359 79.5352C115.359 79.5352 115.182 82.1914 118.38 83.556C121.583 84.9206 124.948 85.6966 125.672 85.8997C126.396 86.0977 130.083 88.5247 130.083 88.5247C130.083 88.5247 133.536 81.6914 132.927 79.1081C132.318 76.5247 123.25 75.8008 123.25 75.8008L115.359 79.5352Z" fill="#E9946B"/>
<path d="M119.76 72.6553L123.25 75.8011L118.87 78.4053L114.641 74.8219L119.76 72.6553Z" fill="#D8754E"/>
<path d="M136.615 86.0456C136.615 86.0456 120.229 77.1446 118.438 74.6237C116.641 72.1029 110.589 60.7696 109.547 58.9206C108.5 57.0716 103.427 50.9154 103.891 50.655C104.354 50.3946 127.755 52.5144 127.755 52.5144C127.755 52.5144 141.135 67.7487 146.135 72.4831C151.13 77.2175 159.594 84.6237 159.62 85.0977C159.641 85.5716 149.339 83.9623 136.615 86.0456Z" fill="white"/>
<path d="M137.286 85.3736C137.286 85.3736 120.901 76.4725 119.109 73.9517C117.318 71.4256 111.266 60.0923 110.219 58.2434C109.172 56.3996 104.104 50.2434 104.562 49.9829C105.026 49.7173 128.427 51.8423 128.427 51.8423C128.427 51.8423 141.812 67.0767 146.807 71.8111C151.807 76.5454 160.266 83.9517 160.292 84.4256C160.318 84.8996 150.016 83.2902 137.286 85.3736Z" fill="white"/>
<path d="M135.49 86.4991C135.49 86.4991 119.104 77.598 117.312 75.072C115.521 72.5511 109.469 61.2178 108.422 59.3688C107.375 57.5251 102.307 51.3636 102.766 51.1032C103.229 50.8428 126.63 52.9626 126.63 52.9626C126.63 52.9626 140.01 68.2022 145.01 72.9313C150.005 77.6657 158.469 85.0772 158.495 85.5511C158.521 86.0251 148.219 84.4157 135.49 86.4991Z" fill="white"/>
<path d="M119.75 83.9469C116.865 83.3792 115.833 81.7699 115.557 81.0719C115.286 80.374 114.323 80.1813 113.792 79.0251C113.255 77.8636 113.453 77.1397 113.193 76.6761C112.932 76.2178 112.161 75.0667 112.349 74.1084C112.536 73.1449 114.37 71.8636 115.771 71.3167C117.167 70.7699 122.12 70.0355 122.896 71.1865C123.667 72.3324 122.531 73.3428 119.495 74.4522C116.463 75.5563 117.161 75.2855 117.411 75.5094C117.661 75.7334 126.807 73.3636 127.792 74.0251C128.776 74.6865 128.615 76.1188 128.167 76.6188C128.167 76.6188 129.411 77.7438 128.052 79.0042C126.687 80.2594 123.417 81.3792 122.995 82.3532C122.568 83.3219 122.63 84.5094 119.75 83.9469Z" fill="#E9946B"/>
<path d="M114.005 74.0201C114.005 74.0201 110.495 70.4003 111.828 68.666C113.167 66.9316 119.094 66.6295 119.578 66.8431C120.068 67.0514 121.161 69.8483 115.51 70.8535L116.781 72.4524L114.005 74.0201Z" fill="#E9946B"/>
<path d="M126.526 79.7442C124.964 80.3588 122.719 80.8536 122 82.5776C121.776 83.1036 122.552 83.5203 122.797 82.989C123.151 82.2182 123.787 81.8328 124.51 81.4473C125.266 81.0411 125.995 80.6036 126.74 80.1765C126.974 80.0411 126.787 79.6453 126.526 79.7442Z" fill="#D8754E"/>
<path d="M118.052 70.3535C116.016 70.2754 114.068 71.1451 112.75 72.6868C112.427 73.0566 112.979 73.5514 113.318 73.1972C114.604 71.8431 116.391 71.0149 118.25 71.067C118.828 71.0879 118.62 70.3795 118.052 70.3535Z" fill="#D8754E"/>
<path d="M157.479 84.2332C153.511 80.6759 149.656 77.0249 145.912 73.2645C146.386 73.6707 146.854 74.077 147.313 74.4936C149.828 76.7488 152.183 79.1655 154.677 81.4468C155.047 81.7853 155.568 81.2645 155.229 80.8947C150.854 76.0874 145.547 72.2801 140.938 67.7332C138.651 65.478 136.672 62.8791 134.641 60.3895C132.531 57.8009 130.479 55.1655 128.578 52.4155C128.485 52.2749 128.339 52.2332 128.203 52.2541C128.146 52.2124 128.078 52.1811 127.995 52.1707C123.943 51.8009 119.891 51.4311 115.834 51.1186C115.417 51.0874 115.432 51.7176 115.834 51.7593C119.886 52.202 123.938 52.5822 127.995 52.9624C128.011 52.9624 128.021 52.9624 128.037 52.9624C128.688 53.9259 129.36 54.8791 130.047 55.8166C129.297 54.9051 128.547 53.9936 127.807 53.0666C127.729 52.9728 127.641 52.9363 127.552 52.9363C127.526 52.9311 127.5 52.9259 127.469 52.9207C120.052 52.2905 112.672 51.3738 105.271 50.6343C104.886 50.5978 104.787 51.2593 105.177 51.3218C112.531 52.4468 119.985 53.1186 127.391 53.7749C136.172 64.9936 146.084 75.5301 156.886 84.827C157.292 85.1759 157.886 84.5978 157.479 84.2332Z" fill="#F2F2F2"/>
<path d="M111.99 49.8788C110.922 49.6496 109.823 49.5506 108.734 49.41C107.896 49.3059 106.854 48.9725 106.026 49.2486C105.849 49.3111 105.672 49.4986 105.469 49.4777C105.365 49.4725 105.271 49.3006 105.151 49.2746C104.953 49.2329 104.776 49.1652 104.573 49.2381C103.932 49.4725 104.438 50.1861 103.672 50.2173C103.344 50.2277 103.141 50.5715 103.302 50.8631C104.573 53.2173 106.156 55.3996 107.432 57.759C108.734 60.1548 109.927 62.6131 111.12 65.0663C111.333 65.5038 111.979 65.1236 111.771 64.6913C110.594 62.2225 109.417 59.759 108.13 57.3475C106.969 55.1652 105.547 53.134 104.349 50.9829C104.609 50.8996 104.828 50.7538 104.964 50.4673C104.99 50.3944 105.011 50.3163 105.026 50.2381C105.245 50.3631 105.359 50.4048 105.594 50.3944C106.068 50.3788 106.323 50.0663 106.849 50.0506C107.385 50.035 107.99 50.2017 108.526 50.2694C109.641 50.4152 110.761 50.6131 111.886 50.66C112.328 50.6809 112.432 49.9725 111.99 49.8788Z" fill="#F2F2F2"/>
<path d="M221.755 92.9105C221.755 92.9105 223.552 95.6032 228.271 95.6032C232.989 95.6032 233.213 89.3115 232.541 87.0667C231.864 84.8219 227.369 83.249 227.369 83.249L221.755 92.9105Z" fill="#1A1A1A"/>
<path d="M230.068 87.2904C230.068 87.2904 245.568 56.5143 245.12 55.6133C244.672 54.7123 225.125 64.8268 213.443 66.8477C213.443 66.8477 201.761 89.3112 189.854 96.9518C189.854 96.9518 228.271 90.6602 230.068 87.2904Z" fill="white"/>
<path d="M228.718 86.6185C228.718 86.6185 244.224 55.8373 243.771 54.9415C243.323 54.0404 223.776 64.1498 212.093 66.1706C212.093 66.1706 200.411 88.6394 188.505 96.28C188.505 96.28 226.922 89.9883 228.718 86.6185Z" fill="white"/>
<path d="M230.74 85.4935C230.74 85.4935 246.245 54.7123 245.797 53.8165C245.344 52.9154 225.797 63.0248 214.115 65.0508C214.115 65.0508 202.433 87.5144 190.526 95.155C190.526 95.155 228.943 88.8633 230.74 85.4935Z" fill="white"/>
<path d="M235.005 80.7388C233.448 79.7024 227.224 80.7388 227.224 82.5565C227.224 84.369 231.89 83.8534 231.89 83.8534C231.89 83.8534 230.333 85.9263 229.297 85.9263C228.26 85.9263 222.297 84.6294 221 86.9628C220.156 88.4836 226.703 89.2961 226.703 89.2961H225.927C225.927 89.2961 216.073 86.9628 218.666 90.593C218.666 90.593 217.89 91.8899 219.703 92.9263C221.521 93.9628 226.187 94.4836 228.26 94.4836C230.333 94.4836 229.817 92.6659 230.854 92.1503C231.89 91.6294 231.89 89.2961 231.89 89.2961C231.89 89.2961 234.224 87.9992 233.708 86.7024C233.187 85.4055 232.666 84.6294 232.666 84.6294C232.666 84.6294 236.557 81.7753 235.005 80.7388Z" fill="#E9946B"/>
<path d="M242.427 56.4578C238.573 59.463 234.177 61.3432 229.5 62.6662C228.339 62.9943 227.172 63.2859 225.995 63.562C226.172 63.5047 226.349 63.4526 226.521 63.4005C230.735 62.0776 235.084 60.5151 238.823 58.1297C239.24 57.8641 238.875 57.2339 238.438 57.463C234.516 59.5516 230.547 61.2912 226.307 62.6245C224.287 63.2651 222.24 63.8328 220.188 64.3849C217.901 64.9943 215.625 65.562 213.245 65.5724C213.026 65.5724 212.912 65.7287 212.896 65.8953C212.849 65.9318 212.802 65.9839 212.776 66.0516C210.12 72.7703 205.714 78.3641 201.453 84.1141C201.188 84.4734 201.797 84.9526 202.084 84.5984C206.552 79.0255 210.953 73.0672 213.391 66.2912C213.917 66.3016 214.438 66.2807 214.959 66.2339C214.693 66.312 214.427 66.3953 214.162 66.4787C214.125 66.4943 214.094 66.5099 214.068 66.5255C213.891 66.5151 213.703 66.5984 213.625 66.8068C209.37 77.8693 201.557 86.5203 192.604 94.0672C192.24 94.3745 192.761 94.8745 193.125 94.588C202.136 87.437 210.391 78.1714 214.349 67.2078C214.354 67.2078 214.36 67.2078 214.365 67.2078C219.703 65.8016 225.162 64.838 230.464 63.2807C234.932 61.9734 239.453 60.1245 243.016 57.0464C243.422 56.687 242.839 56.1401 242.427 56.4578Z" fill="#F2F2F2"/>
<path d="M142.88 128.244C142.88 128.244 120.76 137.171 120.604 138.614C120.453 140.056 160.375 148.728 162.255 148.202C164.135 147.676 181.682 137.161 180.396 135.567C179.104 133.968 143.64 127.963 142.88 128.244Z" fill="white"/>
<path d="M142.443 128.927C142.443 128.927 120.323 137.854 120.166 139.296C120.01 140.739 159.932 149.411 161.812 148.885C163.698 148.359 181.245 137.843 179.953 136.249C178.666 134.651 143.203 128.645 142.443 128.927Z" fill="white"/>
<path d="M142.323 130.01C142.323 130.01 120.208 138.937 120.052 140.38C119.896 141.822 159.818 150.494 161.698 149.968C163.578 149.442 181.125 138.927 179.839 137.328C178.552 135.734 143.083 129.723 142.323 130.01Z" fill="white"/>
<path d="M141.526 130.65C141.526 130.65 119.406 139.577 119.25 141.02C119.099 142.463 159.021 151.14 160.901 150.614C162.781 150.082 180.328 139.572 179.042 137.973C177.75 136.374 142.286 130.369 141.526 130.65Z" fill="white"/>
<path d="M142.167 131.452C142.167 131.452 120.052 140.379 119.896 141.822C119.74 143.265 159.662 151.937 161.542 151.411C163.422 150.885 180.969 140.369 179.682 138.77C178.396 137.176 142.927 131.166 142.167 131.452Z" fill="white"/>
<path d="M179.734 135.494C179.745 135.265 179.479 135.041 179.245 135.228C176.182 137.707 173.062 140.082 169.766 142.239C166.594 144.317 163.302 146.119 159.953 147.874C159.943 147.874 159.937 147.869 159.927 147.869C153.24 146.692 146.599 145.228 140.042 143.463C133.557 141.713 127.208 139.588 120.854 137.416C120.495 137.291 120.276 137.827 120.635 137.973C126.573 140.306 132.719 142.197 138.88 143.874C132.76 142.515 126.714 140.848 120.75 138.905C120.365 138.78 120.13 139.364 120.521 139.494C127.443 141.822 134.516 143.707 141.667 145.197C141.698 145.233 141.74 145.265 141.807 145.285C147.714 146.926 153.698 148.457 159.729 149.572C159.797 149.619 159.88 149.645 159.974 149.619C160.203 149.66 160.432 149.707 160.661 149.744C160.958 149.801 161.078 149.504 160.984 149.285C162.417 148.749 163.729 147.957 165.031 147.16C166.901 146.015 168.74 144.827 170.552 143.598C173.87 141.348 177.24 139.041 179.755 135.869C179.859 135.733 179.828 135.593 179.734 135.494ZM159.146 148.457C159.13 148.556 159.161 148.666 159.219 148.744C154.312 147.697 149.427 146.629 144.568 145.379C144.568 145.374 144.568 145.364 144.568 145.358C149.391 146.551 154.255 147.582 159.146 148.457ZM170.255 142.952C168.583 144.082 166.891 145.181 165.177 146.244C163.5 147.28 161.828 148.28 159.953 148.905C159.849 148.879 159.74 148.858 159.635 148.838C165.656 146.02 171.484 142.332 176.719 138.14C174.724 139.936 172.464 141.457 170.255 142.952Z" fill="#F2F2F2"/>
<path d="M142.88 123.124C142.88 123.124 120.76 132.051 120.604 133.494C120.453 134.937 160.375 143.609 162.255 143.082C164.135 142.556 181.682 132.041 180.396 130.442C179.104 128.848 143.64 122.838 142.88 123.124Z" fill="white"/>
<path d="M142.443 123.807C142.443 123.807 120.323 132.734 120.166 134.177C120.01 135.619 159.932 144.291 161.812 143.765C163.698 143.239 181.245 132.723 179.953 131.124C178.666 129.531 143.203 123.52 142.443 123.807Z" fill="white"/>
<path d="M142.323 124.885C142.323 124.885 120.208 133.817 120.052 135.26C119.896 136.697 159.818 145.374 161.698 144.848C163.578 144.317 181.125 133.806 179.839 132.207C178.552 130.609 143.083 124.603 142.323 124.885Z" fill="white"/>
<path d="M141.526 125.53C141.526 125.53 119.406 134.457 119.25 135.9C119.099 137.343 159.021 146.014 160.901 145.488C162.781 144.962 180.328 134.447 179.042 132.853C177.75 131.254 142.286 125.249 141.526 125.53Z" fill="white"/>
<path d="M142.167 126.327C142.167 126.327 120.052 135.259 119.896 136.697C119.74 138.139 159.662 146.817 161.542 146.29C163.422 145.759 180.969 135.249 179.682 133.65C178.396 132.051 142.927 126.046 142.167 126.327Z" fill="white"/>
<path d="M180.037 131.88C180.047 131.65 179.776 131.426 179.547 131.614C176.484 134.093 173.365 136.468 170.068 138.624C166.896 140.702 163.604 142.505 160.255 144.26C160.245 144.26 160.24 144.255 160.229 144.255C153.542 143.077 146.901 141.614 140.344 139.848C133.854 138.098 127.51 135.973 121.156 133.801C120.797 133.676 120.578 134.213 120.938 134.359C126.875 136.692 133.021 138.577 139.177 140.26C133.063 138.9 127.016 137.234 121.052 135.291C120.667 135.166 120.432 135.749 120.818 135.88C127.745 138.208 134.818 140.093 141.969 141.583C142 141.619 142.042 141.65 142.104 141.671C148.016 143.312 154 144.838 160.031 145.958C160.099 146.005 160.182 146.031 160.276 146.005C160.505 146.046 160.734 146.093 160.964 146.13C161.26 146.187 161.375 145.89 161.287 145.671C162.714 145.135 164.031 144.343 165.333 143.546C167.198 142.4 169.042 141.213 170.854 139.984C174.172 137.734 177.542 135.426 180.052 132.255C180.162 132.119 180.13 131.978 180.037 131.88ZM159.448 144.843C159.432 144.942 159.458 145.051 159.521 145.13C154.615 144.083 149.724 143.015 144.87 141.765C144.87 141.755 144.87 141.749 144.87 141.744C149.693 142.937 154.557 143.968 159.448 144.843ZM170.552 139.338C168.885 140.468 167.193 141.567 165.479 142.63C163.802 143.666 162.13 144.666 160.255 145.291C160.146 145.265 160.042 145.244 159.938 145.218C165.958 142.406 171.781 138.718 177.021 134.525C175.026 136.322 172.766 137.843 170.552 139.338Z" fill="#F2F2F2"/>
<path d="M142.88 119.812C142.88 119.812 120.76 128.739 120.604 130.181C120.453 131.624 160.375 140.296 162.255 139.77C164.135 139.244 181.682 128.728 180.396 127.129C179.104 125.53 143.64 119.525 142.88 119.812Z" fill="white"/>
<path d="M142.443 120.494C142.443 120.494 120.323 129.421 120.166 130.864C120.01 132.307 159.932 140.979 161.812 140.453C163.698 139.927 181.245 129.411 179.953 127.812C178.666 126.213 143.203 120.208 142.443 120.494Z" fill="white"/>
<path d="M142.323 121.572C142.323 121.572 120.208 130.499 120.052 131.942C119.896 133.385 159.818 142.062 161.698 141.53C163.578 141.004 181.125 130.494 179.839 128.895C178.552 127.296 143.083 121.291 142.323 121.572Z" fill="white"/>
<path d="M141.526 122.218C141.526 122.218 119.406 131.145 119.25 132.588C119.099 134.03 159.021 142.702 160.901 142.176C162.781 141.65 180.328 131.135 179.042 129.536C177.75 127.942 142.286 121.931 141.526 122.218Z" fill="white"/>
<path d="M142.167 123.014C142.167 123.014 120.052 131.942 119.896 133.384C119.74 134.827 159.662 143.504 161.542 142.973C163.422 142.447 180.969 131.936 179.682 130.337C178.396 128.738 142.927 122.733 142.167 123.014Z" fill="white"/>
<path d="M179.734 127.062C179.745 126.828 179.479 126.609 179.245 126.796C176.182 129.27 173.062 131.65 169.766 133.807C166.594 135.88 163.302 137.687 159.953 139.442C159.943 139.442 159.937 139.432 159.927 139.432C153.24 138.26 146.599 136.796 140.042 135.025C133.557 133.275 127.208 131.15 120.854 128.979C120.495 128.854 120.276 129.395 120.635 129.536C126.573 131.869 132.719 133.76 138.88 135.442C132.76 134.078 126.714 132.416 120.75 130.473C120.365 130.348 120.13 130.932 120.521 131.062C127.443 133.385 134.516 135.275 141.667 136.76C141.698 136.796 141.74 136.833 141.807 136.848C147.714 138.489 153.698 140.02 159.729 141.135C159.797 141.187 159.88 141.208 159.974 141.182C160.203 141.223 160.432 141.27 160.661 141.312C160.958 141.364 161.078 141.067 160.984 140.848C162.417 140.312 163.729 139.52 165.031 138.723C166.901 137.578 168.74 136.395 170.552 135.166C173.87 132.911 177.24 130.609 179.755 127.437C179.859 127.302 179.828 127.156 179.734 127.062ZM159.146 140.02C159.13 140.124 159.161 140.229 159.219 140.312C154.312 139.265 149.427 138.192 144.568 136.942C144.568 136.937 144.568 136.932 144.568 136.927C149.391 138.114 154.255 139.145 159.146 140.02ZM170.255 134.52C168.583 135.65 166.891 136.749 165.177 137.807C163.5 138.848 161.828 139.848 159.953 140.468C159.849 140.447 159.74 140.421 159.635 140.4C165.656 137.583 171.484 133.9 176.719 129.703C174.724 131.499 172.464 133.025 170.255 134.52Z" fill="#F2F2F2"/>
<path d="M142.88 114.686C142.88 114.686 120.76 123.613 120.604 125.056C120.453 126.499 160.375 135.176 162.255 134.645C164.135 134.119 181.682 123.608 180.396 122.009C179.104 120.41 143.64 114.405 142.88 114.686Z" fill="white"/>
<path d="M142.443 115.369C142.443 115.369 120.323 124.296 120.166 125.739C120.01 127.181 159.932 135.859 161.812 135.327C163.698 134.801 181.245 124.291 179.953 122.692C178.666 121.093 143.203 115.088 142.443 115.369Z" fill="white"/>
<path d="M142.323 116.452C142.323 116.452 120.208 125.379 120.052 126.822C119.896 128.264 159.818 136.936 161.698 136.41C163.578 135.884 181.125 125.369 179.839 123.77C178.552 122.176 143.083 116.171 142.323 116.452Z" fill="white"/>
<path d="M141.526 117.098C141.526 117.098 119.406 126.025 119.25 127.468C119.099 128.91 159.021 137.582 160.901 137.056C162.781 136.53 180.328 126.014 179.042 124.416C177.75 122.817 142.286 116.811 141.526 117.098Z" fill="white"/>
<path d="M142.167 117.895C142.167 117.895 120.052 126.822 119.896 128.265C119.74 129.708 159.662 138.38 161.542 137.854C163.422 137.328 180.969 126.812 179.682 125.213C178.396 123.619 142.927 117.614 142.167 117.895Z" fill="white"/>
<path d="M180.037 123.447C180.047 123.212 179.776 122.994 179.547 123.181C176.484 125.655 173.365 128.035 170.068 130.192C166.896 132.264 163.604 134.072 160.255 135.827C160.245 135.822 160.24 135.817 160.229 135.817C153.542 134.645 146.901 133.181 140.344 131.41C133.854 129.66 127.51 127.535 121.156 125.363C120.797 125.238 120.578 125.78 120.938 125.921C126.875 128.254 133.021 130.145 139.177 131.827C133.063 130.462 127.016 128.801 121.052 126.858C120.667 126.733 120.432 127.317 120.818 127.442C127.745 129.77 134.818 131.66 141.969 133.145C142 133.181 142.042 133.218 142.104 133.233C148.016 134.874 154 136.405 160.031 137.52C160.099 137.572 160.182 137.593 160.276 137.567C160.505 137.608 160.734 137.655 160.964 137.697C161.26 137.749 161.375 137.452 161.287 137.233C162.714 136.697 164.031 135.905 165.333 135.108C167.198 133.962 169.042 132.78 170.854 131.546C174.172 129.296 177.542 126.994 180.052 123.822C180.162 123.686 180.13 123.54 180.037 123.447ZM159.448 136.405C159.432 136.509 159.458 136.613 159.521 136.697C154.615 135.645 149.724 134.577 144.87 133.327C144.87 133.322 144.87 133.317 144.87 133.311C149.693 134.499 154.557 135.53 159.448 136.405ZM170.552 130.9C168.885 132.03 167.193 133.134 165.479 134.192C163.802 135.233 162.13 136.233 160.255 136.853C160.146 136.832 160.042 136.806 159.938 136.785C165.958 133.968 171.781 130.28 177.021 126.087C175.026 127.884 172.766 129.41 170.552 130.9Z" fill="#F2F2F2"/>
<path d="M147.698 110.171C147.698 110.171 125.583 119.098 125.427 120.541C125.271 121.984 165.193 130.655 167.073 130.129C168.953 129.603 186.5 119.088 185.214 117.489C183.927 115.89 148.458 109.885 147.698 110.171Z" fill="white"/>
<path d="M147.261 110.854C147.261 110.854 125.141 119.781 124.99 121.223C124.833 122.666 164.755 131.338 166.636 130.812C168.516 130.286 186.063 119.77 184.776 118.171C183.49 116.572 148.021 110.567 147.261 110.854Z" fill="white"/>
<path d="M147.146 111.931C147.146 111.931 125.026 120.859 124.87 122.301C124.713 123.744 164.635 132.421 166.521 131.895C168.401 131.364 185.948 120.853 184.656 119.254C183.37 117.655 147.906 111.65 147.146 111.931Z" fill="white"/>
<path d="M146.344 112.577C146.344 112.577 124.229 121.504 124.073 122.947C123.916 124.389 163.838 133.061 165.719 132.535C167.599 132.009 185.146 121.494 183.859 119.895C182.573 118.301 147.104 112.296 146.344 112.577Z" fill="white"/>
<path d="M146.989 113.374C146.989 113.374 124.87 122.301 124.713 123.744C124.562 125.186 164.484 133.863 166.364 133.332C168.245 132.806 185.791 122.296 184.505 120.697C183.219 119.098 147.75 113.093 146.989 113.374Z" fill="white"/>
<path d="M184.557 117.421C184.568 117.187 184.297 116.968 184.063 117.156C181.005 119.63 177.88 122.01 174.589 124.166C171.417 126.239 168.12 128.046 164.771 129.802C164.766 129.802 164.755 129.796 164.75 129.791C158.057 128.619 151.422 127.156 144.865 125.385C138.375 123.64 132.031 121.51 125.677 119.338C125.313 119.218 125.099 119.755 125.459 119.895C131.396 122.229 137.542 124.119 143.698 125.802C137.578 124.437 131.537 122.775 125.573 120.833C125.188 120.708 124.953 121.291 125.339 121.421C132.266 123.744 139.334 125.635 146.49 127.119C146.521 127.156 146.563 127.192 146.625 127.208C152.531 128.848 158.516 130.38 164.552 131.499C164.615 131.546 164.698 131.567 164.797 131.541C165.026 131.583 165.25 131.63 165.479 131.671C165.781 131.723 165.896 131.432 165.807 131.208C167.235 130.671 168.552 129.88 169.854 129.083C171.719 127.937 173.563 126.755 175.375 125.525C178.688 123.27 182.063 120.968 184.573 117.796C184.682 117.661 184.646 117.515 184.557 117.421ZM163.969 130.38C163.948 130.484 163.979 130.588 164.037 130.671C159.136 129.624 154.245 128.552 149.391 127.302C149.391 127.296 149.391 127.291 149.391 127.286C154.214 128.479 159.073 129.505 163.969 130.38ZM175.073 124.88C173.401 126.01 171.714 127.109 169.995 128.171C168.323 129.208 166.651 130.208 164.776 130.828C164.667 130.807 164.563 130.781 164.453 130.76C170.479 127.942 176.302 124.26 181.542 120.067C179.542 121.859 177.281 123.385 175.073 124.88Z" fill="#F2F2F2"/>
<path d="M147.698 105.046C147.698 105.046 125.583 113.973 125.427 115.415C125.271 116.858 165.193 125.535 167.073 125.009C168.953 124.478 186.5 113.968 185.214 112.369C183.927 110.77 148.458 104.764 147.698 105.046Z" fill="white"/>
<path d="M147.261 105.728C147.261 105.728 125.141 114.655 124.99 116.098C124.833 117.541 164.755 126.218 166.636 125.692C168.516 125.161 186.063 114.65 184.776 113.051C183.49 111.452 148.021 105.447 147.261 105.728Z" fill="white"/>
<path d="M147.146 106.811C147.146 106.811 125.026 115.738 124.87 117.181C124.713 118.624 164.635 127.296 166.521 126.77C168.401 126.244 185.948 115.728 184.656 114.134C183.37 112.535 147.906 106.53 147.146 106.811Z" fill="white"/>
<path d="M146.344 107.457C146.344 107.457 124.229 116.384 124.073 117.827C123.916 119.27 163.838 127.942 165.719 127.416C167.599 126.889 185.146 116.374 183.859 114.775C182.573 113.176 147.104 107.171 146.344 107.457Z" fill="white"/>
<path d="M146.989 108.255C146.989 108.255 124.87 117.182 124.713 118.624C124.562 120.067 164.484 128.739 166.364 128.213C168.245 127.687 185.791 117.171 184.505 115.578C183.219 113.979 147.75 107.973 146.989 108.255Z" fill="white"/>
<path d="M184.859 113.806C184.87 113.572 184.599 113.353 184.365 113.54C181.302 116.014 178.182 118.395 174.885 120.551C171.719 122.624 168.422 124.431 165.073 126.186C165.062 126.186 165.057 126.181 165.052 126.176C158.359 125.004 151.724 123.54 145.161 121.77C138.677 120.02 132.333 117.895 125.979 115.723C125.615 115.603 125.401 116.139 125.76 116.28C131.698 118.613 137.844 120.504 144 122.186C137.88 120.822 131.833 119.16 125.87 117.218C125.484 117.093 125.255 117.676 125.641 117.806C132.568 120.129 139.635 122.02 146.792 123.504C146.823 123.54 146.865 123.577 146.927 123.593C152.833 125.233 158.818 126.764 164.854 127.884C164.917 127.931 165 127.952 165.094 127.926C165.323 127.968 165.552 128.014 165.781 128.056C166.083 128.108 166.198 127.817 166.109 127.593C167.536 127.056 168.854 126.264 170.151 125.468C172.021 124.322 173.865 123.139 175.672 121.91C178.99 119.655 182.365 117.353 184.875 114.181C184.984 114.046 184.948 113.9 184.859 113.806ZM164.266 126.764C164.25 126.869 164.281 126.973 164.339 127.056C159.432 126.009 154.547 124.936 149.687 123.686C149.687 123.681 149.693 123.676 149.693 123.671C154.516 124.863 159.375 125.889 164.266 126.764ZM175.375 121.264C173.703 122.395 172.01 123.494 170.297 124.551C168.62 125.593 166.953 126.593 165.073 127.212C164.969 127.192 164.865 127.165 164.755 127.145C170.781 124.327 176.604 120.645 181.839 116.447C179.844 118.244 177.583 119.77 175.375 121.264Z" fill="#F2F2F2"/>
<path d="M143.182 102.036C143.182 102.036 121.062 110.963 120.906 112.406C120.75 113.848 160.672 122.52 162.552 121.994C164.437 121.468 181.984 110.953 180.693 109.354C179.406 107.76 143.943 101.755 143.182 102.036Z" fill="white"/>
<path d="M142.745 102.718C142.745 102.718 120.625 111.645 120.469 113.087C120.312 114.53 160.234 123.202 162.115 122.676C163.995 122.15 181.542 111.634 180.255 110.035C178.969 108.442 143.5 102.436 142.745 102.718Z" fill="white"/>
<path d="M142.625 103.801C142.625 103.801 120.51 112.728 120.354 114.171C120.198 115.613 160.12 124.285 162 123.759C163.88 123.233 181.427 112.718 180.14 111.119C178.854 109.52 143.385 103.514 142.625 103.801Z" fill="white"/>
<path d="M141.828 104.442C141.828 104.442 119.708 113.369 119.552 114.812C119.401 116.255 159.318 124.932 161.203 124.401C163.083 123.874 180.63 113.364 179.344 111.765C178.052 110.166 142.589 104.161 141.828 104.442Z" fill="white"/>
<path d="M142.469 105.244C142.469 105.244 120.354 114.171 120.198 115.614C120.041 117.057 159.963 125.729 161.844 125.203C163.724 124.677 181.271 114.161 179.984 112.562C178.698 110.963 143.229 104.958 142.469 105.244Z" fill="white"/>
<path d="M180.037 109.286C180.047 109.057 179.776 108.833 179.547 109.02C176.484 111.499 173.365 113.874 170.068 116.031C166.896 118.109 163.604 119.911 160.255 121.666C160.245 121.666 160.24 121.661 160.229 121.661C153.542 120.484 146.901 119.02 140.344 117.255C133.854 115.505 127.51 113.38 121.156 111.208C120.797 111.083 120.578 111.619 120.938 111.76C126.875 114.098 133.021 115.984 139.177 117.666C133.063 116.307 127.016 114.64 121.052 112.697C120.667 112.572 120.432 113.156 120.818 113.286C127.745 115.614 134.818 117.499 141.969 118.984C142 119.025 142.042 119.057 142.104 119.077C148.016 120.718 154 122.244 160.031 123.364C160.099 123.411 160.182 123.437 160.276 123.411C160.505 123.452 160.734 123.499 160.964 123.536C161.26 123.593 161.375 123.296 161.287 123.077C162.714 122.541 164.031 121.749 165.333 120.947C167.198 119.807 169.042 118.619 170.854 117.39C174.172 115.14 177.542 112.833 180.052 109.661C180.162 109.525 180.13 109.385 180.037 109.286ZM159.448 122.249C159.432 122.348 159.458 122.458 159.521 122.536C154.615 121.489 149.724 120.421 144.87 119.166C144.87 119.161 144.87 119.156 144.87 119.15C149.693 120.343 154.557 121.374 159.448 122.249ZM170.552 116.744C168.885 117.874 167.193 118.973 165.479 120.036C163.802 121.072 162.13 122.072 160.255 122.692C160.146 122.671 160.042 122.65 159.938 122.624C165.958 119.812 171.781 116.124 177.021 111.932C175.026 113.728 172.766 115.249 170.552 116.744Z" fill="#F2F2F2"/>
<path d="M143.182 96.9162C143.182 96.9162 121.062 105.843 120.906 107.286C120.75 108.729 160.672 117.401 162.552 116.874C164.437 116.348 181.984 105.833 180.693 104.234C179.406 102.64 143.943 96.6297 143.182 96.9162Z" fill="white"/>
<path d="M142.745 97.5978C142.745 97.5978 120.625 106.525 120.469 107.968C120.312 109.41 160.234 118.082 162.115 117.556C163.995 117.03 181.542 106.514 180.255 104.916C178.969 103.317 143.5 97.3113 142.745 97.5978Z" fill="white"/>
<path d="M142.625 98.6766C142.625 98.6766 120.51 107.604 120.354 109.046C120.198 110.489 160.12 119.166 162 118.64C163.88 118.109 181.427 107.598 180.14 105.999C178.854 104.401 143.385 98.3953 142.625 98.6766Z" fill="white"/>
<path d="M141.828 99.3221C141.828 99.3221 119.708 108.249 119.552 109.692C119.401 111.135 159.318 119.806 161.203 119.28C163.083 118.754 180.63 108.239 179.344 106.64C178.052 105.046 142.589 99.0408 141.828 99.3221Z" fill="white"/>
<path d="M142.469 100.119C142.469 100.119 120.354 109.046 120.198 110.489C120.041 111.931 159.963 120.609 161.844 120.077C163.724 119.551 181.271 109.041 179.984 107.442C178.698 105.843 143.229 99.8377 142.469 100.119Z" fill="white"/>
<path d="M180.339 105.671C180.349 105.441 180.078 105.217 179.844 105.405C176.787 107.879 173.667 110.259 170.37 112.415C167.198 114.493 163.901 116.296 160.552 118.051C160.547 118.051 160.542 118.046 160.531 118.04C153.839 116.868 147.203 115.405 140.646 113.639C134.234 111.91 127.958 109.811 121.677 107.665C121.74 107.431 121.833 107.228 122.125 107.019C122.443 106.801 122.807 106.655 123.162 106.509C123.323 106.441 123.552 106.389 123.693 106.285C123.813 106.191 123.802 106.03 123.641 105.952C123.537 105.91 123.422 105.921 123.313 105.936C122.833 106.004 122.359 106.118 121.901 106.275C121.51 106.405 121.162 106.582 120.958 106.967C120.667 107.519 120.698 108.144 120.365 108.717C120.177 109.035 120.021 109.358 120.016 109.733C120.01 110.139 120.193 110.233 120.313 110.572C120.531 111.176 120.203 111.509 120.031 112.061C119.833 112.702 119.651 113.478 120.203 113.973C121.12 114.79 122.688 114.988 123.469 115.983C123.901 116.535 123.823 117.671 123.5 118.249C123.146 118.868 122.521 118.983 121.927 119.259C121.453 119.478 120.589 119.91 120.932 120.561C121.177 121.014 122.005 121.29 122.714 121.499C121.745 122.197 120.412 123.275 121.318 124.129C120.828 124.712 120.005 124.832 119.833 125.785C119.542 127.368 119.776 129.035 119.537 130.618C119.349 131.868 118.13 132.988 118.193 134.327C118.208 134.676 118.339 134.936 118.635 135.124C118.917 135.306 119.219 135.217 119.51 135.342C119.542 135.358 119.578 135.379 119.599 135.41C119.615 135.436 119.62 135.473 119.62 135.504C119.63 135.65 119.641 135.796 119.651 135.941C119.667 136.134 119.755 136.431 120.01 136.337C120.219 136.254 120.292 135.936 120.339 135.743C120.448 135.301 120.365 134.837 119.953 134.577C119.448 134.254 119.078 134.572 119.208 133.79C119.339 132.978 119.885 132.379 120.219 131.665C120.453 131.155 120.412 130.525 120.443 129.978C120.495 129.124 120.542 128.269 120.594 127.415C120.646 126.499 120.63 125.733 121.396 125.129C121.76 124.842 122.068 124.686 122.276 124.243C122.37 124.03 122.339 123.775 122.12 123.65C121.552 123.327 123.787 121.775 123.953 121.644C124.24 121.421 124.031 121.025 123.766 120.926C123.297 120.743 122.781 120.598 122.333 120.368C121.667 120.035 122.396 120.009 122.885 119.785C123.5 119.499 123.99 119.165 124.292 118.54C124.599 117.884 124.677 117.014 124.537 116.306C124.385 115.546 123.823 115.186 123.208 114.775C122.776 114.483 122.328 114.212 121.87 113.962C121.51 113.764 120.88 113.608 120.719 113.228C120.339 112.342 121.464 111.561 121.354 110.702C121.302 110.311 121.016 109.936 120.958 109.535C120.99 109.592 121.042 109.639 121.12 109.671C128.047 111.993 135.12 113.884 142.271 115.368C142.302 115.41 142.344 115.441 142.406 115.457C148.318 117.103 154.302 118.629 160.333 119.749C160.401 119.796 160.484 119.816 160.578 119.796C160.807 119.837 161.037 119.879 161.266 119.921C161.563 119.973 161.677 119.681 161.589 119.462C163.016 118.921 164.333 118.134 165.635 117.332C167.5 116.186 169.344 115.004 171.156 113.775C174.469 111.519 177.844 109.217 180.354 106.046C180.464 105.91 180.427 105.769 180.339 105.671ZM121.354 109.082C121.167 109.019 121.016 109.129 120.953 109.264C121.01 108.936 121.412 108.613 121.526 108.28C121.526 108.269 121.531 108.264 121.531 108.259C127.38 110.54 133.422 112.4 139.479 114.051C133.365 112.686 127.318 111.025 121.354 109.082ZM145.172 115.551C145.172 115.546 145.172 115.54 145.172 115.535C149.995 116.728 154.859 117.754 159.75 118.629C159.734 118.733 159.76 118.842 159.823 118.921C154.917 117.874 150.026 116.806 145.172 115.551ZM170.854 113.129C169.188 114.259 167.495 115.358 165.781 116.421C164.104 117.457 162.432 118.457 160.557 119.077C160.448 119.056 160.344 119.035 160.24 119.009C166.26 116.197 172.083 112.509 177.323 108.316C175.328 110.113 173.068 111.634 170.854 113.129Z" fill="#F2F2F2"/>
<path d="M168.208 99.874C168.412 99.874 186.609 100.692 186.609 101.509C186.609 102.327 177.406 116.64 176.589 116.64C175.771 116.64 134.875 113.775 134.469 113.166C134.057 112.551 155.12 99.874 155.12 99.874H168.208Z" fill="#F2F2F2"/>
<path d="M160.068 116.63L127.719 110.916C127.719 110.916 124.651 110.505 123.63 108.666C122.609 106.827 126.901 106.619 126.901 106.619L157.984 107.645L160.068 116.63Z" fill="#A86F1D"/>
<path d="M188.448 104.165C188.448 104.165 162.276 117.051 161.255 117.051C160.234 117.051 123.391 106.421 123.63 107.848C124.042 110.301 127.312 110.712 127.312 110.712L161.255 116.842L161.052 117.254C161.052 117.254 127.312 111.53 125.677 110.712C124.042 109.895 121.995 107.848 124.042 107.03C126.083 106.212 157.776 98.6445 157.776 98.6445C157.776 98.6445 189.88 103.556 188.448 104.165Z" fill="#EFB44B"/>
<path d="M182.318 100.488C182.318 100.691 182.11 103.551 182.11 103.551L149.396 113.572L132.219 107.645L122.813 103.759C122.813 103.759 122.61 101.098 124.245 100.895C125.88 100.691 182.318 100.488 182.318 100.488Z" fill="white"/>
<path d="M122.813 103.759L132.219 107.645L149.396 113.572L149.464 113.551C149.521 111.572 149.599 108.993 149.599 108.868L129.761 100.785C126.589 100.822 124.537 100.858 124.245 100.895C122.61 101.098 122.813 103.759 122.813 103.759Z" fill="#E5E5E5"/>
<path d="M156.958 92.3066C156.958 92.3066 183.338 99.6712 183.338 100.489C183.338 101.307 151.234 110.916 150.01 110.713C148.781 110.505 123.63 100.895 123.427 101.51C123.224 102.124 122.812 103.348 123.427 103.76C124.041 104.166 147.963 113.369 149.396 113.166C150.828 112.958 182.724 102.739 183.338 102.739C184.073 102.739 183.338 103.557 183.338 103.557C183.338 103.557 150.213 113.781 149.396 113.781C148.578 113.781 123.015 104.781 122.609 104.166C122.198 103.557 122.812 101.307 123.427 100.895C124.041 100.489 155.323 92.3066 156.958 92.3066Z" fill="#ED4450"/>
<path d="M321.87 73.5613C321.87 73.5613 343.985 82.4884 344.141 83.9311C344.297 85.3738 304.375 94.0509 302.495 93.5197C300.615 92.9936 283.068 82.478 284.354 80.8842C285.641 79.2853 321.11 73.2801 321.87 73.5613Z" fill="white"/>
<path d="M322.308 74.2439C322.308 74.2439 344.422 83.171 344.578 84.6137C344.735 86.0564 304.813 94.7335 302.933 94.2023C301.052 93.6762 283.506 83.1606 284.792 81.5669C286.078 79.9679 321.547 73.9627 322.308 74.2439Z" fill="white"/>
<path d="M322.422 75.3273C322.422 75.3273 344.542 84.2544 344.698 85.6971C344.849 87.1398 304.927 95.8117 303.047 95.2856C301.167 94.7596 283.62 84.244 284.906 82.645C286.198 81.0512 321.661 75.0408 322.422 75.3273Z" fill="white"/>
<path d="M323.224 75.9676C323.224 75.9676 345.339 84.8999 345.495 86.3374C345.651 87.7801 305.729 96.4572 303.849 95.9311C301.969 95.3999 284.422 84.8894 285.708 83.2905C286.995 81.6915 322.464 75.6863 323.224 75.9676Z" fill="white"/>
<path d="M322.578 76.7697C322.578 76.7697 344.698 85.6968 344.849 87.1395C345.005 88.5822 305.083 97.254 303.203 96.728C301.323 96.202 283.776 85.6863 285.062 84.0874C286.349 82.4936 321.818 76.4832 322.578 76.7697Z" fill="white"/>
<path d="M284.693 82.6971C287.203 85.8638 290.578 88.1711 293.896 90.4211C295.703 91.6554 297.547 92.8377 299.411 93.9836C300.713 94.7804 302.031 95.5721 303.458 96.1086C303.37 96.3273 303.484 96.6242 303.786 96.5721C304.016 96.5304 304.245 96.4836 304.469 96.4419C304.568 96.4679 304.651 96.4471 304.713 96.395C310.75 95.2804 316.734 93.7492 322.641 92.1086C322.703 92.0929 322.745 92.0565 322.776 92.02C329.932 90.5356 337 88.645 343.927 86.3169C344.312 86.1867 344.078 85.6034 343.698 85.7284C337.734 87.6711 331.687 89.3377 325.568 90.7023C331.724 89.02 337.87 87.1294 343.807 84.7961C344.167 84.6554 343.953 84.1138 343.589 84.2388C337.234 86.4106 330.891 88.5356 324.406 90.2856C317.844 92.0565 311.208 93.5148 304.516 94.6919C304.51 94.6919 304.505 94.6971 304.495 94.7023C301.146 92.9471 297.849 91.1398 294.682 89.0669C291.385 86.9106 288.266 84.5304 285.203 82.0565C284.969 81.8638 284.698 82.0877 284.708 82.3169C284.62 82.4159 284.583 82.5617 284.693 82.6971ZM319.875 92.1867C319.875 92.1919 319.875 92.1971 319.875 92.2023C315.021 93.4523 310.13 94.52 305.229 95.5721C305.286 95.4888 305.318 95.3846 305.302 95.2804C310.193 94.4054 315.052 93.3742 319.875 92.1867ZM287.724 84.9627C292.963 89.1554 298.786 92.8429 304.812 95.6606C304.703 95.6815 304.599 95.7023 304.49 95.7284C302.615 95.1034 300.943 94.1034 299.271 93.0669C297.552 92.0044 295.865 90.9054 294.193 89.7752C291.984 88.2804 289.724 86.7596 287.724 84.9627Z" fill="#F2F2F2"/>
<path d="M344.437 85.1764C344.515 85.1191 344.583 85.0566 344.651 84.9889C344.765 84.8639 344.833 84.7024 344.854 84.5358C344.927 83.9628 344.396 83.7389 344.156 83.3118C344.109 83.2232 344.041 83.166 343.969 83.1347C343.958 83.1243 343.948 83.1087 343.932 83.0983C341.604 81.3847 338.854 80.4732 336.239 79.3014C333.463 78.0566 330.755 76.6555 328.14 75.1035C326.859 74.343 325.609 73.5357 324.364 72.7232C323.344 72.0618 322.609 72.1607 321.411 72.3222C318.26 72.7493 315.151 73.468 312.161 74.5514C311.745 74.7024 311.911 75.3535 312.344 75.2233C315.182 74.3535 318.062 73.6347 321.005 73.2128C321.802 73.0982 322.75 72.8222 323.51 73.1868C324.067 73.4524 324.594 73.9212 325.109 74.2597C326.302 75.0305 327.51 75.7753 328.745 76.4837C331.146 77.8691 333.625 79.1191 336.161 80.2337C338.656 81.3378 341.271 82.2233 343.505 83.8274C343.526 83.843 343.552 83.8535 343.573 83.8691C343.703 84.0149 343.89 84.192 343.911 84.2805C343.979 84.6139 343.771 84.541 343.646 84.7441C343.474 85.0149 343.338 85.2597 343.489 85.5826C343.547 85.7024 343.666 85.7597 343.729 85.8587C343.791 85.9212 343.859 85.9628 343.942 85.9837C343.817 86.0357 343.703 86.1035 343.599 86.192C343.281 86.4264 343.088 86.7389 342.969 87.1139C342.828 87.5514 343.536 87.8691 343.729 87.4316C343.885 87.0774 344.057 86.9316 344.38 86.7285C344.567 86.6139 344.661 86.5722 344.755 86.3743C344.979 85.8743 344.583 85.6764 344.416 85.3014C344.239 85.2233 344.245 85.1816 344.437 85.1764Z" fill="#F2F2F2"/>
<path d="M336.948 83.2021C331.797 80.8271 326.927 77.9312 322.432 74.4625C322.078 74.1916 321.594 74.8114 321.948 75.0927C326.443 78.6031 331.312 81.5979 336.521 83.9312C337.01 84.15 337.443 83.4312 336.948 83.2021Z" fill="#F2F2F2"/>
<path d="M327.281 79.9837C324.708 78.6816 322.255 77.1816 319.917 75.4941C319.526 75.2077 319.156 75.8587 319.542 76.14C321.865 77.8483 324.307 79.3639 326.87 80.6868C327.333 80.9264 327.75 80.2233 327.281 79.9837Z" fill="#F2F2F2"/>
<path d="M327.927 83.0512C325.969 82.0304 324 81.0252 322.068 79.9523C320.255 78.9418 318.166 77.9991 316.724 76.4835C316.375 76.1189 315.828 76.6658 316.172 77.0304C317.568 78.5304 319.521 79.4575 321.281 80.4523C323.328 81.6085 325.396 82.7335 327.515 83.7648C327.984 83.9939 328.406 83.296 327.927 83.0512Z" fill="#F2F2F2"/>
<path d="M326.088 85.6971C321.677 83.3585 317.401 80.8585 313.338 77.9418C312.911 77.6346 312.505 78.3429 312.927 78.6502C316.943 81.5721 321.187 84.2596 325.667 86.4158C326.146 86.6502 326.568 85.9523 326.088 85.6971Z" fill="#F2F2F2"/>
<path d="M312.615 80.4885C311.693 79.8322 310.766 79.1812 309.844 78.5301C309.411 78.2229 309.01 78.926 309.432 79.2333C310.349 79.8895 311.271 80.551 312.193 81.2124C312.63 81.5249 313.052 80.7958 312.615 80.4885Z" fill="#F2F2F2"/>
<path d="M323.537 88.364C320.552 86.4838 317.584 84.6452 314.776 82.4942C314.407 82.2129 313.907 82.8588 314.276 83.1452C317.068 85.3067 319.99 87.4317 323.115 89.0879C323.589 89.3379 323.995 88.6557 323.537 88.364Z" fill="#F2F2F2"/>
<path d="M316.469 86.754C312.609 83.9624 308.838 81.0926 305.208 78.0145C304.812 77.6863 304.245 78.2384 304.635 78.5822C308.255 81.7593 312.057 84.7801 316.041 87.4832C316.495 87.7905 316.901 87.0665 316.469 86.754Z" fill="#F2F2F2"/>
<path d="M304.51 81.3219C303.427 80.5406 302.396 79.7125 301.411 78.801C301.047 78.4625 300.51 78.9989 300.864 79.3531C301.859 80.3375 302.943 81.2385 304.099 82.025C304.536 82.3271 304.932 81.6239 304.51 81.3219Z" fill="#F2F2F2"/>
<path d="M305.687 91.7698C303.974 90.6188 302.245 89.499 300.521 88.3636C300.083 88.0771 299.677 88.775 300.109 89.0615C301.823 90.2125 303.531 91.3688 305.26 92.499C305.713 92.7959 306.13 92.0719 305.687 91.7698Z" fill="#F2F2F2"/>
<path d="M39.2343 171.968C39.2343 171.968 61.3541 180.895 61.5104 182.337C61.6614 183.78 21.7396 192.452 19.8593 191.926C17.9791 191.4 0.432259 180.884 1.71872 179.285C3.01038 177.692 38.4739 171.686 39.2343 171.968Z" fill="white"/>
<path d="M39.6721 172.651C39.6721 172.651 61.7918 181.578 61.9481 183.02C62.1043 184.463 22.1825 193.135 20.297 192.609C18.4168 192.083 0.869966 181.567 2.16163 179.968C3.44809 178.374 38.9116 172.364 39.6721 172.651Z" fill="white"/>
<path d="M39.792 173.734C39.792 173.734 61.9065 182.661 62.0628 184.103C62.219 185.546 22.2972 194.218 20.417 193.692C18.5368 193.166 0.989876 182.65 2.27633 181.051C3.56279 179.452 39.0315 173.447 39.792 173.734Z" fill="white"/>
<path d="M40.5888 174.374C40.5888 174.374 62.7086 183.301 62.8597 184.744C63.0159 186.186 23.094 194.858 21.2138 194.332C19.3336 193.806 1.78675 183.29 3.07321 181.697C4.35967 180.098 39.8284 174.093 40.5888 174.374Z" fill="white"/>
<path d="M39.943 175.176C39.943 175.176 62.0628 184.103 62.219 185.546C62.3753 186.983 22.4534 195.66 20.5732 195.134C18.693 194.603 1.14613 184.093 2.43258 182.494C3.71904 180.895 39.1878 174.889 39.943 175.176Z" fill="white"/>
<path d="M62.1666 182.192C61.6458 182.041 61.4375 182.827 61.9427 182.994C61.625 182.89 61.2291 183.801 61.3177 184.067C61.3385 184.14 61.6666 184.557 61.677 184.494C61.6718 184.505 61.5729 184.557 61.4375 184.624C61.5989 184.416 61.3854 184.031 61.0625 184.135C55.0989 186.077 49.052 187.744 42.9375 189.103C49.0937 187.421 55.2396 185.536 61.177 183.202C61.5364 183.057 61.3177 182.52 60.9583 182.645C54.6041 184.817 48.2604 186.942 41.7708 188.692C35.2135 190.458 28.5729 191.921 21.8854 193.098C21.875 193.098 21.8698 193.103 21.8593 193.103C18.5104 191.348 15.2187 189.546 12.0468 187.468C8.74996 185.312 5.63017 182.937 2.56767 180.458C2.3385 180.27 2.06767 180.494 2.07809 180.723C1.98434 180.822 1.95309 180.963 2.05725 181.098C4.57288 184.27 7.94788 186.577 11.2604 188.827C13.0729 190.057 14.9114 191.244 16.7812 192.39C18.0833 193.187 19.401 193.978 20.8281 194.515C20.7343 194.734 20.8541 195.031 21.151 194.973C21.3802 194.937 21.6093 194.89 21.8385 194.848C21.9323 194.874 22.0156 194.848 22.0833 194.801C28.1145 193.682 34.0989 192.156 40.0052 190.515C40.0729 190.494 40.1145 190.463 40.1458 190.421C47.2343 188.952 54.2448 187.083 61.1145 184.781C60.9948 184.838 60.8906 184.89 60.8541 184.906C60.427 185.119 60.0937 185.223 59.6354 185.312C59.3073 185.369 59.2552 185.796 59.4479 186.01C59.7083 186.291 59.9843 186.525 60.2812 186.734C59.7239 186.989 59.0156 187.041 58.4687 187.161C57.6666 187.333 56.8646 187.51 56.0677 187.682C54.5364 188.015 53.0104 188.348 51.4791 188.682C51 188.786 51.2031 189.51 51.6823 189.411C53.5052 189.031 55.3281 188.65 57.151 188.27C58.4583 187.994 60.3333 187.968 61.3437 187.01C61.5312 186.833 61.4948 186.484 61.2604 186.359C61.0156 186.228 60.7968 186.088 60.5937 185.926C61.1406 185.744 61.6562 185.463 62.0677 185.046C62.2448 184.874 62.4375 184.676 62.4635 184.416C62.4896 184.171 62.2864 184.046 62.2708 183.869C62.2656 183.822 62.2552 183.796 62.2448 183.786C62.25 183.781 62.25 183.775 62.2552 183.77C62.1927 183.848 62.6406 183.656 62.6198 183.666C62.8073 183.557 62.9843 183.353 63.0156 183.124C63.0885 182.583 62.6146 182.317 62.1666 182.192ZM21.8593 194.135C19.9843 193.51 18.3125 192.51 16.6354 191.473C14.9218 190.411 13.2291 189.312 11.5573 188.182C9.34892 186.687 7.08851 185.166 5.09371 183.369C10.3281 187.562 16.1562 191.249 22.177 194.062C22.0729 194.088 21.9635 194.109 21.8593 194.135ZM22.5937 193.973C22.651 193.895 22.6823 193.786 22.6666 193.687C27.5573 192.812 32.4218 191.781 37.2448 190.588C37.2448 190.593 37.2448 190.598 37.2448 190.603C32.3854 191.859 27.5 192.926 22.5937 193.973Z" fill="#F2F2F2"/>
<path d="M44.6513 178.389C42.0783 177.087 39.62 175.587 37.2867 173.895C36.8961 173.613 36.5263 174.259 36.9065 174.54C39.2294 176.249 41.6773 177.77 44.2398 179.093C44.7033 179.332 45.1148 178.629 44.6513 178.389Z" fill="#F2F2F2"/>
<path d="M45.2972 181.457C43.3336 180.436 41.3701 179.426 39.4378 178.353C37.6201 177.348 35.5368 176.405 34.0888 174.884C33.7399 174.52 33.1982 175.072 33.5368 175.436C34.9326 176.936 36.8857 177.863 38.6461 178.858C40.693 180.009 42.7659 181.139 44.8805 182.165C45.3545 182.4 45.7711 181.702 45.2972 181.457Z" fill="#F2F2F2"/>
<path d="M43.4587 184.103C39.0472 181.765 34.766 179.265 30.7087 176.348C30.2764 176.041 29.8701 176.749 30.292 177.056C34.3129 179.978 38.5576 182.661 43.0368 184.822C43.516 185.051 43.9326 184.359 43.4587 184.103Z" fill="#F2F2F2"/>
<path d="M29.9793 178.89C29.0575 178.239 28.1356 177.587 27.2085 176.931C26.7814 176.629 26.3752 177.332 26.797 177.634C27.7189 178.296 28.6356 178.957 29.5575 179.614C29.995 179.931 30.422 179.202 29.9793 178.89Z" fill="#F2F2F2"/>
<path d="M40.9012 186.77C37.9169 184.889 34.9481 183.051 32.146 180.9C31.7762 180.613 31.271 181.259 31.6408 181.551C34.4325 183.712 37.3596 185.837 40.4794 187.494C40.9585 187.744 41.3596 187.056 40.9012 186.77Z" fill="#F2F2F2"/>
<path d="M33.8387 185.16C29.9793 182.369 26.2085 179.499 22.5731 176.421C22.1825 176.087 21.6148 176.645 22.0054 176.989C25.6252 180.16 29.4273 183.181 33.4116 185.89C33.8648 186.197 34.271 185.473 33.8387 185.16Z" fill="#F2F2F2"/>
<path d="M21.8801 179.728C20.7916 178.947 19.7603 178.119 18.7812 177.207C18.4166 176.869 17.8749 177.405 18.2343 177.754C19.2239 178.739 20.3072 179.645 21.4635 180.431C21.9062 180.733 22.302 180.03 21.8801 179.728Z" fill="#F2F2F2"/>
<path d="M23.052 190.176C21.3384 189.025 19.6093 187.9 17.8853 186.77C17.4478 186.478 17.0468 187.181 17.4791 187.468C19.1926 188.613 20.9009 189.775 22.6249 190.905C23.0832 191.202 23.4999 190.478 23.052 190.176Z" fill="#F2F2F2"/>
<mask id="mask1_75_544" style="mask-type:luminance" maskUnits="userSpaceOnUse" x="0" y="176" width="12" height="15">
<path d="M0 176.822H11.3333V190.156H0V176.822Z" fill="white"/>
</mask>
<g mask="url(#mask1_75_544)">
<path d="M10.4531 189.109C8.83848 188.026 7.22389 186.953 5.65098 185.802C4.78119 185.166 3.92181 184.515 3.07285 183.854C2.65098 183.521 2.24993 183.245 1.95306 182.791C1.75514 182.489 1.67702 182.166 1.4791 181.87C1.36452 181.703 1.13535 181.567 1.04681 181.39C0.666601 180.625 1.08848 181.109 1.3541 180.859C1.67702 180.562 1.73952 180.401 1.76556 179.958C1.80723 179.328 1.67181 179.37 2.23952 179.052C2.70306 178.797 3.37493 178.703 3.88014 178.541C4.83848 178.245 5.7916 177.932 6.74473 177.625C7.18743 177.479 7.00514 176.791 6.54681 176.922C5.31243 177.281 4.07806 177.64 2.84368 178.015C2.24473 178.192 1.22389 178.271 0.900976 178.906C0.739519 179.234 0.927018 179.458 0.885351 179.771C0.822852 180.208 0.656185 180.036 0.380143 180.302C0.0572267 180.614 -0.0156906 181.047 0.150976 181.468C0.260351 181.75 0.489518 181.916 0.666601 182.156C0.95306 182.552 1.01556 183.01 1.30723 183.396C1.90618 184.198 2.94264 184.791 3.7291 185.396C5.76556 186.958 7.8541 188.474 10.026 189.849C10.4895 190.14 10.9062 189.411 10.4531 189.109Z" fill="#F2F2F2"/>
</g>
<path d="M50.2861 176.348C47.9997 175.369 45.7341 174.364 43.5205 173.218C42.5518 172.718 41.5986 172.051 40.5726 171.671C39.5049 171.275 38.5049 171.728 37.4268 171.833C36.9424 171.879 36.932 172.64 37.4268 172.603C37.8486 172.572 38.2445 172.494 38.6611 172.421C39.5101 172.281 40.1247 172.379 40.9059 172.77C41.958 173.296 42.9632 173.9 44.0101 174.432C45.9528 175.406 47.932 176.333 49.958 177.119C50.4007 177.291 50.7236 176.536 50.2861 176.348Z" fill="#F2F2F2"/>
<path d="M44.0993 86.7335C44.0993 86.7335 22.6826 95.6397 22.5472 97.0408C22.4118 98.447 61.3181 106.478 63.141 105.947C64.9691 105.411 81.9222 95.0095 80.6566 93.4678C79.3858 91.9314 44.8389 86.447 44.0993 86.7335Z" fill="white"/>
<path d="M43.6826 87.4001C43.6826 87.4001 22.2608 96.3063 22.1254 97.7126C21.9899 99.1136 60.9014 107.145 62.7243 106.614C64.5472 106.082 81.5056 95.6761 80.2347 94.1397C78.9691 92.598 44.417 87.1188 43.6826 87.4001Z" fill="white"/>
<path d="M43.5779 88.4519C43.5779 88.4519 22.1612 97.3581 22.0258 98.7644C21.8851 100.165 60.7966 108.197 62.6195 107.665C64.4424 107.134 81.4008 96.7331 80.1351 95.1914C78.8643 93.6498 44.3122 88.1706 43.5779 88.4519Z" fill="white"/>
<path d="M42.8073 89.0876C42.8073 89.0876 21.3907 97.9938 21.2552 99.4001C21.1198 100.801 60.0261 108.832 61.849 108.301C63.6719 107.77 80.6302 97.3636 79.3646 95.8272C78.0938 94.2855 43.5469 88.8063 42.8073 89.0876Z" fill="white"/>
<path d="M43.4426 89.8585C43.4426 89.8585 22.0259 98.7647 21.8905 100.166C21.7499 101.572 60.6614 109.603 62.4843 109.072C64.3072 108.541 81.2655 98.1345 79.9947 96.5928C78.7291 95.0564 44.177 89.572 43.4426 89.8585Z" fill="white"/>
<path d="M80.3229 94.8687C80.3333 94.6448 80.0677 94.4312 79.8437 94.6187C76.8906 97.0562 73.8802 99.4 70.6979 101.53C67.6354 103.582 64.4479 105.369 61.2083 107.114C61.2031 107.108 61.1979 107.103 61.1875 107.103C54.6719 106.03 48.1979 104.676 41.8021 103.02C35.4792 101.384 29.2865 99.3844 23.0885 97.3375C22.7344 97.2177 22.526 97.7437 22.8802 97.8791C28.6771 100.087 34.6719 101.864 40.6771 103.436C34.7135 102.171 28.8177 100.614 23 98.7854C22.625 98.6708 22.401 99.2385 22.776 99.3635C29.5365 101.551 36.4323 103.317 43.401 104.692C43.4323 104.728 43.474 104.759 43.5365 104.775C49.2969 106.311 55.1354 107.739 61.0156 108.765C61.0781 108.811 61.1562 108.832 61.25 108.806C61.474 108.843 61.6979 108.884 61.9167 108.926C62.2083 108.973 62.3177 108.686 62.2292 108.473C63.6146 107.936 64.8854 107.15 66.1458 106.364C67.9479 105.228 69.724 104.061 71.474 102.843C74.6771 100.619 77.9323 98.3479 80.3437 95.2385C80.4479 95.1031 80.4115 94.9625 80.3229 94.8687ZM60.4323 107.681C60.4167 107.785 60.4479 107.884 60.5052 107.962C55.724 106.994 50.9583 106.004 46.224 104.837C46.224 104.832 46.224 104.827 46.224 104.822C50.9271 105.931 55.6667 106.884 60.4323 107.681ZM71.1771 102.218C69.5625 103.332 67.9323 104.421 66.276 105.473C64.6562 106.499 63.0417 107.489 61.224 108.108C61.1198 108.087 61.0156 108.067 60.9115 108.046C66.7396 105.249 72.3646 101.603 77.4167 97.4729C75.4948 99.2385 73.3125 100.744 71.1771 102.218Z" fill="#F2F2F2"/>
<path d="M55.2763 87.3166C53.3179 86.7958 51.3388 86.3427 49.344 85.9729C47.6877 85.6656 45.969 85.3062 44.2763 85.3166C40.745 85.3375 37.5263 87.4729 34.4846 89.0302C30.9377 90.8531 27.3908 92.6812 23.844 94.5093C22.9898 94.9468 22.1304 95.3739 21.2815 95.8323C20.9169 96.025 20.3856 96.2333 20.3544 96.7281C20.3231 97.1812 20.6981 97.1916 20.8492 97.5145C20.8856 97.5875 20.9065 97.6239 20.9169 97.6395C20.8908 97.6187 20.8283 97.6031 20.7346 97.7593C20.62 97.9677 20.5054 97.9729 20.4325 98.2281C20.3804 98.4 20.4638 98.6187 20.62 98.6968C21.5419 99.1656 20.896 100.093 21.4377 100.817C21.9273 101.468 22.7815 101.53 23.5263 101.556C23.9898 101.567 23.9898 100.858 23.5263 100.837C22.5315 100.785 22.1929 100.551 22.094 99.452C22.0783 99.301 22.1148 99.1291 22.0679 98.9729C21.9742 98.6448 21.7242 98.4104 21.4481 98.2229C21.6304 98.1083 21.87 98.0145 21.9169 97.7281C21.969 97.4104 21.8127 97.2281 21.6096 97.0198C21.521 96.9208 21.3231 96.8114 21.3231 96.7698C21.3179 96.6812 22.4325 96.2073 22.5054 96.1656C23.2971 95.7645 24.0835 95.3583 24.8752 94.9573C28.0992 93.3114 31.3231 91.6604 34.5419 90.0041C37.5419 88.4677 40.7971 86.2281 44.2763 86.2125C46.0367 86.202 47.8127 86.5875 49.5315 86.9156C51.3856 87.2698 53.219 87.6968 55.0367 88.1812C55.594 88.327 55.8335 87.4625 55.2763 87.3166Z" fill="#F2F2F2"/>
<path d="M33.745 92.8896C31.5211 93.9678 29.3492 95.1501 27.2346 96.4313C26.7815 96.7074 27.1929 97.4105 27.6513 97.1396C29.7711 95.874 31.9534 94.7074 34.1825 93.6344C34.6825 93.3949 34.245 92.6501 33.745 92.8896Z" fill="#F2F2F2"/>
<path d="M33.4583 96.379C32.526 96.8113 31.6301 97.3113 30.7916 97.905C30.3854 98.1915 30.7551 98.8581 31.1874 98.5821C32.0572 98.0352 32.9531 97.5404 33.8801 97.1081C34.3749 96.879 33.9479 96.1498 33.4583 96.379Z" fill="#F2F2F2"/>
<path d="M46.245 92.5562C42.1513 94.3843 38.2086 96.5041 34.4378 98.9312C34.0003 99.2125 34.4065 99.9156 34.8492 99.6343C38.6409 97.2489 42.594 95.1343 46.6878 93.3166C47.2034 93.0875 46.7607 92.3271 46.245 92.5562Z" fill="#F2F2F2"/>
<path d="M41.7707 98.0716C40.6561 98.5872 39.5467 99.1393 38.5154 99.8112C38.0936 100.082 38.4634 100.723 38.9113 100.488C39.9998 99.9102 41.0779 99.3164 42.1925 98.7956C42.6873 98.5664 42.2602 97.8424 41.7707 98.0716Z" fill="#F2F2F2"/>
<path d="M52.1718 92.2592C49.4999 93.629 46.8801 95.0926 44.3124 96.6551C43.8645 96.9311 44.2707 97.6342 44.7291 97.3634C47.3124 95.8322 49.9374 94.3738 52.6093 93.0092C53.1093 92.754 52.6666 92.004 52.1718 92.2592Z" fill="#F2F2F2"/>
<path d="M59.4585 91.5558C54.0418 94.535 48.6981 97.6392 43.4481 100.9C43.0054 101.176 43.4064 101.868 43.8543 101.598C49.146 98.3996 54.4898 95.3058 59.9116 92.3267C60.4116 92.0506 59.9637 91.2798 59.4585 91.5558Z" fill="#F2F2F2"/>
<path d="M53.5261 97.994C51.0574 99.0721 48.6824 100.447 46.4011 101.874C45.9741 102.14 46.3543 102.801 46.7918 102.551C49.1355 101.187 51.547 99.968 53.9324 98.6867C54.4011 98.4367 53.9897 97.7909 53.5261 97.994Z" fill="#F2F2F2"/>
<path d="M64.5988 91.2597C61.453 92.9472 58.3696 94.744 55.3696 96.6815C54.9478 96.9576 55.3332 97.6294 55.7707 97.3586C58.8019 95.4784 61.8905 93.6919 65.0519 92.0305C65.5571 91.7649 65.1092 90.9888 64.5988 91.2597Z" fill="#F2F2F2"/>
<path d="M69.1196 91.7541C62.9894 95.551 56.703 99.0562 50.4477 102.634C50.0207 102.879 50.3957 103.515 50.8332 103.296C57.2446 100.03 63.453 96.3062 69.5675 92.5302C70.0571 92.2281 69.6092 91.452 69.1196 91.7541Z" fill="#F2F2F2"/>
<path d="M63.6093 98.5146C60.6093 100.145 57.6666 101.931 54.7603 103.723C54.3332 103.989 54.7187 104.65 55.1562 104.4C58.1301 102.712 61.1249 101.035 64.0468 99.2594C64.5207 98.9729 64.0989 98.249 63.6093 98.5146Z" fill="#F2F2F2"/>
<path d="M75.6982 93.4882C70.3076 97.0976 64.8492 100.629 59.542 104.358C59.1305 104.644 59.5055 105.311 59.9378 105.035C65.4065 101.551 70.7555 97.858 76.1461 94.2591C76.6253 93.9413 76.1774 93.1653 75.6982 93.4882Z" fill="#F2F2F2"/>
<path d="M350.042 169.072C350.042 169.072 330.271 186.369 331.167 188.619C332.068 190.864 372.505 201.197 375.88 200.077C379.25 198.952 392.953 177.833 392.052 175.812C391.156 173.791 350.042 169.072 350.042 169.072Z" fill="white"/>
<path d="M350.042 170.869C350.042 170.869 330.271 188.166 331.167 190.416C332.068 192.661 372.505 202.994 375.88 201.874C379.25 200.749 392.953 179.63 392.052 177.609C391.156 175.588 350.042 170.869 350.042 170.869Z" fill="white"/>
<path d="M351.839 170.869C351.839 170.869 332.068 188.166 332.969 190.416C333.865 192.661 374.307 202.994 377.677 201.874C381.047 200.749 394.75 179.63 393.854 177.609C392.953 175.588 351.839 170.869 351.839 170.869Z" fill="white"/>
<path d="M337.86 193.436C336.016 193.301 334.089 192.973 332.365 192.27C331.292 191.832 331.86 192.041 332.068 191.358C332.172 191.009 332.037 190.65 331.771 190.405C331.422 190.072 331.011 190.186 330.594 190.077C329.49 189.775 330.344 189.28 330.735 188.832C331.031 188.483 331.339 188.145 331.651 187.806C332.813 186.561 334.073 185.431 335.37 184.322C335.797 183.952 335.182 183.369 334.75 183.707C333.063 185.035 331.516 186.577 330.115 188.213C329.443 188.994 328.287 190.494 330.016 190.89C330.328 190.963 330.959 190.91 330.927 191.338C330.917 191.468 330.662 191.64 330.63 191.811C330.542 192.317 330.995 192.598 331.38 192.78C333.354 193.718 335.703 194.072 337.86 194.213C338.36 194.244 338.354 193.473 337.86 193.436Z" fill="#F2F2F2"/>
<mask id="mask2_75_544" style="mask-type:luminance" maskUnits="userSpaceOnUse" x="331" y="172" width="69" height="31">
<path d="M331.333 172.822H400V202.156H331.333V172.822Z" fill="white"/>
</mask>
<g mask="url(#mask2_75_544)">
<path d="M398.896 178.285C398.927 178.223 398.963 178.155 399 178.088C399.125 177.843 399.026 177.504 398.734 177.437C398.547 177.39 398.37 177.338 398.193 177.275C399.141 176.285 399.609 174.957 397.786 174.525C395.057 173.89 392.078 173.78 389.292 173.791C388.776 173.791 388.776 174.582 389.292 174.593C390.979 174.629 392.661 174.718 394.333 174.9C395.271 175.004 396.213 175.129 397.141 175.296C397.531 175.369 397.766 175.327 397.979 175.702C398.276 176.223 397.588 176.702 397.182 177.015C396.932 177.207 396.859 177.603 397.182 177.78C397.323 177.858 397.463 177.926 397.604 177.989C397.474 177.983 397.344 178.035 397.245 178.16C394.182 182.228 391.182 186.348 387.792 190.155C386.213 191.931 384.578 193.713 382.76 195.249C380.786 196.91 378.687 197.509 376.266 197.994C376.193 197.91 376.088 197.864 375.937 197.874C368.469 198.608 360.937 196.749 353.693 195.14C346.463 193.53 339.391 191.463 332.25 189.52C331.823 189.405 331.656 190.035 332.068 190.176C338.177 192.27 344.5 193.884 350.807 195.338C350.656 195.515 350.672 195.848 350.963 195.937C360.375 198.733 370.286 200.145 380.115 199.858C380.25 199.937 380.422 199.947 380.573 199.822C385.312 195.921 389.5 191.384 393.057 186.384C393.307 186.03 392.901 185.692 392.557 185.785C394.396 183.447 396.161 181.046 397.891 178.634C397.927 178.723 397.984 178.801 398.078 178.848C398.807 179.223 399.057 179.728 398.542 180.437C398.198 180.905 397.849 181.364 397.505 181.827C396.729 182.869 395.943 183.905 395.156 184.937C393.562 187.035 391.948 189.114 390.312 191.181C388.786 193.103 387.25 195.02 385.693 196.916C384.958 197.812 384.229 198.77 383.193 199.338C382.151 199.905 380.922 200.035 379.766 200.202C379.276 200.27 379.385 201.129 379.88 201.067C381.047 200.931 382.245 200.77 383.318 200.27C384.453 199.739 385.266 198.832 386.047 197.884C388.073 195.431 390.052 192.947 392.016 190.452C393.911 188.035 395.781 185.598 397.625 183.145C398.057 182.567 398.49 181.989 398.922 181.405C399.245 180.973 399.708 180.504 399.823 179.957C399.984 179.181 399.495 178.66 398.896 178.285ZM380.38 198.983C380.375 198.983 380.37 198.983 380.365 198.983C378.208 199.02 376.057 198.994 373.911 198.9C374.443 198.879 374.969 198.848 375.495 198.801C375.562 198.879 375.661 198.931 375.792 198.916C378.266 198.634 380.557 198.035 382.573 196.52C384.583 195.009 386.328 193.098 388.005 191.233C389.01 190.119 389.979 188.978 390.932 187.817C387.797 191.89 384.26 195.614 380.38 198.983Z" fill="#F2F2F2"/>
</g>
<path d="M393.662 176.441C389.917 180.915 385.995 185.233 381.932 189.426C381.547 189.827 382.156 190.441 382.552 190.04C386.63 185.868 390.526 181.519 394.245 177.025C394.583 176.618 394.005 176.035 393.662 176.441Z" fill="#F2F2F2"/>
<path d="M387.323 176.776C385.745 178.838 384.021 180.786 382.427 182.833C382.12 183.234 382.63 183.802 383.005 183.411C384.839 181.489 386.448 179.312 388.057 177.203C388.386 176.77 387.651 176.348 387.323 176.776Z" fill="#F2F2F2"/>
<path d="M364.276 174.338C360.844 179.187 357.265 183.926 353.531 188.541C353.182 188.973 353.792 189.588 354.14 189.155C357.906 184.473 361.521 179.666 364.953 174.734C365.245 174.317 364.562 173.926 364.276 174.338Z" fill="#F2F2F2"/>
<path d="M361.505 173.906C358.359 177.88 355.021 181.676 351.656 185.468C351.297 185.874 351.875 186.463 352.255 186.067C355.729 182.395 358.958 178.452 362.073 174.468C362.38 174.067 361.828 173.499 361.505 173.906Z" fill="#F2F2F2"/>
<path d="M356.291 172.243C351.474 178.113 346.432 183.759 341.021 189.082C340.614 189.478 341.239 190.103 341.64 189.702C347.031 184.379 352.166 178.759 356.849 172.801C357.156 172.41 356.614 171.848 356.291 172.243Z" fill="#F2F2F2"/>
<path d="M359.948 169.176C358.135 168.759 356.302 168.452 354.453 168.285C353.036 168.155 350.885 167.702 349.635 168.546C348.156 169.541 346.88 171.03 345.568 172.238C344.047 173.634 342.526 175.03 341.021 176.447C340.677 176.764 341.187 177.264 341.531 176.957C344.135 174.66 346.698 172.322 349.271 169.999C349.557 169.738 349.865 169.374 350.214 169.192C350.714 168.931 351.391 169.014 351.937 169.03C352.781 169.051 353.615 169.098 354.453 169.176C356.224 169.337 357.979 169.634 359.708 170.035C360.271 170.166 360.505 169.306 359.948 169.176Z" fill="#F2F2F2"/>
<path d="M351.312 171.765C347.364 175.832 343.291 179.801 339.427 183.947C339.078 184.322 339.619 184.869 339.994 184.509C344.088 180.598 347.953 176.41 351.854 172.306C352.192 171.952 351.656 171.416 351.312 171.765Z" fill="#F2F2F2"/>
</svg>
