<svg width="52" height="50" viewBox="0 0 52 50" fill="none" xmlns="http://www.w3.org/2000/svg">
<mask id="mask0_60_1844" style="mask-type:luminance" maskUnits="userSpaceOnUse" x="0" y="0" width="52" height="50">
<path d="M0 0H52V50H0V0Z" fill="white"/>
</mask>
<g mask="url(#mask0_60_1844)">
<path d="M52 25C52 25.4088 51.9898 25.8183 51.9688 26.2266C51.9478 26.6354 51.9167 27.043 51.8747 27.4505C51.8327 27.8574 51.7813 28.2637 51.7183 28.668C51.656 29.0729 51.5836 29.4759 51.5003 29.8769C51.4177 30.2786 51.3242 30.6777 51.2207 31.0742C51.1171 31.4713 51.004 31.8659 50.8808 32.2571C50.7569 32.6484 50.6235 33.0371 50.4799 33.4225C50.3371 33.8073 50.1834 34.1888 50.0209 34.567C49.8577 34.9453 49.6857 35.319 49.5036 35.6888C49.3214 36.0586 49.1305 36.4238 48.9301 36.7851C48.7297 37.1458 48.5198 37.5013 48.3011 37.8528C48.0824 38.2038 47.8549 38.5488 47.6179 38.8893C47.3816 39.2291 47.1372 39.5638 46.8833 39.8926C46.63 40.2213 46.368 40.5436 46.0985 40.86C45.8284 41.1758 45.5508 41.4857 45.265 41.789C44.9786 42.0918 44.6854 42.3887 44.3848 42.6777C44.0842 42.9668 43.7754 43.2487 43.4606 43.5241C43.1451 43.7988 42.8228 44.0657 42.4944 44.3255C42.1653 44.5846 41.8302 44.8366 41.4883 45.0801C41.1463 45.3242 40.7983 45.5592 40.4449 45.7864C40.0908 46.0143 39.7319 46.2331 39.367 46.4433C39.0013 46.6536 38.6316 46.8554 38.2565 47.0482C37.8808 47.2409 37.5009 47.4245 37.1163 47.5996C36.7318 47.7747 36.3431 47.9401 35.9497 48.097C35.5563 48.2532 35.1596 48.401 34.7594 48.5384C34.3586 48.6764 33.9544 48.8047 33.5474 48.9238C33.1405 49.0423 32.7302 49.151 32.3172 49.2506C31.9048 49.3502 31.4898 49.4401 31.072 49.5195C30.6549 49.5996 30.2358 49.6693 29.8147 49.7291C29.3942 49.7897 28.9717 49.8392 28.5485 49.8795C28.1247 49.9199 27.7008 49.9498 27.2756 49.97C26.8511 49.9902 26.4252 50 26 50C25.5748 50 25.1489 49.9902 24.7244 49.97C24.2992 49.9498 23.8753 49.9199 23.4514 49.8795C23.0283 49.8392 22.6058 49.7897 22.1853 49.7291C21.7642 49.6693 21.345 49.5996 20.928 49.5195C20.5102 49.4401 20.0951 49.3502 19.6828 49.2506C19.2698 49.151 18.8595 49.0423 18.4525 48.9238C18.0456 48.8047 17.6414 48.6764 17.2406 48.5384C16.8404 48.401 16.4436 48.2532 16.0503 48.097C15.6569 47.9401 15.2682 47.7747 14.8836 47.5996C14.4991 47.4245 14.1192 47.2409 13.7434 47.0482C13.3683 46.8554 12.998 46.6536 12.633 46.4433C12.2681 46.2331 11.9092 46.0143 11.5551 45.7864C11.2017 45.5592 10.8536 45.3242 10.5117 45.0801C10.1698 44.8366 9.83463 44.5846 9.50557 44.3255C9.17718 44.0657 8.85489 43.7988 8.53937 43.5241C8.22385 43.2487 7.91578 42.9668 7.61515 42.6777C7.31453 42.3887 7.02135 42.0918 6.73494 41.789C6.44922 41.4857 6.17161 41.1758 5.90146 40.86C5.63198 40.5436 5.36995 40.2213 5.11672 39.8926C4.86281 39.5638 4.61838 39.2291 4.38208 38.8893C4.1451 38.5488 3.9176 38.2038 3.6989 37.8528C3.48021 37.5013 3.27031 37.1458 3.06989 36.7851C2.86948 36.4238 2.67854 36.0586 2.49641 35.6888C2.31427 35.319 2.14229 34.9453 1.97911 34.567C1.81661 34.1888 1.66292 33.8073 1.52005 33.4225C1.37651 33.0371 1.24312 32.6484 1.11922 32.2571C0.995989 31.8659 0.882239 31.4713 0.779323 31.0742C0.675729 30.6777 0.582291 30.2786 0.499687 29.8769C0.416406 29.4759 0.343958 29.0729 0.281667 28.668C0.218698 28.2637 0.16724 27.8574 0.12526 27.4505C0.0832813 27.043 0.0521353 26.6354 0.0311458 26.2266C0.0101562 25.8183 0 25.4088 0 25C0 24.5911 0.0101562 24.1816 0.0311458 23.7734C0.0521353 23.3646 0.0832813 22.957 0.12526 22.5495C0.16724 22.1426 0.218698 21.7363 0.281667 21.332C0.343958 20.9271 0.416406 20.5241 0.499687 20.123C0.582291 19.7213 0.675729 19.3223 0.779323 18.9258C0.882239 18.5286 0.995989 18.1341 1.11922 17.7428C1.24312 17.3516 1.37651 16.9629 1.52005 16.5775C1.66292 16.1927 1.81661 15.8112 1.97911 15.4329C2.14229 15.0547 2.31427 14.681 2.49641 14.3112C2.67854 13.9414 2.86948 13.5762 3.06989 13.2148C3.27031 12.8542 3.48021 12.498 3.6989 12.1471C3.9176 11.7962 4.1451 11.4512 4.38208 11.1107C4.61838 10.7708 4.86281 10.4362 5.11672 10.1074C5.36995 9.77864 5.63198 9.45638 5.90146 9.13997C6.17161 8.82421 6.44922 8.51432 6.73494 8.21093C7.02135 7.90755 7.31453 7.61132 7.61515 7.32226C7.91578 7.0332 8.22385 6.7513 8.53937 6.47591C8.85489 6.20117 9.17718 5.93424 9.50557 5.67448C9.83463 5.41536 10.1698 5.16341 10.5117 4.91992C10.8536 4.67578 11.2017 4.44075 11.5551 4.21354C11.9092 3.98568 12.2681 3.76693 12.633 3.55664C12.998 3.34635 13.3683 3.14453 13.7434 2.95182C14.1192 2.75911 14.4991 2.57552 14.8836 2.40039C15.2682 2.22526 15.6569 2.0599 16.0503 1.90299C16.4436 1.74674 16.8404 1.59896 17.2406 1.46159C17.6414 1.32357 18.0456 1.19531 18.4525 1.07617C18.8595 0.957682 19.2698 0.848307 19.6828 0.749349C20.0951 0.649739 20.5102 0.559896 20.928 0.480469C21.345 0.400391 21.7642 0.330729 22.1853 0.270833C22.6058 0.210286 23.0283 0.160807 23.4514 0.120443C23.8753 0.0800782 24.2992 0.0501301 24.7244 0.0299479C25.1489 0.00976558 25.5748 0 26 0C26.4252 0 26.8511 0.00976558 27.2756 0.0299479C27.7008 0.0501301 28.1247 0.0800782 28.5485 0.120443C28.9717 0.160807 29.3942 0.210286 29.8147 0.270833C30.2358 0.330729 30.6549 0.400391 31.072 0.480469C31.4898 0.559896 31.9048 0.649739 32.3172 0.749349C32.7302 0.848307 33.1405 0.957682 33.5474 1.07617C33.9544 1.19531 34.3586 1.32357 34.7594 1.46159C35.1596 1.59896 35.5563 1.74674 35.9497 1.90299C36.3431 2.0599 36.7318 2.22526 37.1163 2.40039C37.5009 2.57552 37.8808 2.75911 38.2565 2.95182C38.6316 3.14453 39.0013 3.34635 39.367 3.55664C39.7319 3.76693 40.0908 3.98568 40.4449 4.21354C40.7983 4.44075 41.1463 4.67578 41.4883 4.91992C41.8302 5.16341 42.1653 5.41536 42.4944 5.67448C42.8228 5.93424 43.1451 6.20117 43.4606 6.47591C43.7754 6.7513 44.0842 7.0332 44.3848 7.32226C44.6854 7.61132 44.9786 7.90755 45.265 8.21093C45.5508 8.51432 45.8284 8.82421 46.0985 9.13997C46.368 9.45638 46.63 9.77864 46.8833 10.1074C47.1372 10.4362 47.3816 10.7708 47.6179 11.1107C47.8549 11.4512 48.0824 11.7962 48.3011 12.1471C48.5198 12.498 48.7297 12.8542 48.9301 13.2148C49.1305 13.5762 49.3214 13.9414 49.5036 14.3112C49.6857 14.681 49.8577 15.0547 50.0209 15.4329C50.1834 15.8112 50.3371 16.1927 50.4799 16.5775C50.6235 16.9629 50.7569 17.3516 50.8808 17.7428C51.004 18.1341 51.1171 18.5286 51.2207 18.9258C51.3242 19.3223 51.4177 19.7213 51.5003 20.123C51.5836 20.5241 51.656 20.9271 51.7183 21.332C51.7813 21.7363 51.8327 22.1426 51.8747 22.5495C51.9167 22.957 51.9478 23.3646 51.9688 23.7734C51.9898 24.1816 52 24.5911 52 25Z" fill="#00D4E3"/>
</g>
<mask id="mask1_60_1844" style="mask-type:luminance" maskUnits="userSpaceOnUse" x="10" y="6" width="42" height="44">
<path d="M10.833 6.41675H51.9997V50.0001H10.833V6.41675Z" fill="white"/>
</mask>
<g mask="url(#mask1_60_1844)">
<path fill-rule="evenodd" clip-rule="evenodd" d="M51.9204 26.9596L33.3284 9.04883C32.4062 8.0612 31.1238 7.35221 29.6843 6.92187C28.5888 6.59505 27.4046 6.43164 26.2251 6.43164C25.0463 6.43164 23.8621 6.59505 22.7666 6.92187C19.889 7.78125 17.6404 9.7539 17.6404 12.8424V17.1823H17.4521C17.2984 17.1823 17.1725 17.3034 17.1725 17.4518V22.7734C17.1725 22.9219 17.2984 23.043 17.4521 23.043H17.7534C17.7697 24.3698 18.2883 25.446 19.1198 26.2715C18.7061 27.778 17.8117 29.0501 17.1217 30.2246C17.8584 30.3346 18.5788 30.4375 19.2938 30.5306C17.6586 30.9935 15.4527 31.5293 14.3396 32.8542C13.393 33.9798 12.0138 40.4687 10.9711 45.4017C15.2151 48.2969 20.4008 49.9993 25.9996 49.9993C39.6733 49.9993 50.8804 39.8502 51.9204 26.9596Z" fill="#00BAC7"/>
</g>
<path fill-rule="evenodd" clip-rule="evenodd" d="M17.1212 30.2251C18.4631 27.94 20.5783 25.2876 18.4306 21.2551C14.1582 6.50117 29.8388 4.41133 32.0427 10.1913C35.6272 11.5611 35.5317 19.0988 33.688 23.0435C33.6061 24.6665 32.2871 26.0155 35.2975 30.2036C27.3207 31.4888 22.6685 31.0526 17.1212 30.2251Z" fill="#2A2F32"/>
<mask id="mask2_60_1844" style="mask-type:luminance" maskUnits="userSpaceOnUse" x="10" y="25" width="32" height="25">
<path d="M10.833 25.9167H41.1664V50.0001H10.833V25.9167Z" fill="white"/>
</mask>
<g mask="url(#mask2_60_1844)">
<path fill-rule="evenodd" clip-rule="evenodd" d="M23.6942 25.9714C23.5527 28.4792 22.6271 29.2611 21.3433 29.9207C20.6899 30.4753 16.0533 30.8132 14.3389 32.8542C12.7647 34.7292 11.5324 41.3529 10.9203 45.3679C12.3138 46.3236 13.8101 47.1492 15.3884 47.8288L16.1569 39.81C16.1569 39.81 16.6742 43.4649 17.163 43.9799C17.4393 44.2703 17.5104 45.9343 17.5212 47.5398L21.1741 49.5678C22.7374 49.8497 24.3503 49.9994 25.9983 49.9994C27.6619 49.9994 29.2882 49.8471 30.8652 49.5606L34.5038 47.5411C34.5146 45.935 34.4801 44.3829 34.862 43.9799C35.2445 43.5775 35.8681 39.81 35.8681 39.81L36.4998 47.8751C38.1052 47.1928 39.6259 46.3601 41.041 45.3933C40.582 41.5229 39.7058 35.1498 38.4309 33.0886C36.9582 30.7071 32.1313 30.4721 31.53 29.9903C30.2747 29.3152 29.3735 28.4871 29.2327 25.9721C29.2327 25.9721 27.3565 27.3718 26.1899 27.1563C25.024 26.9408 23.6935 25.9721 23.6935 25.9721L23.6942 25.9714Z" fill="#FCB072"/>
</g>
<mask id="mask3_60_1844" style="mask-type:luminance" maskUnits="userSpaceOnUse" x="10" y="28" width="32" height="22">
<path d="M10.833 28.5833H41.3397V49.9999H10.833V28.5833Z" fill="white"/>
</mask>
<g mask="url(#mask3_60_1844)">
<path fill-rule="evenodd" clip-rule="evenodd" d="M22.8875 28.7226C22.4847 29.2649 21.9552 29.606 21.3438 29.9198C20.6911 30.4745 16.0537 30.8131 14.34 32.8541C12.7651 34.7291 11.5511 41.3658 10.9411 45.3808C12.4097 46.386 13.9927 47.2467 15.6664 47.9446L16.158 39.8092C16.158 39.8092 16.8053 43.6008 17.1641 43.9791C17.4607 44.2916 17.4837 46.7942 17.4993 48.6301C20.1629 49.5162 23.0229 49.9986 26.0001 49.9986C28.988 49.9986 31.8568 49.5129 34.5286 48.621C34.5442 46.7857 34.5672 44.2909 34.8644 43.9791C35.2226 43.6008 35.8699 39.8092 35.8699 39.8092L36.4272 47.9049C38.1578 47.1757 39.7895 46.2707 41.2981 45.2135C40.7605 41.3769 39.6961 35.1282 38.4333 33.0872C36.96 30.7063 32.1331 30.4706 31.5325 29.9895C30.9949 29.6998 30.5223 29.3827 30.1465 28.9172L26.6738 35.3137L22.8889 28.7219L22.8875 28.7226Z" fill="#EDEDED"/>
</g>
<path fill-rule="evenodd" clip-rule="evenodd" d="M23.6317 26.7577C24.3148 27.149 25.4557 28.373 26.5221 28.3866C27.5858 28.401 29.0835 26.8886 29.2975 26.7773C29.2785 26.6347 29.263 26.4862 29.2508 26.3319L29.2332 26.345L29.2318 26.3456C29.1749 26.3892 27.3387 27.7675 26.1904 27.552C25.0596 27.3391 23.7739 26.4036 23.6973 26.3476L23.6764 26.3313C23.6635 26.4784 23.6493 26.621 23.6317 26.7571V26.7577Z" fill="#F2AD74"/>
<path fill-rule="evenodd" clip-rule="evenodd" d="M20.6717 21.9602C21.8296 24.3437 22.2575 25.274 23.6956 26.345C23.6956 26.345 25.0254 27.3326 26.192 27.552C27.3586 27.772 29.2348 26.345 29.2348 26.345C30.6723 25.274 31.1002 24.3437 32.258 21.9602C32.5417 22.1047 32.8383 22.302 33.0685 22.0487C33.2987 21.7942 34.3949 18.4973 34.1978 18.0527C34.0008 17.6073 33.6054 17.9211 33.514 18.093C33.4585 18.1718 33.4043 18.5103 33.3237 18.5084C33.2553 18.5064 33.2201 18.3619 33.1016 18.0403C32.7705 17.136 32.0819 16.2043 31.8192 13.1672C26.5725 18.1718 21.6725 15.8749 19.9649 16.2102C19.5207 16.2974 19.4794 17.3391 19.5166 17.9511C19.5214 18.0201 19.6385 18.2987 19.5952 18.3274C19.541 18.3241 19.3596 18.0553 19.3332 18.039C17.6323 16.9791 19.8152 21.998 19.8613 22.0487C20.0915 22.3026 20.388 22.1054 20.6717 21.9602Z" fill="#FFBC86"/>
<mask id="mask4_60_1844" style="mask-type:luminance" maskUnits="userSpaceOnUse" x="15" y="35" width="22" height="15">
<path d="M15.8604 35.9167H36.1404V50.0001H15.8604V35.9167Z" fill="white"/>
</mask>
<g mask="url(#mask4_60_1844)">
<path fill-rule="evenodd" clip-rule="evenodd" d="M17.372 48.5878C17.3443 46.8059 17.3131 44.3716 17.2772 44.1744C15.9969 42.8306 16.0192 39.8098 16.0192 39.8098C16.0192 39.8098 17.4885 38.175 18.6192 36.1067C20.4433 35.9068 26.0136 36.0741 26.0136 36.0741C26.0136 36.0741 31.5833 35.9068 33.4081 36.1067C33.8272 37.4745 36.0081 39.8098 36.0081 39.8098C36.0602 40.2597 35.6309 43.6373 34.8123 44.0468C34.769 44.1939 34.7277 46.7095 34.6898 48.5663C31.972 49.4934 29.0477 49.9992 25.9994 49.9992C22.9749 49.9992 20.0716 49.5012 17.3714 48.5878H17.372Z" fill="#F06D64"/>
</g>
<path fill-rule="evenodd" clip-rule="evenodd" d="M20.9394 30.0652L20.2657 38.9005C20.2447 39.1778 19.8865 39.5391 18.9501 39.5053C18.0137 39.4721 18.1498 38.7169 18.1498 38.7169L19.0341 30.6049L20.9394 30.0652Z" fill="#FF8170"/>
<path fill-rule="evenodd" clip-rule="evenodd" d="M32.251 30.2058L32.2049 38.8009C32.2036 39.0789 32.5929 39.5209 33.5293 39.4877C34.4657 39.4545 34.503 38.6505 34.503 38.6505L34.1996 30.7039L32.251 30.2058Z" fill="#FF8170"/>
<path fill-rule="evenodd" clip-rule="evenodd" d="M19.1722 37.8542C19.4978 37.8542 19.7626 38.1082 19.7626 38.4213C19.7626 38.7345 19.4978 38.989 19.1722 38.989C18.8465 38.989 18.5824 38.7345 18.5824 38.4213C18.5824 38.1082 18.8465 37.8542 19.1722 37.8542Z" fill="#FFE45E"/>
<path fill-rule="evenodd" clip-rule="evenodd" d="M33.3366 37.8542C33.6623 37.8542 33.9271 38.1082 33.9271 38.4213C33.9271 38.7345 33.6623 38.989 33.3366 38.989C33.011 38.989 32.7469 38.7345 32.7469 38.4213C32.7469 38.1082 33.011 37.8542 33.3366 37.8542Z" fill="#FFE45E"/>
<path fill-rule="evenodd" clip-rule="evenodd" d="M22.8657 28.6687L25.0622 32.5098C25.0622 32.5098 22.8962 32.3028 22.4798 33.0365C22.0633 33.7709 21.0917 34.6381 21.0917 34.6381L22.3457 29.2885L22.8657 28.6687Z" fill="white"/>
<path fill-rule="evenodd" clip-rule="evenodd" d="M30.2057 28.7727L28.1792 32.5383C28.1792 32.5383 30.2734 32.2896 30.6898 33.0234C31.1062 33.7577 32.0223 34.3847 32.0223 34.3847L30.8429 29.289L30.2057 28.7727Z" fill="white"/>
<path d="M34.8103 12.8424V18.763H33.6701V12.8424C33.6701 10.2611 31.7634 8.60417 29.3225 7.87565C28.3503 7.58529 27.2893 7.4401 26.2249 7.4401C25.1598 7.4401 24.0989 7.58594 23.1266 7.87565C20.6864 8.60417 18.7797 10.2611 18.7797 12.8424V18.763H17.6395V12.8424C17.6395 9.7539 19.8881 7.78125 22.7657 6.92187C23.8612 6.59505 25.0454 6.43164 26.2249 6.43164C27.4037 6.43164 28.5879 6.59505 29.6834 6.92187C32.561 7.78125 34.8096 9.7539 34.8096 12.8424H34.8103Z" fill="white"/>
<path fill-rule="evenodd" clip-rule="evenodd" d="M18.4451 17.4844H18.9895C19.0504 17.4844 19.1107 17.4902 19.1703 17.502C19.2298 17.513 19.2874 17.5299 19.3436 17.5527C19.3998 17.5749 19.4533 17.6022 19.5041 17.6348C19.5542 17.6673 19.6009 17.7044 19.6442 17.7454C19.6869 17.7865 19.7255 17.832 19.7593 17.8802C19.7932 17.929 19.8216 17.9805 19.8446 18.0345C19.8683 18.0885 19.8859 18.1439 19.8974 18.2012C19.9096 18.2585 19.9151 18.3164 19.9151 18.375V21.8516C19.9151 21.9095 19.9096 21.9674 19.8974 22.0247C19.8859 22.082 19.8683 22.138 19.8446 22.1921C19.8216 22.2461 19.7932 22.2975 19.7593 22.3457C19.7255 22.3945 19.6869 22.4395 19.6442 22.4811C19.6009 22.5221 19.5542 22.5592 19.5041 22.5918C19.4533 22.6243 19.3998 22.6517 19.3436 22.6738C19.2874 22.696 19.2298 22.7129 19.1703 22.7246C19.1107 22.7357 19.0504 22.7415 18.9895 22.7415H18.4451C18.3842 22.7415 18.3239 22.7357 18.2643 22.7246C18.2047 22.7129 18.1472 22.696 18.091 22.6738C18.0348 22.6517 17.9813 22.6243 17.9305 22.5918C17.8804 22.5592 17.8337 22.5221 17.7904 22.4811C17.7477 22.4395 17.7091 22.3945 17.6753 22.3457C17.6414 22.2975 17.613 22.2461 17.5899 22.1921C17.5662 22.138 17.5486 22.082 17.5371 22.0247C17.5249 21.9674 17.5195 21.9095 17.5195 21.8516V18.375C17.5195 18.3164 17.5249 18.2585 17.5371 18.2012C17.5486 18.1439 17.5662 18.0885 17.5899 18.0345C17.613 17.9805 17.6414 17.929 17.6753 17.8802C17.7091 17.832 17.7477 17.7865 17.7904 17.7454C17.8337 17.7044 17.8804 17.6673 17.9305 17.6348C17.9813 17.6022 18.0348 17.5749 18.091 17.5527C18.1472 17.5299 18.2047 17.513 18.2643 17.502C18.3239 17.4902 18.3842 17.4844 18.4451 17.4844Z" fill="#747474"/>
<path fill-rule="evenodd" clip-rule="evenodd" d="M17.4514 17.1829H18.5747C18.6119 17.1829 18.6471 17.1894 18.6816 17.203C18.7162 17.2167 18.7466 17.2362 18.773 17.2616C18.7988 17.287 18.8191 17.3163 18.8333 17.3495C18.8475 17.3821 18.855 17.4166 18.855 17.4524V22.774C18.855 22.8098 18.8475 22.8443 18.8333 22.8775C18.8191 22.9101 18.7988 22.9394 18.773 22.9648C18.7466 22.9902 18.7162 23.0097 18.6816 23.0234C18.6471 23.037 18.6119 23.0435 18.5747 23.0435H17.4514C17.4141 23.0435 17.3783 23.037 17.3444 23.0234C17.3099 23.0097 17.2794 22.9902 17.253 22.9648C17.2266 22.9394 17.2063 22.9101 17.1921 22.8775C17.1778 22.8443 17.1711 22.8098 17.1711 22.774V17.4524C17.1711 17.4166 17.1778 17.3821 17.1921 17.3495C17.2063 17.3163 17.2266 17.287 17.253 17.2616C17.2794 17.2362 17.3099 17.2167 17.3444 17.203C17.3783 17.1894 17.4141 17.1829 17.4514 17.1829Z" fill="#FFE45E"/>
<path fill-rule="evenodd" clip-rule="evenodd" d="M33.5129 17.4844H34.0573C34.1182 17.4844 34.1778 17.4902 34.2381 17.502C34.2977 17.513 34.3552 17.5299 34.4114 17.5527C34.4676 17.5749 34.5211 17.6022 34.5712 17.6348C34.622 17.6673 34.6687 17.7044 34.712 17.7454C34.7547 17.7865 34.7933 17.832 34.8271 17.8802C34.861 17.929 34.8894 17.9805 34.9125 18.0345C34.9355 18.0885 34.9531 18.1439 34.9653 18.2012C34.9768 18.2585 34.9829 18.3164 34.9829 18.375V21.8516C34.9829 21.9095 34.9768 21.9674 34.9653 22.0247C34.9531 22.082 34.9355 22.138 34.9125 22.1921C34.8894 22.2461 34.861 22.2975 34.8271 22.3457C34.7933 22.3945 34.7547 22.4395 34.712 22.4811C34.6687 22.5221 34.622 22.5592 34.5712 22.5918C34.5211 22.6243 34.4676 22.6517 34.4114 22.6738C34.3552 22.696 34.2977 22.7129 34.2381 22.7246C34.1778 22.7357 34.1182 22.7415 34.0573 22.7415H33.5129C33.452 22.7415 33.3917 22.7357 33.3321 22.7246C33.2726 22.7129 33.215 22.696 33.1588 22.6738C33.1026 22.6517 33.0491 22.6243 32.9983 22.5918C32.9476 22.5592 32.9008 22.5221 32.8582 22.4811C32.8148 22.4395 32.7769 22.3945 32.7431 22.3457C32.7092 22.2975 32.6808 22.2461 32.6571 22.1921C32.6341 22.138 32.6165 22.082 32.605 22.0247C32.5928 21.9674 32.5867 21.9095 32.5867 21.8516V18.375C32.5867 18.3164 32.5928 18.2585 32.605 18.2012C32.6165 18.1439 32.6341 18.0885 32.6571 18.0345C32.6808 17.9805 32.7092 17.929 32.7431 17.8802C32.7769 17.832 32.8148 17.7865 32.8582 17.7454C32.9008 17.7044 32.9476 17.6673 32.9983 17.6348C33.0491 17.6022 33.1026 17.5749 33.1588 17.5527C33.215 17.5299 33.2726 17.513 33.3321 17.502C33.3917 17.4902 33.452 17.4844 33.5129 17.4844Z" fill="#747474"/>
<path fill-rule="evenodd" clip-rule="evenodd" d="M33.9264 17.1829H35.0497C35.0869 17.1829 35.1221 17.1894 35.1567 17.203C35.1912 17.2167 35.2217 17.2362 35.2481 17.2616C35.2738 17.287 35.2941 17.3163 35.3083 17.3495C35.3225 17.3821 35.33 17.4166 35.33 17.4524V22.774C35.33 22.8098 35.3225 22.8443 35.3083 22.8775C35.2941 22.9101 35.2738 22.9394 35.2481 22.9648C35.2217 22.9902 35.1912 23.0097 35.1567 23.0234C35.1221 23.037 35.0869 23.0435 35.0497 23.0435H33.9264C33.8892 23.0435 33.8533 23.037 33.8194 23.0234C33.7849 23.0097 33.7544 22.9902 33.728 22.9648C33.7016 22.9394 33.6813 22.9101 33.6671 22.8775C33.6529 22.8443 33.6461 22.8098 33.6461 22.774V17.4524C33.6461 17.4166 33.6529 17.3821 33.6671 17.3495C33.6813 17.3163 33.7016 17.287 33.728 17.2616C33.7544 17.2362 33.7849 17.2167 33.8194 17.203C33.8533 17.1894 33.8892 17.1829 33.9264 17.1829Z" fill="#FFE45E"/>
<path d="M24.7187 27.4707C23.8913 27.4557 23.0721 27.3353 22.3164 27.11C20.2866 26.5039 18.7001 25.125 18.7001 22.9772V22.0235C18.7144 21.6797 17.8836 21.4922 17.7516 22.0235V22.9772C17.7516 25.5469 19.6223 27.1882 22.0165 27.903C22.8737 28.1582 23.7959 28.2943 24.7187 28.3099V27.4701V27.4707Z" fill="white"/>
<path fill-rule="evenodd" clip-rule="evenodd" d="M24.758 26.5371H27.0703C27.3492 26.5371 27.5774 26.7559 27.5774 27.0241V28.5234C27.5774 28.7917 27.3492 29.0104 27.0703 29.0104H24.758C24.4791 29.0104 24.2516 28.7917 24.2516 28.5234V27.0241C24.2516 26.7559 24.4791 26.5371 24.758 26.5371Z" fill="#606060"/>
<path fill-rule="evenodd" clip-rule="evenodd" d="M24.368 26.9089H27.4603C27.5246 26.9089 27.5774 26.9591 27.5774 27.0216V28.5007C27.5774 28.5626 27.5253 28.6134 27.4603 28.6134H24.368C24.3044 28.6134 24.2516 28.5626 24.2516 28.5007V27.0216C24.2516 26.9597 24.3037 26.9089 24.368 26.9089Z" fill="#747474"/>
</svg>
