<svg width="57" height="57" viewBox="0 0 57 57" fill="none" xmlns="http://www.w3.org/2000/svg">
<mask id="mask0_19_1396" style="mask-type:luminance" maskUnits="userSpaceOnUse" x="0" y="0" width="57" height="57">
<path d="M0 0H57V57H0V0Z" fill="white"/>
</mask>
<g mask="url(#mask0_19_1396)">
<path d="M56.9985 28.4985C56.9985 44.2388 44.2373 56.9985 28.4985 56.9985C12.7582 56.9985 -0.00151825 44.2388 -0.00151825 28.4985C-0.00151825 12.7582 12.7582 -0.00146484 28.4985 -0.00146484C44.2373 -0.00146484 56.9985 12.7582 56.9985 28.4985Z" fill="#54A5E0"/>
</g>
<mask id="mask1_19_1396" style="mask-type:luminance" maskUnits="userSpaceOnUse" x="0" y="0" width="42" height="57">
<path d="M0.570038 0H41.61V57H0.570038V0Z" fill="white"/>
</mask>
<g mask="url(#mask1_19_1396)">
<path d="M31.2327 35.5167C31.0293 35.4662 30.8289 35.4098 30.633 35.3311C30.201 35.1574 29.778 34.966 29.3653 34.7522C28.6202 34.3692 27.9047 33.9224 27.2531 33.394C26.9369 33.1342 26.6237 32.8581 26.3491 32.5524C26.1235 32.3 25.9928 32.0002 25.7583 31.7478C25.5297 31.4985 25.2818 31.3916 25.0369 31.1793C24.7949 30.97 24.6109 30.6954 24.3214 30.547C24.026 30.3956 23.6713 30.2902 23.3625 30.161C22.9899 30.0067 22.6975 29.8181 22.3517 29.6148C21.9331 29.3669 21.5546 29.3996 21.0899 29.355C20.4769 29.2942 20.4324 28.7821 19.9514 28.5431C19.3295 28.2343 18.6422 28.0443 18.0232 27.7222C17.4413 27.4194 16.9278 26.8865 16.5581 26.3521C16.2598 25.9187 16.0921 25.4407 15.951 24.9405C15.862 24.6228 15.6556 24.3289 15.5903 24.0128C15.5057 23.6075 15.6764 23.1845 15.6096 22.7748C15.4998 22.0875 14.906 21.7046 14.3078 21.4656C13.821 21.2711 12.8917 21.1405 13.15 20.4221C13.4974 19.4513 16.2524 19.5478 16.0327 18.7121C15.7195 17.5231 13.9694 18.5399 13.3994 18.8011C12.5296 19.1974 11.1713 20.2202 10.2599 19.4231C9.29064 18.577 9.83986 17.4281 10.7557 16.8521C11.3554 16.4766 12.1807 15.9719 12.9096 15.9452C13.8996 15.9081 14.9179 16.7334 15.7878 17.1119C16.4082 17.3806 17.9342 18.0827 18.4849 17.3316C18.7936 16.91 18.5606 16.1663 18.7179 15.6721C19.2612 13.9724 20.9549 13.8507 22.1795 12.9096C23.3343 12.022 24.2621 10.4574 25.7375 11.7177C25.4763 12.6038 25.2343 13.3891 26.266 13.8834C26.6237 14.0541 27.2041 14.2278 27.5158 13.8923C27.7414 13.6474 27.7444 13.205 27.97 12.926C28.5445 12.212 29.2095 12.0353 28.1912 11.3317C27.5217 10.8716 27.0675 10.5732 26.882 9.75978C26.5688 8.37932 25.0636 7.46346 23.6891 7.72768C23.2111 7.81971 22.7628 7.81822 22.2863 7.71283C21.988 7.64752 21.6095 7.42635 21.2992 7.46791C20.9742 7.51244 20.6743 7.85385 20.3908 8.00377C19.9039 8.26205 19.3696 8.39564 18.8218 8.44166C18.5324 8.46689 18.1375 8.37783 17.9163 8.59752C17.7219 8.789 17.6818 9.28479 17.5467 9.52971C17.0539 10.4218 15.4627 10.7647 15.1465 9.53713C14.8318 8.32143 16.432 7.01369 17.1846 6.319C18.0514 5.51744 19.3859 4.419 20.5853 4.18447C22.7732 3.75697 22.1023 6.0815 23.5881 6.39025C24.3288 6.54463 24.8291 5.84697 25.2759 5.38385C25.4896 5.16268 25.7286 4.87768 26.0433 4.80049C26.5094 4.68619 26.8211 5.22947 27.308 5.09885C27.734 4.98603 28.0591 4.53775 28.4435 4.33588C28.8785 4.10729 29.3371 3.9158 29.8196 3.80893C30.6805 3.61744 31.6513 3.68572 32.3964 4.19783C32.4217 4.21564 32.4454 4.23494 32.4692 4.25275C32.5731 4.28244 32.671 4.31955 32.7438 4.37299C33.1787 4.70252 33.3999 5.17307 33.6121 5.66885C33.7932 6.08893 33.811 6.48525 33.6106 6.90236C33.3449 7.45455 33.529 8.22494 33.0258 8.64205C32.7423 8.87807 32.3638 8.90479 32.1114 9.20908C31.9021 9.45846 31.7478 9.75088 31.531 9.99283C31.0842 10.4886 31.0041 10.8879 30.9313 11.5321C30.8883 11.9047 30.6998 12.2461 30.6998 12.6276C30.7013 13.2525 30.6627 13.8522 31.1228 14.3421C31.3069 14.538 31.4761 14.7339 31.626 14.9581C31.9392 15.4242 32.245 15.7522 32.8046 15.9244C33.0703 16.006 33.3182 16.0936 33.5542 16.2435C34.1346 16.6146 34.5458 16.7928 35.2479 16.4914C35.4082 16.4217 35.5745 16.3371 35.7511 16.3192C36.2098 16.2732 36.8896 16.4187 37.2355 16.0224C37.5472 15.6691 37.6051 15.3113 37.7847 14.9002C38.0103 14.3896 38.1528 14.06 38.328 13.4989C38.3888 13.3015 38.4245 13.1026 38.5892 12.9601C38.7659 12.8087 39.0182 12.7033 39.2676 12.5935C39.5452 12.1912 39.8777 11.8142 40.3126 11.4653C40.4803 11.1046 40.6436 10.787 40.9628 10.4352C41.5283 9.81025 41.8178 8.42236 41.3517 7.73955C40.9702 7.18291 40.9049 6.50307 40.6659 5.87963C40.5917 5.72971 40.5249 5.57682 40.4625 5.42096C40.32 5.09143 40.222 4.7426 40.1478 4.38783C39.9489 3.59518 39.7263 2.80103 39.232 2.13455C39.2171 2.11377 39.1993 2.09299 39.183 2.07221C35.8832 0.73627 32.2777 -0.00146484 28.4985 -0.00146484C15.1421 -0.00146484 3.93502 9.18682 0.844551 21.5873C0.887598 22.5967 1.05682 23.5333 1.40268 24.2488C1.70252 24.8678 2.33338 25.1631 2.6733 25.7168C2.96275 26.1844 2.90189 26.79 3.14533 27.1938C3.92611 28.4926 5.26947 28.0428 5.22643 26.416C5.19525 25.2507 3.03994 20.3864 5.86025 20.4606C7.36393 20.4992 7.06111 22.2775 7.3758 23.2082C7.99033 25.0281 8.44158 24.1567 9.75525 23.9118C10.493 23.7738 12.5088 23.4368 13.0906 23.7174C14.2128 24.2562 14.6745 25.7109 14.9639 26.8316C15.194 27.7281 15.2727 28.506 14.9164 29.361C14.7116 29.8538 14.5246 30.3377 14.3731 30.8498C14.1817 31.5014 13.8967 31.8324 13.4335 32.2941C12.5874 33.1402 11.9462 34.2371 10.8908 34.8457C10.5761 35.0268 10.0106 35.3905 9.90666 35.766C9.7508 36.3301 10.1679 37.0441 10.4707 37.479C10.8745 38.0579 10.9487 38.8446 11.4712 39.3241C12.0011 39.811 12.58 40.3275 12.8591 41.0074C13.1574 41.7377 13.1856 42.5704 13.3801 43.3304C13.4974 43.7891 13.6517 44.2374 13.9056 44.6411C14.771 46.0171 16.5314 46.1893 17.566 47.3649C18.424 48.3417 18.6823 49.5277 19.6575 50.4688C20.756 51.5301 21.3972 52.4578 22.1409 53.8012C22.1513 53.8205 22.1602 53.8413 22.1691 53.8591C22.319 54.012 22.4689 54.1634 22.5832 54.3489C22.8356 54.7586 22.9484 55.2678 23.2363 55.6537C23.6846 56.2519 24.2977 56.3291 24.9241 56.6126C25.0918 56.6883 25.2596 56.7596 25.4288 56.8293C25.8889 56.8783 26.3521 56.9199 26.8181 56.9481C26.6133 56.7046 26.3728 56.4627 26.1977 56.2074C25.6113 55.3494 25.1646 54.3445 24.9656 53.3247C24.7935 52.4415 24.7846 51.4588 25.028 50.5875C25.2937 49.642 26.0136 48.9117 26.7677 48.3224C27.4906 47.7583 28.3946 47.457 29.0358 46.792C29.4499 46.3645 29.7661 45.8494 30.0526 45.3313C30.3317 44.8281 30.538 44.2299 30.866 43.7594C31.3292 43.0959 31.9081 42.517 32.5181 41.9885C32.9234 41.6367 33.388 41.325 33.6789 40.8649C34.4597 39.6343 34.4122 37.8931 33.5067 36.7502C33.1505 36.2974 32.6888 35.9471 32.1426 35.7571C31.8442 35.6532 31.5355 35.5909 31.2327 35.5167Z" fill="#7DCD56"/>
</g>
<mask id="mask2_19_1396" style="mask-type:luminance" maskUnits="userSpaceOnUse" x="39" y="17" width="18" height="33">
<path d="M39.3299 17.6699H56.9999V49.2099H39.3299V17.6699Z" fill="white"/>
</mask>
<g mask="url(#mask2_19_1396)">
<path d="M56.2179 21.853C55.8275 21.5324 55.7577 21.0871 55.3911 20.759C55.0185 20.4235 54.5762 20.1742 54.2704 19.766C53.8637 19.2212 53.3293 18.9035 52.8973 18.3929C52.1165 17.4696 50.6262 17.7428 49.5397 17.7784C48.7752 17.8036 47.9796 17.8214 47.2626 18.1183C46.7104 18.3469 46.2265 18.7195 45.7233 19.0371C45.3047 19.3028 44.8194 19.527 44.4557 19.8684C44.2508 20.0614 44.1158 20.3137 43.9065 20.5037C43.614 20.7679 43.234 20.9 42.906 21.1093C42.5824 21.3171 42.339 21.5888 42.0718 21.8604C41.432 22.5106 40.8204 22.9945 40.3232 23.7753C40.0501 24.2043 39.6626 24.5783 39.4845 25.0637C39.1342 26.0167 39.5157 27.173 39.8215 28.0829C40.2148 29.2511 40.6958 30.8364 41.5552 31.7642C42.0079 32.2525 42.3494 31.8725 42.8733 31.7167C44.1083 31.3471 45.3775 31.9542 46.1508 32.9131C46.5932 33.4623 46.5665 33.8497 46.654 34.4999C46.7461 35.1842 47.273 35.8017 47.0934 36.5275C46.9925 36.9328 46.7921 37.1955 46.8574 37.6364C46.9672 38.3637 47.3562 39.0243 47.466 39.7546C47.5654 40.4047 47.4422 40.9569 47.0177 41.4616C46.7283 41.8045 46.3883 42.085 46.2577 42.5333C46.038 43.2844 46.6659 44.0904 46.3854 44.7821C46.1642 45.3314 45.376 45.3789 45.2216 45.9711C45.1519 46.2398 45.284 46.5085 45.2676 46.7757C45.2483 47.074 45.1014 47.1794 44.9485 47.4125C44.6709 47.8355 45.2632 48.5658 45.569 48.7647C46.231 49.1937 47.1394 49.2397 47.8742 48.9948C49.559 48.4322 50.6604 46.4253 51.6519 45.076C52.8023 43.51 53.7404 41.8668 54.5287 40.09C56.1481 36.4355 56.9987 32.5004 56.9987 28.4985C56.9987 26.2096 56.727 23.986 56.2179 21.853Z" fill="#7DCD56"/>
</g>
<path d="M46.3837 9.51942C46.4119 11.225 45.8389 12.5936 44.5386 13.6772C43.8172 14.2768 42.6015 14.7133 43.1685 15.9735C43.6836 17.1224 44.6113 16.6429 45.5079 16.3401C47.0739 15.8117 48.677 15.0131 50.1376 14.3511C50.9926 13.9636 51.2628 12.7836 51.7289 11.985C50.2386 9.89349 48.4722 8.0113 46.4831 6.39185C46.4416 7.41755 46.3658 8.42841 46.3837 9.51942Z" fill="#7DCD56"/>
</svg>
