<svg width="83" height="58" viewBox="0 0 83 58" fill="none" xmlns="http://www.w3.org/2000/svg">
<path d="M81.0054 46.4879H74.9944C73.8921 46.4879 72.9999 45.5942 72.9999 44.4933C72.9999 43.3924 73.8921 42.4988 74.9944 42.4988H81.0054C82.1063 42.4988 83 43.3924 83 44.4933C83 45.5942 82.1063 46.4879 81.0054 46.4879Z" fill="#34273F"/>
<path d="M71.7033 49.8237H23.939V48.6335H71.7033V49.8237Z" fill="#34273F"/>
<path d="M49.4393 41.323C44.0658 41.323 42.5145 44.8617 42.5145 49.2278C42.5145 53.594 44.0658 57.1341 49.4393 57.1341C54.8287 57.1341 56.3641 53.594 56.3641 49.2278C56.3641 44.8617 54.8992 41.323 49.4393 41.323Z" fill="#34273F"/>
<path d="M21.7027 41.323C16.3292 41.323 14.7778 44.8617 14.7778 49.2278C14.7778 53.594 16.3292 57.1341 21.7027 57.1341C27.092 57.1341 28.6275 53.594 28.6275 49.2278C28.6275 44.8617 27.1625 41.323 21.7027 41.323Z" fill="#34273F"/>
<path d="M14.7778 39.9329H64.9756V46.4878H14.7778V39.9329Z" fill="#34273F"/>
<path d="M79.6167 46.4879H66.1225L66.6305 37.5771H77.7359L79.6167 46.4879Z" fill="#34273F"/>
<path d="M40.5085 49.2278C40.5085 45.7899 41.9332 43.0038 44.584 43.0038C47.4535 43.0038 48.9559 45.7899 48.9559 49.2278C48.9559 52.6658 47.4233 55.4533 44.584 55.4533C41.9332 55.4533 40.5085 52.6658 40.5085 49.2278ZM35.5711 49.2278C35.5711 53.594 37.1224 57.1341 42.4959 57.1341C47.8852 57.1341 49.4207 53.594 49.4207 49.2278C49.4207 44.8617 47.9543 41.323 42.4959 41.323C37.1224 41.323 35.5711 44.8617 35.5711 49.2278Z" fill="#2A2E38"/>
<path d="M40.5085 49.2279C40.5085 52.6658 41.9332 55.4533 44.5839 55.4533C47.4247 55.4533 48.9558 52.6658 48.9558 49.2279C48.9558 45.79 47.4534 43.0039 44.5839 43.0039C41.9332 43.0039 40.5085 45.79 40.5085 49.2279Z" fill="#444A4F"/>
<path d="M42.5664 51.4021C42.3318 50.9675 42.1735 50.1573 42.1735 49.2277C42.1735 48.2981 42.3318 47.4893 42.5664 47.0533C42.8498 46.3812 43.26 45.9553 43.719 45.9553C44.5739 45.9553 45.2661 47.4202 45.2661 49.2277C45.2661 51.0352 44.5739 52.5016 43.719 52.5016C43.26 52.5016 42.8498 52.0756 42.5664 51.4021ZM41.7216 49.2277C41.7216 51.3777 42.6282 53.119 43.7464 53.119C45.2661 53.119 45.8964 51.3777 45.8964 49.2277C45.8964 47.0792 45.2661 45.3379 43.7464 45.3379C42.6282 45.3379 41.7216 47.0792 41.7216 49.2277Z" fill="#717A7F"/>
<path d="M42.9592 51.7418C43.3938 51.7418 43.7463 50.6165 43.7463 49.2278C43.7463 47.8391 43.3938 46.7137 42.9592 46.7137C42.8167 46.7137 42.6829 46.8389 42.5663 47.0533C42.8498 46.3813 43.2599 45.9553 43.719 45.9553C44.5738 45.9553 45.266 47.4203 45.266 49.2278C45.266 51.0353 44.5738 52.5017 43.719 52.5017C43.2599 52.5017 42.8498 52.0757 42.5663 51.4022C42.6829 51.6181 42.8167 51.7418 42.9592 51.7418Z" fill="#2A2E38"/>
<path d="M44.0989 49.4321C44.0989 50.8453 43.6096 52.2584 43.1362 52.2584C42.6627 52.2584 42.1734 50.6409 42.1734 49.2277C42.1734 47.8146 42.6627 46.1985 43.1362 46.1985C43.6096 46.1985 44.0989 48.0189 44.0989 49.4321Z" fill="#717A7F"/>
<path d="M40.5085 49.2278C40.5085 45.7899 41.9332 43.0038 44.584 43.0038C47.4535 43.0038 48.9559 45.7899 48.9559 49.2278C48.9559 52.6658 47.4233 55.4533 44.584 55.4533C41.9332 55.4533 40.5085 52.6658 40.5085 49.2278ZM35.5711 49.2278C35.5711 53.594 37.1224 57.1341 42.4959 57.1341C47.8852 57.1341 49.4207 53.594 49.4207 49.2278C49.4207 44.8617 47.9543 41.323 42.4959 41.323C37.1224 41.323 35.5711 44.8617 35.5711 49.2278Z" fill="#34273F"/>
<path d="M40.5085 49.2279C40.5085 52.6658 41.9332 55.4533 44.5839 55.4533C47.4247 55.4533 48.9558 52.6658 48.9558 49.2279C48.9558 45.79 47.4534 43.0039 44.5839 43.0039C41.9332 43.0039 40.5085 45.79 40.5085 49.2279Z" fill="#56556D"/>
<path d="M42.5664 51.4021C42.3318 50.9675 42.1735 50.1573 42.1735 49.2277C42.1735 48.2981 42.3318 47.4893 42.5664 47.0533C42.8498 46.3812 43.26 45.9553 43.719 45.9553C44.5739 45.9553 45.2661 47.4202 45.2661 49.2277C45.2661 51.0352 44.5739 52.5016 43.719 52.5016C43.26 52.5016 42.8498 52.0756 42.5664 51.4021ZM41.7216 49.2277C41.7216 51.3777 42.6282 53.119 43.7464 53.119C45.2661 53.119 45.8964 51.3777 45.8964 49.2277C45.8964 47.0792 45.2661 45.3379 43.7464 45.3379C42.6282 45.3379 41.7216 47.0792 41.7216 49.2277Z" fill="#99ABC1"/>
<path d="M42.9592 51.7418C43.3938 51.7418 43.7463 50.6165 43.7463 49.2278C43.7463 47.8391 43.3938 46.7137 42.9592 46.7137C42.8167 46.7137 42.6829 46.8389 42.5663 47.0533C42.8498 46.3813 43.2599 45.9553 43.719 45.9553C44.5738 45.9553 45.266 47.4203 45.266 49.2278C45.266 51.0353 44.5738 52.5017 43.719 52.5017C43.2599 52.5017 42.8498 52.0757 42.5663 51.4022C42.6829 51.6181 42.8167 51.7418 42.9592 51.7418Z" fill="#56556D"/>
<path d="M44.0989 49.4321C44.0989 50.8453 43.6096 52.2584 43.1362 52.2584C42.6627 52.2584 42.1734 50.6409 42.1734 49.2277C42.1734 47.8146 42.6627 46.1985 43.1362 46.1985C43.6096 46.1985 44.0989 48.0189 44.0989 49.4321Z" fill="#99ABC1"/>
<path d="M68.2423 49.2278C68.2423 45.7899 69.667 43.0038 72.3178 43.0038C75.1873 43.0038 76.6897 45.7899 76.6897 49.2278C76.6897 52.6658 75.1571 55.4533 72.3178 55.4533C69.667 55.4533 68.2423 52.6658 68.2423 49.2278ZM63.3049 49.2278C63.3049 53.594 64.8562 57.1341 70.2297 57.1341C75.619 57.1341 77.1545 53.594 77.1545 49.2278C77.1545 44.8617 75.6881 41.323 70.2297 41.323C64.8562 41.323 63.3049 44.8617 63.3049 49.2278Z" fill="#34273F"/>
<path d="M68.2423 49.2279C68.2423 52.6658 69.667 55.4533 72.3178 55.4533C75.1585 55.4533 76.6882 52.6658 76.6882 49.2279C76.6882 45.79 75.1873 43.0039 72.3178 43.0039C69.667 43.0039 68.2423 45.79 68.2423 49.2279Z" fill="#56556D"/>
<path d="M70.3002 51.4021C70.0656 50.9675 69.9073 50.1573 69.9073 49.2277C69.9073 48.2981 70.0656 47.4893 70.3002 47.0533C70.5837 46.3812 70.9938 45.9553 71.4543 45.9553C72.3077 45.9553 72.9999 47.4202 72.9999 49.2277C72.9999 51.0352 72.3077 52.5016 71.4543 52.5016C70.9938 52.5016 70.5837 52.0756 70.3002 51.4021ZM69.4554 49.2277C69.4554 51.3777 70.3621 53.119 71.4802 53.119C72.9999 53.119 73.6302 51.3777 73.6302 49.2277C73.6302 47.0792 72.9999 45.3379 71.4802 45.3379C70.3621 45.3379 69.4554 47.0792 69.4554 49.2277Z" fill="#99ABC1"/>
<path d="M70.693 51.7418C71.1276 51.7418 71.4802 50.6165 71.4802 49.2278C71.4802 47.8391 71.1276 46.7137 70.693 46.7137C70.5505 46.7137 70.4153 46.8389 70.3001 47.0533C70.5822 46.3813 70.9952 45.9553 71.4528 45.9553C72.3076 45.9553 72.9998 47.4203 72.9998 49.2278C72.9998 51.0353 72.3076 52.5017 71.4528 52.5017C70.9952 52.5017 70.5822 52.0757 70.3001 51.4022C70.4153 51.6181 70.5505 51.7418 70.693 51.7418Z" fill="#56556D"/>
<path d="M71.8327 49.4321C71.8327 50.8453 71.3435 52.2584 70.87 52.2584C70.3965 52.2584 69.9073 50.6409 69.9073 49.2277C69.9073 47.8146 70.3965 46.1985 70.87 46.1985C71.3435 46.1985 71.8327 48.0189 71.8327 49.4321Z" fill="#99ABC1"/>
<path d="M73.8014 15.365L76.7918 27.3884H62.5896V15.365H73.8014Z" fill="#D7EDFF"/>
<path d="M74.6303 25.6975H65.4793V27.3884H76.7918C76.5443 26.394 75.6535 25.6975 74.6303 25.6975Z" fill="#808DA0"/>
<path d="M66.1542 23.215C65.0231 23.215 64.1035 24.1346 64.1035 25.2657C64.1035 26.3954 65.0231 27.3149 66.1542 27.3149C67.2838 27.3149 68.2034 26.3954 68.2034 25.2657C68.2034 24.1346 67.2838 23.215 66.1542 23.215ZM66.1542 27.8244C64.7439 27.8244 63.5955 26.676 63.5955 25.2657C63.5955 23.854 64.7439 22.707 66.1542 22.707C67.5645 22.707 68.7128 23.854 68.7128 25.2657C68.7128 26.676 67.5645 27.8244 66.1542 27.8244Z" fill="#808DA0"/>
<path d="M73.8 15.3665H62.9062V16.2126H74.0101L73.8 15.3665Z" fill="#808DA0"/>
<path d="M70.8844 25.7363C70.8844 26.6487 70.1447 27.3883 69.2323 27.3883H62.5435C61.6311 27.3883 60.8929 26.6487 60.8929 25.7363V17.0169C60.8929 16.1046 61.6311 15.3663 62.5435 15.3663H69.2323C70.1447 15.3663 70.8844 16.1046 70.8844 17.0169V25.7363ZM76.7918 27.3883H73.1984C72.3695 27.3883 71.6989 26.7163 71.6989 25.8888V16.8644C71.6989 16.0369 72.3695 15.3649 73.1984 15.3649H74.4576C74.4576 13.8553 73.233 12.6321 71.7248 12.6321H59.4855V42.6166C59.4855 44.7551 61.2196 46.4877 63.358 46.4877H64.8432C65.5397 46.4877 66.1139 45.9596 66.1959 45.2688C67.1543 37.1021 77.2595 37.9799 78.2697 44.2097C78.3791 44.8846 78.9317 45.3969 79.6167 45.3969C80.3693 45.3969 80.9795 44.7896 80.9781 44.037C80.9651 36.2804 80.7435 27.3883 76.7918 27.3883Z" fill="#FF4545"/>
<path d="M64.4043 18.9556C64.5914 19.8276 63.9553 20.6609 63.0645 20.7098L60.6915 20.8393C59.8611 20.8839 59.1632 20.2234 59.1632 19.3902V19.2606C59.1632 18.4605 59.8122 17.8101 60.6123 17.8101H62.9868C63.6704 17.8101 64.2618 18.2878 64.4043 18.9556Z" fill="#808DA0"/>
<path d="M60.4871 21.3773L63.1235 20.1311C63.171 20.1311 63.2199 20.1325 63.2674 20.134C64.7122 20.1944 65.8865 21.327 66.0678 22.7617L66.6506 27.3884H60.4871V21.3773Z" fill="#808DA0"/>
<path d="M72.4818 15.3664C72.4818 15.7376 72.1796 16.0398 71.8083 16.0398C71.437 16.0398 71.1348 15.7376 71.1348 15.3664C71.1348 14.9951 71.437 14.6929 71.8083 14.6929C72.1796 14.6929 72.4818 14.9951 72.4818 15.3664Z" fill="#56556D"/>
<path d="M72.4818 27.5697C72.4818 27.941 72.1796 28.2432 71.8083 28.2432C71.437 28.2432 71.1348 27.941 71.1348 27.5697C71.1348 27.1984 71.437 26.8962 71.8083 26.8962C72.1796 26.8962 72.4818 27.1984 72.4818 27.5697Z" fill="#56556D"/>
<path d="M80.3866 26.2186H79.8499C78.9994 26.2186 78.3101 25.5293 78.3101 24.6788V16.5552C78.3101 15.7047 78.9994 15.0154 79.8499 15.0154H80.3866C81.2371 15.0154 82.2416 15.7047 82.2416 16.5552V24.6788C82.2416 25.5293 81.2371 26.2186 80.3866 26.2186Z" fill="#56556D"/>
<path d="M80.1723 25.6976H79.8715C79.1419 25.6976 78.549 25.1047 78.549 24.3737V16.8704C78.549 16.1407 79.1419 15.5479 79.8715 15.5479H80.1723C80.9033 15.5479 81.4962 16.1407 81.4962 16.8704V24.3737C81.4962 25.1047 80.9033 25.6976 80.1723 25.6976Z" fill="#D7EDFF"/>
<path d="M71.8385 27.5698C71.7521 27.5698 71.6744 27.5065 71.6586 27.4187C71.6428 27.3194 71.709 27.2259 71.8083 27.2086L80.5852 25.7005C80.683 25.6832 80.778 25.7494 80.7953 25.8487C80.8126 25.948 80.7449 26.0416 80.6471 26.0588L71.8687 27.567C71.8586 27.5684 71.8486 27.5698 71.8385 27.5698Z" fill="#56556D"/>
<path d="M80.6169 15.5477H71.8385C71.7378 15.5477 71.6572 15.4657 71.6572 15.3664C71.6572 15.2656 71.7378 15.1836 71.8385 15.1836H80.6169C80.7162 15.1836 80.7982 15.2656 80.7982 15.3664C80.7982 15.4657 80.7162 15.5477 80.6169 15.5477Z" fill="#56556D"/>
<path d="M81.4962 16.9826L78.549 18.4965V17.7712L81.3581 16.2847C81.4631 16.4646 81.4948 16.7106 81.4962 16.9826Z" fill="white"/>
<path d="M81.4962 18.1251L78.549 19.639V18.9137L81.4962 17.3538V18.1251Z" fill="white"/>
<path d="M81.4962 21.3874L78.549 22.9028V22.4826L81.4962 20.9226V21.3874Z" fill="white"/>
<path d="M81.4961 23.2871L78.6093 24.7708C78.5143 24.565 78.5417 23.9059 78.5489 23.3202L81.4961 21.7603V23.2871Z" fill="white"/>
<path d="M37.3454 49.2278C37.3454 50.4913 35.7379 51.516 33.7563 51.516C31.7747 51.516 30.1673 50.4913 30.1673 49.2278C30.1673 47.9643 31.7747 46.9397 33.7563 46.9397C35.7379 46.9397 37.3454 47.9643 37.3454 49.2278Z" fill="#34273F"/>
<path d="M36.151 47.5541H5.40084V43.2109H36.151V47.5541Z" fill="#56556D"/>
<path d="M12.8998 46.1986H6.50025V44.1868H12.8998V46.1986Z" fill="#FF4545"/>
<path d="M33.3663 46.1986H26.9682V44.1868H33.3663V46.1986Z" fill="#FF4545"/>
<path d="M34.9537 47.5541H37.3483V43.2109H34.9537V47.5541Z" fill="#808DA0"/>
<path d="M17.1336 53.4688H11.219C12.5659 51.4973 12.8998 49.8236 12.8998 47.5542H17.1336V53.4688Z" fill="#34273F"/>
<path d="M37.3454 53.4688H30.1673C31.5372 52.0988 31.602 50.6194 31.4308 47.5542H37.3454V53.4688Z" fill="#34273F"/>
<path d="M1.40458 38.7384H33.0757V1.52539H1.40458V38.7384Z" fill="#808DA0"/>
<path d="M28.1627 38.7384H1.40458V1.52393L28.1627 25.6975V38.7384Z" fill="#99ABC1"/>
<path d="M7.93505 37.3812C7.5393 37.3812 7.21839 37.0603 7.21839 36.6646V3.84652C7.21839 3.44933 7.5393 3.12842 7.93505 3.12842C8.33223 3.12842 8.65315 3.44933 8.65315 3.84652V36.6646C8.65315 37.0603 8.33223 37.3812 7.93505 37.3812Z" fill="#99ABC1"/>
<path d="M6.50025 37.3812C6.1045 37.3812 5.78359 37.0603 5.78359 36.6646V3.84652C5.78359 3.44933 6.1045 3.12842 6.50025 3.12842C6.89743 3.12842 7.21835 3.44933 7.21835 3.84652V36.6646C7.21835 37.0603 6.89743 37.3812 6.50025 37.3812Z" fill="#808DA0"/>
<path d="M14.077 37.3813H13.9864C13.6151 37.3813 13.3143 37.0805 13.3143 36.7093V8.00117C13.3143 7.63133 13.6151 7.33057 13.9864 7.33057H14.077C14.4483 7.33057 14.7491 7.63133 14.7491 8.00117V36.7093C14.7491 37.0805 14.4483 37.3813 14.077 37.3813Z" fill="#99ABC1"/>
<path d="M12.5976 37.3812C12.2004 37.3812 11.8795 37.0603 11.8795 36.6646V3.84652C11.8795 3.44933 12.2004 3.12842 12.5976 3.12842C12.9933 3.12842 13.3143 3.44933 13.3143 3.84652V36.6646C13.3143 37.0603 12.9933 37.3812 12.5976 37.3812Z" fill="#808DA0"/>
<path d="M20.2161 37.3813H20.0391C19.6923 37.3813 19.4102 37.1007 19.4102 36.7525V11.6565C19.4102 11.3096 19.6923 11.0276 20.0391 11.0276H20.2161C20.5629 11.0276 20.845 11.3096 20.845 11.6565V36.7525C20.845 37.1007 20.5629 37.3813 20.2161 37.3813Z" fill="#99ABC1"/>
<path d="M18.6935 37.3812C18.2963 37.3812 17.9754 37.0603 17.9754 36.6646V3.84652C17.9754 3.44933 18.2963 3.12842 18.6935 3.12842C19.0893 3.12842 19.4102 3.44933 19.4102 3.84652V36.6646C19.4102 37.0603 19.0893 37.3812 18.6935 37.3812Z" fill="#808DA0"/>
<path d="M26.0947 37.3814H25.9609C25.7105 37.3814 25.5061 37.1785 25.5061 36.9267V18.8778C25.5061 18.6274 25.7105 18.4231 25.9609 18.4231H26.0947C26.3451 18.4231 26.5495 18.6274 26.5495 18.8778V36.9267C26.5495 37.1785 26.3451 37.3814 26.0947 37.3814Z" fill="#99ABC1"/>
<path d="M24.7894 37.3812C24.3937 37.3812 24.0713 37.0603 24.0713 36.6646V3.84652C24.0713 3.44933 24.3937 3.12842 24.7894 3.12842C25.1852 3.12842 25.5061 3.44933 25.5061 3.84652V36.6646C25.5061 37.0603 25.1852 37.3812 24.7894 37.3812Z" fill="#808DA0"/>
<path d="M69.3878 15.4629L69.2799 15.3665C70.1923 15.3665 70.9305 16.1047 70.9305 17.0171V25.7364C70.9305 26.6488 70.1923 27.387 69.2799 27.387V27.3309C69.8714 26.8503 70.2326 26.1854 70.2326 25.4184V17.3409C70.2326 16.6228 69.9246 15.9392 69.3878 15.4629Z" fill="#A51B1B"/>
<path d="M64.1122 19.3253C64.0028 19.3253 63.8977 19.2619 63.8502 19.1554C63.7855 19.0115 63.8502 18.8417 63.9941 18.777L67.0608 17.407C67.2062 17.3422 67.376 17.407 67.4407 17.5509C67.5055 17.6948 67.4407 17.8646 67.2954 17.9294L64.2287 19.3008C64.1913 19.3181 64.151 19.3253 64.1122 19.3253Z" fill="white"/>
<path d="M65.5124 20.3198C65.403 20.3198 65.298 20.2565 65.2505 20.15C65.1857 20.0061 65.2505 19.8363 65.3944 19.7715L68.4625 18.4001C68.6064 18.3354 68.7762 18.4001 68.841 18.5455C68.9058 18.6894 68.841 18.8592 68.6956 18.9239L65.629 20.2939C65.5916 20.3112 65.5513 20.3198 65.5124 20.3198Z" fill="white"/>
<path d="M73.2287 25.1608C73.1121 25.1608 72.9999 25.0932 72.9495 24.9795C72.8804 24.8241 72.9495 24.6427 73.1035 24.5737L75.0865 23.6872C75.242 23.6181 75.4233 23.6872 75.4924 23.8412C75.5614 23.9966 75.4924 24.1779 75.3369 24.247L73.3539 25.1335C73.3136 25.1522 73.2719 25.1608 73.2287 25.1608Z" fill="white"/>
<path d="M72.9121 23.4455C72.7941 23.4455 72.6833 23.3778 72.6315 23.2627C72.5624 23.1087 72.6315 22.9274 72.7869 22.8583L74.0662 22.2856C74.2217 22.2165 74.403 22.2856 74.4721 22.441C74.5411 22.595 74.4721 22.7763 74.3166 22.8454L73.0373 23.4181C72.997 23.4368 72.9538 23.4455 72.9121 23.4455Z" fill="white"/>
<path d="M64.8116 25.2773C64.7022 25.2773 64.5986 25.214 64.5511 25.1075C64.4864 24.9636 64.5511 24.7938 64.695 24.729L67.7617 23.359C67.9056 23.2928 68.0769 23.359 68.1402 23.5029C68.2049 23.6468 68.1402 23.8166 67.9963 23.8814L64.9296 25.2528C64.8907 25.2701 64.8519 25.2773 64.8116 25.2773Z" fill="white"/>
<path d="M66.2133 26.2718C66.1039 26.2718 65.9988 26.2084 65.9514 26.102C65.8866 25.9566 65.9514 25.7882 66.0967 25.7235L69.1619 24.352C69.3073 24.2873 69.4771 24.352 69.5418 24.4959C69.6052 24.6413 69.5404 24.8111 69.3965 24.8744L66.3298 26.2459C66.2924 26.2631 66.2521 26.2718 66.2133 26.2718Z" fill="white"/>
<path d="M32.7648 38.8666H14.4843V20.9055H32.7648V38.8666Z" fill="#FFBF80"/>
<path d="M28.5988 38.8666H40.7719V20.9041H28.5988V38.8666Z" fill="#DB995D"/>
<path d="M28.5987 20.9041V29.1212L17.3509 20.9041H28.5987Z" fill="#DB995D"/>
<path d="M16.9408 38.8666H5.07705V29.822H16.9408V38.8666Z" fill="#FFBF80"/>
<path d="M14.2367 38.8664H22.1372V29.8232H14.2367V38.8664Z" fill="#DB995D"/>
<path d="M31.7114 20.9775H23.6871V13.6123H31.7114V20.9775Z" fill="#FFBF80"/>
<path d="M29.8823 20.9775H35.2256V13.6123H29.8823V20.9775Z" fill="#DB995D"/>
<path d="M24.1434 13.6123L29.8824 17.2949V13.6123H24.1434Z" fill="#DB995D"/>
<path d="M29.4304 17.2947H27.0718V14.9375H29.4304V17.2947Z" fill="#FFD2A9"/>
<path d="M9.13088 37.7022H6.25417V34.8269H9.13088V37.7022Z" fill="#FFD2A9"/>
<path d="M20.2175 24.0655H16.2371V21.7817H20.2175V24.0655Z" fill="#FFD2A9"/>
<path d="M27.0718 14.9375V15.4915L29.4304 17.004V14.9375H27.0718Z" fill="#E8C09E"/>
<path d="M18.5511 21.7817H20.2175V22.9992L18.5511 21.7817Z" fill="#E8C09E"/>
<path d="M33.5751 38.8666H22.6194V27.9124H33.5751V38.8666Z" fill="#FFBF80"/>
<path d="M31.0782 38.8666H38.3728V27.9124H31.0782V38.8666Z" fill="#DB995D"/>
<path d="M29.9083 31.9258H27.105V29.1211H29.9083V31.9258Z" fill="#FFD2A9"/>
<path d="M33.0757 39.9328H63.3078V0H33.0757V39.9328Z" fill="#BACBDB"/>
<path d="M32.9577 38.7384H1.53405V1.52398H32.9577V38.7384ZM0 0V39.9328H36.2071V0H0Z" fill="#BACBDB"/>
<path d="M36.2071 37.2577C35.856 37.2577 35.5711 36.9742 35.5711 36.6216V3.64095C35.5711 3.28982 35.856 3.00488 36.2071 3.00488C36.5583 3.00488 36.8432 3.28982 36.8432 3.64095V36.6216C36.8432 36.9742 36.5583 37.2577 36.2071 37.2577Z" fill="#AFC3D3"/>
<path d="M42.0468 37.2577C41.6957 37.2577 41.4108 36.9742 41.4108 36.6217V3.64098C41.4108 3.28985 41.6957 3.00635 42.0468 3.00635C42.398 3.00635 42.6829 3.28985 42.6829 3.64098V36.6217C42.6829 36.9742 42.398 37.2577 42.0468 37.2577Z" fill="#AFC3D3"/>
<path d="M47.8866 37.2577C47.5354 37.2577 47.2505 36.9742 47.2505 36.6216V3.64095C47.2505 3.28982 47.5354 3.00488 47.8866 3.00488C48.2391 3.00488 48.5226 3.28982 48.5226 3.64095V36.6216C48.5226 36.9742 48.2391 37.2577 47.8866 37.2577Z" fill="#AFC3D3"/>
<path d="M53.7278 37.2577C53.3766 37.2577 53.0917 36.9742 53.0917 36.6216V3.64095C53.0917 3.28982 53.3766 3.00488 53.7278 3.00488C54.0789 3.00488 54.3638 3.28982 54.3638 3.64095V36.6216C54.3638 36.9742 54.0789 37.2577 53.7278 37.2577Z" fill="#AFC3D3"/>
<path d="M59.5676 37.2577C59.215 37.2577 58.9315 36.9742 58.9315 36.6216V3.64095C58.9315 3.28982 59.215 3.00488 59.5676 3.00488C59.9187 3.00488 60.2037 3.28982 60.2037 3.64095V36.6216C60.2037 36.9742 59.9187 37.2577 59.5676 37.2577Z" fill="#AFC3D3"/>
</svg>
