<svg width="253" height="38" viewBox="0 0 253 38" fill="none" xmlns="http://www.w3.org/2000/svg">
<mask id="mask0_230_70" style="mask-type:luminance" maskUnits="userSpaceOnUse" x="16" y="11" width="17" height="27">
<path d="M16.8076 11.7627H32.8845V38H16.8076V11.7627Z" fill="white"/>
</mask>
<g mask="url(#mask0_230_70)">
<path d="M33.0635 11.8997L27.9937 14.7828L27.9918 25.5635L17.036 31.8873V37.8933L33.0654 28.6369L33.0635 11.8997Z" fill="#333333"/>
</g>
<mask id="mask1_230_70" style="mask-type:luminance" maskUnits="userSpaceOnUse" x="0" y="0" width="24" height="33">
<path d="M0 0H23.6282V32.7114H0V0Z" fill="white"/>
</mask>
<g mask="url(#mask1_230_70)">
<path d="M5.07922 12.3337L16.5355 5.72065L18.549 6.88341L23.554 4.05739L16.5355 0.00390625L0.00379944 9.54767V28.6371L6.39612 32.329V26.3249L5.07922 25.5637V12.3337Z" fill="#333333"/>
</g>
<path d="M24.8689 16.5469L14.3336 22.5186V18.5184L31.5486 8.67208L25.6606 5.27515L8.76344 14.8513V33.6933L14.3336 36.9094V27.3048L24.8689 21.2797V16.5469Z" fill="#333333"/>
<path d="M51.6156 15.3363H44.2285V18.8534H51.0365V21.8902H44.2285V27.4835H40.3583V12.2996H51.6156V15.3363Z" fill="#333333"/>
<path d="M64.8199 15.8025V27.4835H61.0628V25.5485C60.2718 26.9433 59.0076 27.6389 57.2774 27.6389C56.0062 27.6389 54.9892 27.2363 54.2265 26.4242C53.4637 25.6155 53.0824 24.5315 53.0824 23.1755V15.8025H56.8395V22.1021C56.8395 22.8012 57.0125 23.345 57.3621 23.7405C57.7188 24.136 58.1955 24.3337 58.7887 24.3337C59.4949 24.3267 60.0493 24.0654 60.4554 23.5569C60.858 23.0413 61.0628 22.3775 61.0628 21.5653V15.8025H64.8199Z" fill="#333333"/>
<path d="M71.6614 27.4834H67.9184V11.3955H71.6614V27.4834Z" fill="#333333"/>
<path d="M80.5117 14.1922C80.1162 14.1852 79.7914 14.2911 79.5371 14.5171C79.29 14.736 79.1699 15.0538 79.1699 15.4776V16.3109H81.8112V18.7827H79.1699V27.4835H75.4551V18.7827H73.8732V16.3109H75.4551V15.2375C75.4551 13.9768 75.8718 12.9916 76.7122 12.2854C77.5491 11.5792 78.619 11.2261 79.9185 11.2261C81.1615 11.2261 82.2526 11.5015 83.1954 12.0453L81.8677 14.6725C81.4334 14.3547 80.9814 14.1922 80.5117 14.1922Z" fill="#333333"/>
<path d="M83.5953 11.0142C83.9625 10.647 84.4322 10.4634 85.0077 10.4634C85.5904 10.4634 86.0671 10.647 86.4343 11.0142C86.8016 11.3815 86.9852 11.8582 86.9852 12.4408C86.9852 13.0164 86.8016 13.4931 86.4343 13.8674C86.0671 14.2452 85.5904 14.4324 85.0077 14.4324C84.4322 14.4324 83.9625 14.2452 83.5953 13.8674C83.228 13.4931 83.0444 13.0164 83.0444 12.4408C83.0444 11.8582 83.228 11.3815 83.5953 11.0142ZM86.8581 27.4835H83.1292V15.8025H86.8581V27.4835Z" fill="#333333"/>
<path d="M93.726 27.4834H89.983V11.3955H93.726V27.4834Z" fill="#333333"/>
<path d="M100.683 27.4834H96.9404V11.3955H100.683V27.4834Z" fill="#333333"/>
<path d="M119.392 15.6189C120.681 15.6189 121.702 16.0285 122.457 16.8477C123.22 17.667 123.601 18.7546 123.601 20.1105V27.4835H119.873V21.1557C119.873 20.4601 119.689 19.9128 119.322 19.5173C118.962 19.1218 118.474 18.924 117.853 18.924C117.154 18.9346 116.599 19.1995 116.186 19.715C115.78 20.2235 115.579 20.8838 115.579 21.6925V27.4835H111.822V21.1557C111.822 20.4601 111.641 19.9128 111.285 19.5173C110.935 19.1218 110.452 18.924 109.83 18.924C109.124 18.9346 108.559 19.203 108.135 19.7292C107.718 20.2482 107.514 20.9015 107.514 21.6925V27.4835H103.785V15.8025H107.514V17.7235C108.305 16.3498 109.59 15.6471 111.37 15.6189C112.309 15.6189 113.125 15.8555 113.813 16.3251C114.498 16.7983 114.985 17.448 115.268 18.2743C116.038 16.5335 117.415 15.6471 119.392 15.6189Z" fill="#333333"/>
<path d="M131.374 15.6614C133.397 15.6614 134.919 16.2829 135.936 17.5258C136.96 18.7688 137.409 20.4779 137.278 22.653H129.058C129.245 23.3416 129.573 23.8748 130.046 24.2491C130.527 24.627 131.113 24.8141 131.812 24.8141C132.875 24.8141 133.807 24.4186 134.609 23.6276L136.586 25.5486C135.322 26.9257 133.623 27.6108 131.487 27.6108C129.594 27.6108 128.087 27.0705 126.967 25.9865C125.844 24.9059 125.286 23.4687 125.286 21.6785C125.286 19.8705 125.844 18.4157 126.967 17.314C128.087 16.2122 129.556 15.6614 131.374 15.6614ZM128.987 20.6332H133.676C133.676 19.927 133.468 19.3585 133.055 18.9242C132.638 18.4934 132.094 18.2744 131.416 18.2744C130.784 18.2744 130.251 18.4863 129.82 18.91C129.386 19.3338 129.107 19.9093 128.987 20.6332Z" fill="#333333"/>
<path d="M146.964 15.6189C148.243 15.6189 149.274 16.0285 150.058 16.8477C150.838 17.667 151.23 18.7546 151.23 20.1105V27.4835H147.501V21.1557C147.501 20.4778 147.317 19.941 146.95 19.5455C146.583 19.143 146.078 18.9382 145.439 18.9382C144.779 18.9382 144.231 19.1571 143.8 19.5879C143.377 20.0222 143.126 20.5978 143.052 21.3111V27.4835H139.309V15.8025H143.052V17.7093C143.878 16.3463 145.185 15.6471 146.964 15.6189Z" fill="#333333"/>
<path d="M160.704 24.249L161.438 26.8479C160.524 27.3847 159.482 27.653 158.317 27.653C157.158 27.653 156.219 27.3352 155.506 26.6926C154.789 26.0534 154.432 25.1389 154.432 23.9524V18.7828H152.808V16.3392H154.432V13.0906H158.161V16.311H161.226V18.7828H158.161V23.3592C158.161 23.8111 158.249 24.1431 158.43 24.3479C158.617 24.5562 158.889 24.6551 159.249 24.6445C159.595 24.6445 160.082 24.5138 160.704 24.249Z" fill="#333333"/>
<path d="M185.048 27.4835H181.644L181.615 17.6245L177.971 25.9721H175.457L171.827 17.6245V27.4835H168.366V12.2854H172.604L176.714 21.3251L180.838 12.2854H185.048V27.4835Z" fill="#333333"/>
<path d="M193.316 15.6189C194.926 15.6189 196.173 15.9932 197.059 16.7347C197.952 17.4798 198.404 18.5215 198.415 19.8563V27.4835H194.757V26.1417C193.983 27.1516 192.786 27.653 191.169 27.653C189.944 27.653 188.969 27.3141 188.245 26.6361C187.518 25.9581 187.158 25.0788 187.158 23.9948C187.158 22.886 187.543 22.0244 188.316 21.41C189.096 20.7885 190.209 20.4742 191.649 20.4636H194.729V20.28C194.729 19.708 194.534 19.2595 194.149 18.9382C193.772 18.6098 193.207 18.4438 192.454 18.4438C191.399 18.4438 190.237 18.7687 188.966 19.4184L187.906 16.9466C189.799 16.0638 191.6 15.6189 193.316 15.6189ZM192.327 25.1247C192.921 25.1247 193.436 24.98 193.881 24.6869C194.333 24.3867 194.616 23.9948 194.729 23.5145V22.4693H192.37C191.24 22.4693 190.675 22.8895 190.675 23.7264C190.675 24.1607 190.82 24.5033 191.113 24.7575C191.402 25.0047 191.808 25.1247 192.327 25.1247Z" fill="#333333"/>
<path d="M205.261 15.6189C206.985 15.6189 208.588 16.0638 210.078 16.9466L208.792 19.376C207.352 18.5957 206.123 18.2037 205.106 18.2037C204.343 18.2037 203.962 18.4721 203.962 19.0088C203.962 19.3019 204.167 19.5455 204.583 19.7433C205.007 19.934 205.519 20.107 206.123 20.2659C206.734 20.4283 207.338 20.6261 207.931 20.8591C208.531 21.0957 209.04 21.4771 209.456 22.0032C209.88 22.5223 210.092 23.1579 210.092 23.91C210.092 25.0788 209.633 25.9934 208.722 26.6502C207.818 27.3105 206.635 27.6389 205.177 27.6389C203.114 27.6389 201.366 27.0881 199.936 25.9863L201.123 23.5993C202.496 24.5704 203.877 25.0541 205.261 25.0541C206.116 25.0541 206.547 24.7858 206.547 24.249C206.547 23.9489 206.338 23.6982 205.925 23.5004C205.509 23.2956 205.007 23.112 204.414 22.9496C203.821 22.7907 203.227 22.5929 202.634 22.3563C202.048 22.1233 201.55 21.749 201.137 21.2405C200.72 20.732 200.515 20.0964 200.515 19.3337C200.515 18.1684 200.953 17.2573 201.829 16.6076C202.712 15.9508 203.856 15.6189 205.261 15.6189Z" fill="#333333"/>
<path d="M219.007 24.249L219.742 26.8479C218.827 27.3847 217.785 27.653 216.62 27.653C215.462 27.653 214.523 27.3352 213.809 26.6926C213.093 26.0534 212.736 25.1389 212.736 23.9524V18.7828H211.112V16.3392H212.736V13.0906H216.465V16.311H219.53V18.7828H216.465V23.3592C216.465 23.8111 216.553 24.1431 216.733 24.3479C216.92 24.5562 217.192 24.6551 217.552 24.6445C217.898 24.6445 218.386 24.5138 219.007 24.249Z" fill="#333333"/>
<path d="M226.741 15.6614C228.764 15.6614 230.286 16.2829 231.303 17.5258C232.327 18.7688 232.775 20.4779 232.645 22.653H224.424C224.611 23.3416 224.94 23.8748 225.413 24.2491C225.893 24.627 226.479 24.8141 227.178 24.8141C228.241 24.8141 229.174 24.4186 229.975 23.6276L231.953 25.5486C230.688 26.9257 228.99 27.6108 226.854 27.6108C224.961 27.6108 223.453 27.0705 222.334 25.9865C221.211 24.9059 220.653 23.4687 220.653 21.6785C220.653 19.8705 221.211 18.4157 222.334 17.314C223.453 16.2122 224.922 15.6614 226.741 15.6614ZM224.354 20.6332H229.043C229.043 19.927 228.835 19.3585 228.421 18.9242C228.005 18.4934 227.461 18.2744 226.783 18.2744C226.151 18.2744 225.618 18.4863 225.187 18.91C224.753 19.3338 224.474 19.9093 224.354 20.6332Z" fill="#333333"/>
<path d="M238.419 15.8025V17.7658C239.245 16.364 240.513 15.6471 242.218 15.6189V19.0088C241.152 18.9064 240.276 19.0865 239.591 19.5455C238.913 19.9975 238.521 20.6437 238.419 21.4806V27.4835H234.676V15.8025H238.419Z" fill="#333333"/>
<path d="M248.111 15.6189C249.834 15.6189 251.438 16.0638 252.928 16.9466L251.642 19.376C250.202 18.5957 248.973 18.2037 247.956 18.2037C247.193 18.2037 246.812 18.4721 246.812 19.0088C246.812 19.3019 247.017 19.5455 247.433 19.7433C247.857 19.934 248.369 20.107 248.973 20.2659C249.584 20.4283 250.188 20.6261 250.781 20.8591C251.381 21.0957 251.89 21.4771 252.306 22.0032C252.73 22.5223 252.942 23.1579 252.942 23.91C252.942 25.0788 252.483 25.9934 251.572 26.6502C250.668 27.3105 249.485 27.6389 248.027 27.6389C245.964 27.6389 244.216 27.0881 242.786 25.9863L243.973 23.5993C245.346 24.5704 246.727 25.0541 248.111 25.0541C248.966 25.0541 249.397 24.7858 249.397 24.249C249.397 23.9489 249.188 23.6982 248.775 23.5004C248.358 23.2956 247.857 23.112 247.264 22.9496C246.671 22.7907 246.077 22.5929 245.484 22.3563C244.898 22.1233 244.4 21.749 243.987 21.2405C243.57 20.732 243.365 20.0964 243.365 19.3337C243.365 18.1684 243.803 17.2573 244.679 16.6076C245.562 15.9508 246.706 15.6189 248.111 15.6189Z" fill="#333333"/>
</svg>
